# MagicaVoxel @ Ephtracy

# group
o 

# material
mtllib mur.mtl
usemtl palette

# normals
vn -1 0 0
vn 1 0 0
vn 0 0 1
vn 0 0 -1
vn 0 -1 0
vn 0 1 0

# texcoords
vt 0.919922 0.5
vt 0.935547 0.5
vt 0.966797 0.5
vt 0.974609 0.5
vt 0.978516 0.5

# verts
v 0 2 0
v 0 2 -1.9
v 0 9.3 0
v 0 9.3 -1.2
v 0 9.3 -1.3
v 0 9.3 -1.5
v 0 9.4 -1.9
v 0 9.4 -2.1
v 0 10.8 -1.2
v 0 10.8 -1.3
v 0 10.8 -1.5
v 0 10.8 -2.1
v 0 10.9 -1.2
v 0 10.9 -2.1
v 2 9.1 -1.9
v 2 9.1 -2.3
v 2 9.4 -1.9
v 2 9.4 -2.1
v 2 10.8 -2.1
v 2 10.9 -1.2
v 2 10.9 -1.3
v 2 10.9 -1.5
v 2 10.9 -2.1
v 2 11.2 -1.2
v 2 11.2 -1.3
v 2 11.2 -1.5
v 2 11.2 -2.3
v 2 11.5 -1.2
v 2 11.5 -2.3
v 8 9.1 -1.9
v 8 9.1 -2.3
v 8 9.4 -1.9
v 8 9.4 -2.1
v 8 10.8 -2.1
v 8 10.9 -1.2
v 8 10.9 -1.3
v 8 10.9 -1.5
v 8 10.9 -2.1
v 8 11.2 -1.2
v 8 11.2 -1.3
v 8 11.2 -1.5
v 8 11.2 -2.3
v 8 11.5 -1.2
v 8 11.5 -2.3
v 6 9.1 -1.9
v 6 9.1 -2.3
v 6 9.4 -1.9
v 6 9.4 -2.1
v 6 10.8 -2.1
v 6 10.9 -1.2
v 6 10.9 -2.1
v 6 11.2 -1.2
v 6 11.2 -2.3
v 6 11.5 -1.2
v 6 11.5 -2.3
v 12 2 0
v 12 2 -1.9
v 12 9.1 -1.9
v 12 9.1 -2.3
v 12 9.3 0
v 12 9.3 -1.2
v 12 11.2 -1.2
v 12 11.2 -2.3
v 12 11.5 -1.2
v 12 11.5 -2.3
v 0 2 0
v 0 9.3 0
v 12 2 0
v 12 9.3 0
v 0 9.3 -1.2
v 0 10.8 -1.2
v 0 10.9 -1.2
v 2 10.8 -1.2
v 2 10.9 -1.2
v 2 11.2 -1.2
v 2 11.5 -1.2
v 6 10.8 -1.2
v 6 10.9 -1.2
v 6 11.2 -1.2
v 6 11.5 -1.2
v 8 10.8 -1.2
v 8 10.9 -1.2
v 8 11.2 -1.2
v 8 11.5 -1.2
v 12 9.3 -1.2
v 12 11.2 -1.2
v 12 11.5 -1.2
v 0 2 -1.9
v 0 9.4 -1.9
v 2 9.1 -1.9
v 2 9.4 -1.9
v 6 9.1 -1.9
v 6 9.4 -1.9
v 8 9.1 -1.9
v 8 9.4 -1.9
v 12 2 -1.9
v 12 9.1 -1.9
v 0 9.4 -2.1
v 0 10.8 -2.1
v 0 10.9 -2.1
v 2 9.4 -2.1
v 2 10.8 -2.1
v 2 10.9 -2.1
v 6 9.4 -2.1
v 6 10.8 -2.1
v 6 10.9 -2.1
v 8 9.4 -2.1
v 8 10.8 -2.1
v 8 10.9 -2.1
v 2 9.1 -2.3
v 2 11.2 -2.3
v 2 11.5 -2.3
v 6 9.1 -2.3
v 6 11.2 -2.3
v 6 11.5 -2.3
v 8 9.1 -2.3
v 8 11.2 -2.3
v 8 11.5 -2.3
v 12 9.1 -2.3
v 12 11.2 -2.3
v 12 11.5 -2.3
v 0 2 0
v 12 2 0
v 0 2 -1.9
v 12 2 -1.9
v 2 9.1 -1.9
v 6 9.1 -1.9
v 8 9.1 -1.9
v 12 9.1 -1.9
v 2 9.1 -2.3
v 6 9.1 -2.3
v 8 9.1 -2.3
v 12 9.1 -2.3
v 0 9.4 -1.9
v 2 9.4 -1.9
v 6 9.4 -1.9
v 8 9.4 -1.9
v 0 9.4 -2.1
v 2 9.4 -2.1
v 6 9.4 -2.1
v 8 9.4 -2.1
v 0 9.3 0
v 12 9.3 0
v 0 9.3 -1.2
v 12 9.3 -1.2
v 0 10.9 -1.2
v 2 10.9 -1.2
v 6 10.9 -1.2
v 8 10.9 -1.2
v 2 10.9 -1.3
v 8 10.9 -1.3
v 2 10.9 -1.5
v 8 10.9 -1.5
v 0 10.9 -2.1
v 2 10.9 -2.1
v 6 10.9 -2.1
v 8 10.9 -2.1
v 2 11.5 -1.2
v 6 11.5 -1.2
v 8 11.5 -1.2
v 12 11.5 -1.2
v 2 11.5 -2.3
v 6 11.5 -2.3
v 8 11.5 -2.3
v 12 11.5 -2.3

# faces
f 3/5/1 2/5/1 1/5/1
f 4/5/1 2/5/1 3/5/1
f 5/5/1 2/5/1 4/5/1
f 6/5/1 2/5/1 5/5/1
f 7/5/1 2/5/1 6/5/1
f 9/5/1 5/5/1 4/5/1
f 10/4/1 6/4/1 5/4/1
f 10/5/1 5/5/1 9/5/1
f 11/5/1 8/5/1 7/5/1
f 11/4/1 6/4/1 10/4/1
f 11/5/1 7/5/1 6/5/1
f 12/5/1 8/5/1 11/5/1
f 13/2/1 10/2/1 9/2/1
f 13/2/1 11/2/1 10/2/1
f 13/2/1 12/2/1 11/2/1
f 14/2/1 12/2/1 13/2/1
f 17/5/1 16/5/1 15/5/1
f 18/5/1 16/5/1 17/5/1
f 19/5/1 16/5/1 18/5/1
f 23/5/1 16/5/1 19/5/1
f 24/5/1 21/5/1 20/5/1
f 25/4/1 22/4/1 21/4/1
f 25/5/1 21/5/1 24/5/1
f 26/5/1 23/5/1 22/5/1
f 26/4/1 22/4/1 25/4/1
f 27/5/1 16/5/1 23/5/1
f 27/5/1 23/5/1 26/5/1
f 28/2/1 25/2/1 24/2/1
f 28/2/1 26/2/1 25/2/1
f 28/2/1 27/2/1 26/2/1
f 29/2/1 27/2/1 28/2/1
f 32/5/1 31/5/1 30/5/1
f 33/5/1 31/5/1 32/5/1
f 34/5/1 31/5/1 33/5/1
f 38/5/1 31/5/1 34/5/1
f 39/5/1 36/5/1 35/5/1
f 40/4/1 37/4/1 36/4/1
f 40/5/1 36/5/1 39/5/1
f 41/5/1 38/5/1 37/5/1
f 41/4/1 37/4/1 40/4/1
f 42/5/1 31/5/1 38/5/1
f 42/5/1 38/5/1 41/5/1
f 43/2/1 40/2/1 39/2/1
f 43/2/1 41/2/1 40/2/1
f 43/2/1 42/2/1 41/2/1
f 44/2/1 42/2/1 43/2/1
f 45/5/2 46/5/2 47/5/2
f 47/5/2 46/5/2 48/5/2
f 48/5/2 46/5/2 49/5/2
f 49/5/2 46/5/2 51/5/2
f 50/5/2 51/5/2 52/5/2
f 51/5/2 46/5/2 53/5/2
f 52/5/2 51/5/2 53/5/2
f 52/2/2 53/2/2 54/2/2
f 54/2/2 53/2/2 55/2/2
f 56/5/2 57/5/2 58/5/2
f 56/5/2 58/5/2 60/5/2
f 58/5/2 59/5/2 60/5/2
f 60/5/2 59/5/2 61/5/2
f 61/5/2 59/5/2 62/5/2
f 62/5/2 59/5/2 63/5/2
f 62/2/2 63/2/2 64/2/2
f 64/2/2 63/2/2 65/2/2
f 68/5/3 67/5/3 66/5/3
f 69/5/3 67/5/3 68/5/3
f 73/5/3 71/5/3 70/5/3
f 73/2/3 72/2/3 71/2/3
f 74/2/3 72/2/3 73/2/3
f 77/5/3 73/5/3 70/5/3
f 77/5/3 74/5/3 73/5/3
f 77/5/3 75/5/3 74/5/3
f 78/5/3 75/5/3 77/5/3
f 79/2/3 76/2/3 75/2/3
f 79/5/3 75/5/3 78/5/3
f 80/2/3 76/2/3 79/2/3
f 81/2/3 78/2/3 77/2/3
f 81/5/3 77/5/3 70/5/3
f 82/2/3 78/2/3 81/2/3
f 85/5/3 81/5/3 70/5/3
f 85/5/3 82/5/3 81/5/3
f 85/5/3 83/5/3 82/5/3
f 86/2/3 84/2/3 83/2/3
f 86/5/3 83/5/3 85/5/3
f 87/2/3 84/2/3 86/2/3
f 88/5/4 89/5/4 90/5/4
f 90/5/4 89/5/4 91/5/4
f 88/5/4 90/5/4 92/5/4
f 88/5/4 92/5/4 94/5/4
f 92/5/4 93/5/4 94/5/4
f 94/5/4 93/5/4 95/5/4
f 88/5/4 94/5/4 96/5/4
f 96/5/4 94/5/4 97/5/4
f 98/5/4 99/5/4 101/5/4
f 99/2/4 100/2/4 102/2/4
f 101/5/4 99/5/4 102/5/4
f 102/2/4 100/2/4 103/2/4
f 104/5/4 105/5/4 107/5/4
f 105/2/4 106/2/4 108/2/4
f 107/5/4 105/5/4 108/5/4
f 108/2/4 106/2/4 109/2/4
f 110/5/4 111/5/4 113/5/4
f 111/2/4 112/2/4 114/2/4
f 113/5/4 111/5/4 114/5/4
f 114/2/4 112/2/4 115/2/4
f 116/5/4 117/5/4 119/5/4
f 117/2/4 118/2/4 120/2/4
f 119/5/4 117/5/4 120/5/4
f 120/2/4 118/2/4 121/2/4
f 124/5/5 123/5/5 122/5/5
f 125/5/5 123/5/5 124/5/5
f 130/5/5 127/5/5 126/5/5
f 131/5/5 127/5/5 130/5/5
f 132/5/5 129/5/5 128/5/5
f 133/5/5 129/5/5 132/5/5
f 138/5/5 135/5/5 134/5/5
f 139/5/5 135/5/5 138/5/5
f 140/5/5 137/5/5 136/5/5
f 141/5/5 137/5/5 140/5/5
f 142/5/6 143/5/6 144/5/6
f 144/5/6 143/5/6 145/5/6
f 146/2/6 147/2/6 150/2/6
f 148/2/6 149/2/6 151/2/6
f 146/2/6 150/2/6 152/2/6
f 148/2/6 151/2/6 153/2/6
f 146/2/6 152/2/6 154/2/6
f 154/2/6 152/2/6 155/2/6
f 148/2/6 153/2/6 156/2/6
f 156/2/6 153/2/6 157/2/6
f 158/2/6 159/2/6 162/2/6
f 162/2/6 159/2/6 163/2/6
f 160/2/6 161/2/6 164/2/6
f 164/2/6 161/2/6 165/2/6
