# MagicaVoxel @ Ephtracy

# group
o 

# material
mtllib scina drewiana.mtl
usemtl palette

# normals
vn -1 0 0
vn 1 0 0
vn 0 0 1
vn 0 0 -1
vn 0 -1 0
vn 0 1 0

# texcoords
vt 0.119141 0.5
vt 0.224609 0.5
vt 0.263672 0.5
vt 0.279297 0.5
vt 0.310547 0.5
vt 0.318359 0.5
vt 0.771484 0.5
vt 0.966797 0.5
vt 0.970703 0.5
vt 0.974609 0.5
vt 0.978516 0.5
vt 0.982422 0.5
vt 0.986328 0.5

# verts
v 0 2 0
v 0 2 -0.1
v 0 2 -0.2
v 0 2 -1.3
v 0 2.1 -0.1
v 0 2.1 -0.2
v 0 2.1 -1.1
v 0 2.1 -1.3
v 0 2.2 -1.1
v 0 2.2 -1.2
v 0 2.2 -1.3
v 0 2.3 -1
v 0 2.3 -1.2
v 0 2.4 -0.2
v 0 2.4 -1
v 0 2.4 -1.3
v 0 2.8 0
v 0 2.8 -0.1
v 0 2.9 0
v 0 2.9 -0.1
v 0 3.7 0
v 0 3.7 -0.1
v 0 3.8 0
v 0 3.8 -0.1
v 0 4.6 0
v 0 4.6 -0.1
v 0 4.7 0
v 0 4.7 -0.1
v 0 5.5 0
v 0 5.5 -0.1
v 0 5.6 0
v 0 5.6 -0.1
v 0 6.4 0
v 0 6.4 -0.1
v 0 6.5 0
v 0 6.5 -0.1
v 0 7.3 0
v 0 7.3 -0.1
v 0 7.4 0
v 0 7.4 -0.1
v 0 8.2 0
v 0 8.2 -0.1
v 0 8.3 0
v 0 8.3 -0.1
v 0 9.1 0
v 0 9.1 -0.1
v 0 9.2 0
v 0 9.2 -0.1
v 0 10 0
v 0 10 -0.1
v 0 10.1 0
v 0 10.1 -0.1
v 0 10.1 -0.2
v 0 10.1 -1.3
v 6.2 4.1 -0.2
v 6.2 4.1 -0.3
v 6.2 4.2 -0.2
v 6.2 4.2 -0.3
v 5.8 4.1 -0.2
v 5.8 4.1 -0.3
v 5.8 4.2 -0.2
v 5.8 4.2 -0.3
v 12.4 2 0
v 12.4 2 -0.1
v 12.4 2 -0.2
v 12.4 2 -1.3
v 12.4 2.1 -0.1
v 12.4 2.1 -0.2
v 12.4 2.1 -1.1
v 12.4 2.1 -1.3
v 12.4 2.8 0
v 12.4 2.8 -0.1
v 12.4 2.9 0
v 12.4 2.9 -0.1
v 12.4 3.7 0
v 12.4 3.7 -0.1
v 12.4 3.8 0
v 12.4 3.8 -0.1
v 12.4 4.6 0
v 12.4 4.6 -0.1
v 12.4 4.7 0
v 12.4 4.7 -0.1
v 12.4 5.5 0
v 12.4 5.5 -0.1
v 12.4 5.6 0
v 12.4 5.6 -0.1
v 12.4 6.3 -0.2
v 12.4 6.3 -0.3
v 12.4 6.4 0
v 12.4 6.4 -0.1
v 12.4 6.4 -0.2
v 12.4 6.4 -0.3
v 12.4 6.5 0
v 12.4 6.5 -0.1
v 12.4 7.3 0
v 12.4 7.3 -0.1
v 12.4 7.4 0
v 12.4 7.4 -0.1
v 12.4 8.2 0
v 12.4 8.2 -0.1
v 12.4 8.3 0
v 12.4 8.3 -0.1
v 12.4 8.6 -0.1
v 12.4 8.6 -0.2
v 12.4 9 -0.1
v 12.4 9 -0.2
v 12.4 9.1 0
v 12.4 9.1 -0.1
v 12.4 9.2 0
v 12.4 9.2 -0.1
v 12.4 9.9 -0.1
v 12.4 9.9 -0.2
v 12.4 9.9 -1.1
v 12.4 10 0
v 12.4 10 -0.1
v 12.4 10.1 0
v 12.4 10.1 -0.1
v 12.4 10.1 -1.3
v 0 2 0
v 0 2.8 0
v 0 2.9 0
v 0 3.7 0
v 0 3.8 0
v 0 4.6 0
v 0 4.7 0
v 0 5.5 0
v 0 5.6 0
v 0 6.4 0
v 0 6.5 0
v 0 7.3 0
v 0 7.4 0
v 0 8.2 0
v 0 8.3 0
v 0 9.1 0
v 0 9.2 0
v 0 10 0
v 0 10.1 0
v 0.2 10 0
v 0.2 10.1 0
v 0.9 2.9 0
v 0.9 3 0
v 1.4 3 0
v 1.4 3.1 0
v 1.5 10 0
v 1.5 10.1 0
v 2.4 3.1 0
v 2.4 3.3 0
v 2.5 6.5 0
v 2.5 6.6 0
v 2.6 9.8 0
v 2.6 10 0
v 2.7 2.8 0
v 2.7 2.9 0
v 2.7 7.2 0
v 2.7 7.3 0
v 2.9 2.9 0
v 2.9 3.3 0
v 2.9 3.7 0
v 3 2.9 0
v 3 3.3 0
v 3 3.7 0
v 3.1 6.4 0
v 3.1 6.5 0
v 3.1 6.6 0
v 3.1 6.7 0
v 3.2 9.7 0
v 3.2 9.8 0
v 3.4 7 0
v 3.4 7.2 0
v 3.5 3.1 0
v 3.5 3.3 0
v 3.5 6.7 0
v 3.5 7 0
v 3.7 6.5 0
v 3.7 6.6 0
v 3.7 7.3 0
v 3.8 6.5 0
v 3.8 6.6 0
v 3.8 7.3 0
v 4 9.1 0
v 4 9.2 0
v 4 9.7 0
v 4.1 6.8 0
v 4.1 7.3 0
v 4.2 9.2 0
v 4.2 9.5 0
v 4.2 10 0
v 4.2 10.1 0
v 4.3 2.8 0
v 4.3 2.9 0
v 4.3 9.2 0
v 4.3 9.5 0
v 4.3 10 0
v 4.4 4.7 0
v 4.4 4.8 0
v 4.5 2.9 0
v 4.5 3.1 0
v 4.5 9.8 0
v 4.5 10 0
v 4.6 5.2 0
v 4.6 5.5 0
v 4.6 6.6 0
v 4.6 6.8 0
v 4.7 4.8 0
v 4.7 5.2 0
v 4.7 6.4 0
v 4.7 6.5 0
v 4.7 9.1 0
v 4.7 9.2 0
v 4.9 4.7 0
v 4.9 5.5 0
v 4.9 6.5 0
v 4.9 6.6 0
v 4.9 9.4 0
v 4.9 9.8 0
v 5 4.7 0
v 5 5.5 0
v 5.3 9.2 0
v 5.3 9.4 0
v 5.4 4.9 0
v 5.4 5.5 0
v 5.5 2.6 0
v 5.5 2.8 0
v 5.7 4.7 0
v 5.7 4.9 0
v 5.7 5.6 0
v 5.7 5.8 0
v 5.9 9.1 0
v 5.9 9.2 0
v 5.9 10 0
v 5.9 10.1 0
v 6.1 2.5 0
v 6.1 2.6 0
v 6.1 5.8 0
v 6.1 6.4 0
v 6.1 8.9 0
v 6.1 9.1 0
v 6.2 3.7 0
v 6.2 3.8 0
v 6.2 6.4 0
v 6.2 6.5 0
v 6.3 5.6 0
v 6.3 6.3 0
v 6.3 6.4 0
v 6.4 5.6 0
v 6.4 6.3 0
v 6.4 6.4 0
v 6.5 6.4 0
v 6.5 6.5 0
v 6.5 8.8 0
v 6.5 8.9 0
v 6.8 5.8 0
v 6.8 5.9 0
v 6.9 2 0
v 6.9 2.5 0
v 6.9 5.9 0
v 6.9 6.1 0
v 7 3.7 0
v 7 3.8 0
v 7.1 2 0
v 7.1 2.4 0
v 7.1 2.8 0
v 7.1 2.9 0
v 7.2 2 0
v 7.2 2.4 0
v 7.2 2.8 0
v 7.2 6.1 0
v 7.2 6.4 0
v 7.3 2.4 0
v 7.3 2.8 0
v 7.3 8.3 0
v 7.3 8.8 0
v 7.5 8.3 0
v 7.5 9.1 0
v 7.6 2.8 0
v 7.6 2.9 0
v 7.6 8.3 0
v 7.6 8.7 0
v 7.6 9.1 0
v 7.7 9.1 0
v 7.7 9.2 0
v 7.9 8.7 0
v 7.9 8.9 0
v 8 8.9 0
v 8 9 0
v 8.1 8.1 0
v 8.1 8.2 0
v 8.2 7.9 0
v 8.2 8.1 0
v 8.3 2.8 0
v 8.3 2.9 0
v 8.6 5.6 0
v 8.6 5.8 0
v 8.6 9 0
v 8.6 9.1 0
v 9 7.4 0
v 9 7.9 0
v 9 8.2 0
v 9 8.3 0
v 9.1 7.3 0
v 9.1 7.4 0
v 9.2 7.4 0
v 9.2 7.5 0
v 9.2 8.2 0
v 9.3 7.4 0
v 9.3 7.5 0
v 9.3 8.2 0
v 9.4 4.3 0
v 9.4 4.6 0
v 9.4 7.3 0
v 9.4 7.4 0
v 9.4 7.8 0
v 9.4 8.2 0
v 9.5 9.1 0
v 9.5 9.2 0
v 9.6 7.3 0
v 9.6 7.4 0
v 9.8 4 0
v 9.8 4.3 0
v 9.8 7.5 0
v 9.8 7.8 0
v 9.8 8.2 0
v 9.8 8.3 0
v 10.2 2.8 0
v 10.2 2.9 0
v 10.2 3.8 0
v 10.2 4 0
v 10.4 3.8 0
v 10.4 4.6 0
v 10.5 3.8 0
v 10.5 4 0
v 10.5 4.6 0
v 10.7 2 0
v 10.7 2.4 0
v 10.7 4 0
v 10.7 4.2 0
v 11 7.3 0
v 11 7.4 0
v 11.1 4.2 0
v 11.1 4.6 0
v 11.1 7.4 0
v 11.1 7.5 0
v 12.4 2 0
v 12.4 2.8 0
v 12.4 2.9 0
v 12.4 3.7 0
v 12.4 3.8 0
v 12.4 4.6 0
v 12.4 4.7 0
v 12.4 5.5 0
v 12.4 5.6 0
v 12.4 6.4 0
v 12.4 6.5 0
v 12.4 7.3 0
v 12.4 7.4 0
v 12.4 8.2 0
v 12.4 8.3 0
v 12.4 9.1 0
v 12.4 9.2 0
v 12.4 10 0
v 12.4 10.1 0
v 0 2 -0.2
v 0 2.1 -0.2
v 12.4 2 -0.2
v 12.4 2.1 -0.2
v 5.8 4.1 -0.3
v 5.8 4.2 -0.3
v 5.9 4.2 -0.3
v 6.2 4.1 -0.3
v 6.2 4.2 -0.3
v 0 2 -0.1
v 0 2.1 -0.1
v 6.9 2 -0.1
v 6.9 2.1 -0.1
v 7.1 2 -0.1
v 7.1 2.1 -0.1
v 7.2 2 -0.1
v 7.2 2.1 -0.1
v 10.7 2 -0.1
v 10.7 2.1 -0.1
v 12.4 2 -0.1
v 12.4 2.1 -0.1
v 5.8 4.1 -0.2
v 5.8 4.2 -0.2
v 5.9 4.2 -0.2
v 6.2 4.1 -0.2
v 6.2 4.2 -0.2
v 0 2 -1.3
v 0 2.1 -1.3
v 0 2.2 -1.3
v 0 2.4 -1.3
v 0 10.1 -1.3
v 0.2 2.2 -1.3
v 0.2 2.3 -1.3
v 0.4 2.3 -1.3
v 0.4 2.4 -1.3
v 12.4 2 -1.3
v 12.4 2.1 -1.3
v 12.4 10.1 -1.3
v 0 2 0
v 6.9 2 0
v 7.1 2 0
v 7.2 2 0
v 10.7 2 0
v 12.4 2 0
v 0 2 -0.1
v 6.9 2 -0.1
v 7.1 2 -0.1
v 7.2 2 -0.1
v 10.7 2 -0.1
v 12.4 2 -0.1
v 0 2 -0.2
v 12.4 2 -0.2
v 0 2 -1.3
v 12.4 2 -1.3
v 0 2.1 -0.1
v 6.9 2.1 -0.1
v 7.1 2.1 -0.1
v 7.2 2.1 -0.1
v 10.7 2.1 -0.1
v 12.4 2.1 -0.1
v 0 2.1 -0.2
v 12.4 2.1 -0.2
v 5.8 4.2 -0.2
v 5.9 4.2 -0.2
v 6.2 4.2 -0.2
v 5.8 4.2 -0.3
v 5.9 4.2 -0.3
v 6.2 4.2 -0.3
v 5.8 4.1 -0.2
v 6.2 4.1 -0.2
v 5.8 4.1 -0.3
v 6.2 4.1 -0.3
v 0 10.1 0
v 0.2 10.1 0
v 1.5 10.1 0
v 4.2 10.1 0
v 5.9 10.1 0
v 12.4 10.1 0
v 0 10.1 -0.1
v 0.2 10.1 -0.1
v 1.5 10.1 -0.1
v 4.2 10.1 -0.1
v 5.9 10.1 -0.1
v 6.7 10.1 -0.1
v 12.4 10.1 -0.1
v 0 10.1 -0.2
v 6.7 10.1 -0.2
v 0 10.1 -1.3
v 12.4 10.1 -1.3

# faces
f 5/4/1 2/4/1 1/4/1
f 6/10/1 4/10/1 3/10/1
f 7/10/1 4/10/1 6/10/1
f 8/10/1 4/10/1 7/10/1
f 9/8/1 7/8/1 6/8/1
f 9/6/1 8/6/1 7/6/1
f 10/6/1 8/6/1 9/6/1
f 11/6/1 8/6/1 10/6/1
f 12/8/1 9/8/1 6/8/1
f 12/8/1 10/8/1 9/8/1
f 13/10/1 11/10/1 10/10/1
f 13/8/1 10/8/1 12/8/1
f 14/4/1 6/4/1 5/4/1
f 14/8/1 12/8/1 6/8/1
f 15/10/1 13/10/1 12/10/1
f 15/8/1 12/8/1 14/8/1
f 16/10/1 11/10/1 13/10/1
f 16/10/1 13/10/1 15/10/1
f 17/4/1 5/4/1 1/4/1
f 17/4/1 14/4/1 5/4/1
f 18/4/1 14/4/1 17/4/1
f 19/5/1 18/5/1 17/5/1
f 20/4/1 14/4/1 18/4/1
f 20/5/1 18/5/1 19/5/1
f 21/4/1 20/4/1 19/4/1
f 22/4/1 14/4/1 20/4/1
f 22/4/1 20/4/1 21/4/1
f 23/5/1 22/5/1 21/5/1
f 24/4/1 14/4/1 22/4/1
f 24/5/1 22/5/1 23/5/1
f 25/4/1 24/4/1 23/4/1
f 26/4/1 14/4/1 24/4/1
f 26/4/1 24/4/1 25/4/1
f 27/5/1 26/5/1 25/5/1
f 28/4/1 14/4/1 26/4/1
f 28/5/1 26/5/1 27/5/1
f 29/4/1 28/4/1 27/4/1
f 30/4/1 14/4/1 28/4/1
f 30/4/1 28/4/1 29/4/1
f 31/5/1 30/5/1 29/5/1
f 32/4/1 14/4/1 30/4/1
f 32/5/1 30/5/1 31/5/1
f 33/4/1 32/4/1 31/4/1
f 34/4/1 14/4/1 32/4/1
f 34/4/1 32/4/1 33/4/1
f 35/5/1 34/5/1 33/5/1
f 36/4/1 14/4/1 34/4/1
f 36/5/1 34/5/1 35/5/1
f 37/4/1 36/4/1 35/4/1
f 38/4/1 14/4/1 36/4/1
f 38/4/1 36/4/1 37/4/1
f 39/5/1 38/5/1 37/5/1
f 40/4/1 14/4/1 38/4/1
f 40/5/1 38/5/1 39/5/1
f 41/4/1 40/4/1 39/4/1
f 42/4/1 14/4/1 40/4/1
f 42/4/1 40/4/1 41/4/1
f 43/5/1 42/5/1 41/5/1
f 44/4/1 14/4/1 42/4/1
f 44/5/1 42/5/1 43/5/1
f 45/4/1 44/4/1 43/4/1
f 46/4/1 14/4/1 44/4/1
f 46/4/1 44/4/1 45/4/1
f 47/5/1 46/5/1 45/5/1
f 48/4/1 14/4/1 46/4/1
f 48/5/1 46/5/1 47/5/1
f 49/4/1 48/4/1 47/4/1
f 50/4/1 14/4/1 48/4/1
f 50/4/1 48/4/1 49/4/1
f 51/5/1 50/5/1 49/5/1
f 52/4/1 14/4/1 50/4/1
f 52/5/1 50/5/1 51/5/1
f 53/6/1 15/6/1 14/6/1
f 53/4/1 14/4/1 52/4/1
f 53/6/1 16/6/1 15/6/1
f 54/6/1 16/6/1 53/6/1
f 57/12/1 56/12/1 55/12/1
f 58/12/1 56/12/1 57/12/1
f 59/8/2 60/8/2 61/8/2
f 61/8/2 60/8/2 62/8/2
f 63/4/2 64/4/2 67/4/2
f 65/10/2 66/10/2 68/10/2
f 68/10/2 66/10/2 69/10/2
f 69/10/2 66/10/2 70/10/2
f 63/4/2 67/4/2 71/4/2
f 67/4/2 68/4/2 71/4/2
f 71/4/2 68/4/2 72/4/2
f 71/5/2 72/5/2 73/5/2
f 72/4/2 68/4/2 74/4/2
f 73/5/2 72/5/2 74/5/2
f 73/4/2 74/4/2 75/4/2
f 74/4/2 68/4/2 76/4/2
f 75/4/2 74/4/2 76/4/2
f 75/5/2 76/5/2 77/5/2
f 76/4/2 68/4/2 78/4/2
f 77/5/2 76/5/2 78/5/2
f 77/4/2 78/4/2 79/4/2
f 78/4/2 68/4/2 80/4/2
f 79/4/2 78/4/2 80/4/2
f 79/5/2 80/5/2 81/5/2
f 80/4/2 68/4/2 82/4/2
f 81/5/2 80/5/2 82/5/2
f 81/4/2 82/4/2 83/4/2
f 82/4/2 68/4/2 84/4/2
f 83/4/2 82/4/2 84/4/2
f 83/5/2 84/5/2 85/5/2
f 84/4/2 68/4/2 86/4/2
f 85/5/2 84/5/2 86/5/2
f 68/8/2 69/8/2 87/8/2
f 86/4/2 68/4/2 87/4/2
f 85/4/2 86/4/2 87/4/2
f 87/8/2 69/8/2 88/8/2
f 85/4/2 87/4/2 89/4/2
f 89/4/2 87/4/2 90/4/2
f 87/12/2 88/12/2 91/12/2
f 90/4/2 87/4/2 91/4/2
f 88/8/2 69/8/2 92/8/2
f 91/12/2 88/12/2 92/12/2
f 89/5/2 90/5/2 93/5/2
f 90/4/2 91/4/2 94/4/2
f 93/5/2 90/5/2 94/5/2
f 93/4/2 94/4/2 95/4/2
f 94/4/2 91/4/2 96/4/2
f 95/4/2 94/4/2 96/4/2
f 95/5/2 96/5/2 97/5/2
f 96/4/2 91/4/2 98/4/2
f 97/5/2 96/5/2 98/5/2
f 97/4/2 98/4/2 99/4/2
f 98/4/2 91/4/2 100/4/2
f 99/4/2 98/4/2 100/4/2
f 99/5/2 100/5/2 101/5/2
f 100/4/2 91/4/2 102/4/2
f 101/5/2 100/5/2 102/5/2
f 101/4/2 102/4/2 103/4/2
f 102/4/2 91/4/2 103/4/2
f 91/8/2 92/8/2 104/8/2
f 103/4/2 91/4/2 104/4/2
f 101/4/2 103/4/2 105/4/2
f 103/13/2 104/13/2 105/13/2
f 104/8/2 92/8/2 106/8/2
f 105/13/2 104/13/2 106/13/2
f 101/4/2 105/4/2 107/4/2
f 105/4/2 106/4/2 107/4/2
f 107/4/2 106/4/2 108/4/2
f 107/5/2 108/5/2 109/5/2
f 108/4/2 106/4/2 110/4/2
f 109/5/2 108/5/2 110/5/2
f 109/4/2 110/4/2 111/4/2
f 110/4/2 106/4/2 111/4/2
f 106/8/2 92/8/2 112/8/2
f 111/4/2 106/4/2 112/4/2
f 69/6/2 70/6/2 113/6/2
f 112/8/2 92/8/2 113/8/2
f 92/8/2 69/8/2 113/8/2
f 109/4/2 111/4/2 114/4/2
f 111/6/2 112/6/2 115/6/2
f 114/4/2 111/4/2 115/4/2
f 112/6/2 113/6/2 115/6/2
f 114/5/2 115/5/2 116/5/2
f 115/6/2 113/6/2 117/6/2
f 116/5/2 115/5/2 117/5/2
f 113/6/2 70/6/2 118/6/2
f 117/6/2 113/6/2 118/6/2
f 138/4/3 136/4/3 135/4/3
f 138/5/3 137/5/3 136/5/3
f 139/5/3 137/5/3 138/5/3
f 140/5/3 121/5/3 120/5/3
f 140/4/3 122/4/3 121/4/3
f 141/4/3 122/4/3 140/4/3
f 142/3/3 141/3/3 140/3/3
f 142/4/3 122/4/3 141/4/3
f 143/4/3 122/4/3 142/4/3
f 144/1/3 139/1/3 138/1/3
f 144/4/3 138/4/3 135/4/3
f 145/1/3 139/1/3 144/1/3
f 146/4/3 122/4/3 143/4/3
f 146/3/3 143/3/3 142/3/3
f 147/4/3 122/4/3 146/4/3
f 148/5/3 129/5/3 128/5/3
f 148/4/3 130/4/3 129/4/3
f 149/4/3 130/4/3 148/4/3
f 150/4/3 144/4/3 135/4/3
f 151/5/3 145/5/3 144/5/3
f 151/4/3 144/4/3 150/4/3
f 152/4/3 120/4/3 119/4/3
f 152/5/3 140/5/3 120/5/3
f 153/3/3 147/3/3 146/3/3
f 153/5/3 140/5/3 152/5/3
f 153/3/3 142/3/3 140/3/3
f 153/3/3 146/3/3 142/3/3
f 154/4/3 130/4/3 149/4/3
f 155/5/3 131/5/3 130/5/3
f 155/4/3 130/4/3 154/4/3
f 156/3/3 147/3/3 153/3/3
f 156/2/3 153/2/3 152/2/3
f 157/4/3 122/4/3 147/4/3
f 157/3/3 147/3/3 156/3/3
f 158/5/3 123/5/3 122/5/3
f 158/4/3 122/4/3 157/4/3
f 159/5/3 157/5/3 156/5/3
f 159/2/3 156/2/3 152/2/3
f 159/5/3 158/5/3 157/5/3
f 160/5/3 158/5/3 159/5/3
f 161/5/3 123/5/3 158/5/3
f 161/5/3 158/5/3 160/5/3
f 162/4/3 128/4/3 127/4/3
f 162/5/3 148/5/3 128/5/3
f 163/3/3 149/3/3 148/3/3
f 163/5/3 148/5/3 162/5/3
f 164/4/3 154/4/3 149/4/3
f 164/3/3 149/3/3 163/3/3
f 165/4/3 154/4/3 164/4/3
f 166/4/3 150/4/3 135/4/3
f 167/3/3 151/3/3 150/3/3
f 167/4/3 150/4/3 166/4/3
f 168/4/3 154/4/3 165/4/3
f 169/3/3 155/3/3 154/3/3
f 169/4/3 154/4/3 168/4/3
f 170/3/3 160/3/3 159/3/3
f 171/4/3 161/4/3 160/4/3
f 171/3/3 160/3/3 170/3/3
f 172/4/3 168/4/3 165/4/3
f 172/3/3 164/3/3 163/3/3
f 172/3/3 165/3/3 164/3/3
f 173/3/3 169/3/3 168/3/3
f 173/4/3 168/4/3 172/4/3
f 174/1/3 163/1/3 162/1/3
f 174/3/3 172/3/3 163/3/3
f 174/3/3 173/3/3 172/3/3
f 175/3/3 173/3/3 174/3/3
f 176/3/3 155/3/3 169/3/3
f 176/3/3 173/3/3 175/3/3
f 176/3/3 169/3/3 173/3/3
f 176/5/3 131/5/3 155/5/3
f 177/1/3 175/1/3 174/1/3
f 177/1/3 174/1/3 162/1/3
f 178/5/3 176/5/3 175/5/3
f 178/1/3 175/1/3 177/1/3
f 179/5/3 131/5/3 176/5/3
f 179/5/3 176/5/3 178/5/3
f 180/4/3 134/4/3 133/4/3
f 180/5/3 135/5/3 134/5/3
f 181/4/3 166/4/3 135/4/3
f 181/5/3 135/5/3 180/5/3
f 182/3/3 167/3/3 166/3/3
f 182/4/3 166/4/3 181/4/3
f 183/3/3 178/3/3 177/3/3
f 183/3/3 179/3/3 178/3/3
f 184/5/3 131/5/3 179/5/3
f 184/3/3 179/3/3 183/3/3
f 185/3/3 182/3/3 181/3/3
f 185/1/3 181/1/3 180/1/3
f 186/3/3 182/3/3 185/3/3
f 187/5/3 145/5/3 151/5/3
f 187/3/3 182/3/3 186/3/3
f 187/3/3 167/3/3 182/3/3
f 187/3/3 151/3/3 167/3/3
f 188/5/3 145/5/3 187/5/3
f 189/4/3 152/4/3 119/4/3
f 189/2/3 159/2/3 152/2/3
f 190/3/3 170/3/3 159/3/3
f 190/2/3 159/2/3 189/2/3
f 191/5/3 186/5/3 185/5/3
f 191/1/3 185/1/3 180/1/3
f 192/2/3 188/2/3 187/2/3
f 192/5/3 186/5/3 191/5/3
f 192/2/3 187/2/3 186/2/3
f 193/2/3 188/2/3 192/2/3
f 194/5/3 125/5/3 124/5/3
f 194/4/3 126/4/3 125/4/3
f 195/4/3 126/4/3 194/4/3
f 196/3/3 170/3/3 190/3/3
f 196/5/3 190/5/3 189/5/3
f 197/4/3 171/4/3 170/4/3
f 197/3/3 170/3/3 196/3/3
f 198/3/3 193/3/3 192/3/3
f 198/3/3 192/3/3 191/3/3
f 199/2/3 188/2/3 193/2/3
f 199/3/3 193/3/3 198/3/3
f 200/4/3 126/4/3 195/4/3
f 201/5/3 127/5/3 126/5/3
f 201/4/3 126/4/3 200/4/3
f 202/3/3 183/3/3 177/3/3
f 203/4/3 184/4/3 183/4/3
f 203/3/3 183/3/3 202/3/3
f 204/3/3 195/3/3 194/3/3
f 204/4/3 200/4/3 195/4/3
f 205/3/3 201/3/3 200/3/3
f 205/4/3 200/4/3 204/4/3
f 206/1/3 177/1/3 162/1/3
f 206/4/3 162/4/3 127/4/3
f 207/3/3 202/3/3 177/3/3
f 207/1/3 177/1/3 206/1/3
f 208/4/3 180/4/3 133/4/3
f 208/1/3 191/1/3 180/1/3
f 209/3/3 198/3/3 191/3/3
f 209/1/3 191/1/3 208/1/3
f 210/3/3 205/3/3 204/3/3
f 210/5/3 194/5/3 124/5/3
f 210/3/3 204/3/3 194/3/3
f 211/3/3 201/3/3 205/3/3
f 211/3/3 205/3/3 210/3/3
f 211/5/3 127/5/3 201/5/3
f 212/3/3 202/3/3 207/3/3
f 212/5/3 207/5/3 206/5/3
f 213/4/3 203/4/3 202/4/3
f 213/3/3 202/3/3 212/3/3
f 214/3/3 198/3/3 209/3/3
f 215/4/3 199/4/3 198/4/3
f 215/3/3 198/3/3 214/3/3
f 216/5/3 210/5/3 124/5/3
f 216/5/3 211/5/3 210/5/3
f 217/5/3 127/5/3 211/5/3
f 217/5/3 211/5/3 216/5/3
f 218/3/3 214/3/3 209/3/3
f 218/5/3 209/5/3 208/5/3
f 219/4/3 215/4/3 214/4/3
f 219/3/3 214/3/3 218/3/3
f 220/3/3 217/3/3 216/3/3
f 221/5/3 127/5/3 217/5/3
f 221/3/3 217/3/3 220/3/3
f 222/4/3 189/4/3 119/4/3
f 223/5/3 196/5/3 189/5/3
f 223/4/3 189/4/3 222/4/3
f 224/3/3 220/3/3 216/3/3
f 224/5/3 216/5/3 124/5/3
f 225/4/3 221/4/3 220/4/3
f 225/3/3 220/3/3 224/3/3
f 226/4/3 206/4/3 127/4/3
f 226/5/3 127/5/3 221/5/3
f 227/4/3 206/4/3 226/4/3
f 228/4/3 208/4/3 133/4/3
f 228/5/3 218/5/3 208/5/3
f 229/4/3 219/4/3 218/4/3
f 229/5/3 218/5/3 228/5/3
f 230/2/3 188/2/3 199/2/3
f 230/4/3 219/4/3 229/4/3
f 230/4/3 199/4/3 215/4/3
f 230/4/3 215/4/3 219/4/3
f 231/2/3 188/2/3 230/2/3
f 232/4/3 222/4/3 119/4/3
f 233/3/3 223/3/3 222/3/3
f 233/4/3 222/4/3 232/4/3
f 234/4/3 206/4/3 227/4/3
f 234/3/3 227/3/3 226/3/3
f 235/5/3 212/5/3 206/5/3
f 235/4/3 206/4/3 234/4/3
f 236/4/3 228/4/3 133/4/3
f 237/2/3 229/2/3 228/2/3
f 237/4/3 228/4/3 236/4/3
f 238/4/3 171/4/3 197/4/3
f 238/5/3 123/5/3 161/5/3
f 238/4/3 161/4/3 171/4/3
f 238/4/3 197/4/3 196/4/3
f 239/4/3 124/4/3 123/4/3
f 239/5/3 123/5/3 238/5/3
f 240/3/3 235/3/3 234/3/3
f 240/5/3 212/5/3 235/5/3
f 241/4/3 213/4/3 212/4/3
f 241/5/3 212/5/3 240/5/3
f 242/3/3 234/3/3 226/3/3
f 242/5/3 226/5/3 221/5/3
f 242/3/3 240/3/3 234/3/3
f 243/3/3 240/3/3 242/3/3
f 244/2/3 241/2/3 240/2/3
f 244/3/3 240/3/3 243/3/3
f 245/5/3 243/5/3 242/5/3
f 245/5/3 242/5/3 221/5/3
f 246/2/3 244/2/3 243/2/3
f 246/5/3 243/5/3 245/5/3
f 247/2/3 241/2/3 244/2/3
f 247/2/3 244/2/3 246/2/3
f 248/3/3 246/3/3 245/3/3
f 248/2/3 241/2/3 247/2/3
f 248/3/3 247/3/3 246/3/3
f 249/4/3 213/4/3 241/4/3
f 249/2/3 241/2/3 248/2/3
f 250/4/3 236/4/3 133/4/3
f 251/3/3 237/3/3 236/3/3
f 251/4/3 236/4/3 250/4/3
f 252/3/3 248/3/3 245/3/3
f 253/3/3 248/3/3 252/3/3
f 254/4/3 232/4/3 119/4/3
f 255/3/3 233/3/3 232/3/3
f 255/4/3 232/4/3 254/4/3
f 256/3/3 248/3/3 253/3/3
f 256/4/3 253/4/3 252/4/3
f 257/3/3 248/3/3 256/3/3
f 258/4/3 238/4/3 196/4/3
f 258/2/3 239/2/3 238/2/3
f 259/4/3 124/4/3 239/4/3
f 259/2/3 239/2/3 258/2/3
f 260/3/3 255/3/3 254/3/3
f 261/3/3 255/3/3 260/3/3
f 262/3/3 223/3/3 233/3/3
f 262/3/3 255/3/3 261/3/3
f 262/5/3 196/5/3 223/5/3
f 262/3/3 233/3/3 255/3/3
f 263/4/3 258/4/3 196/4/3
f 263/5/3 196/5/3 262/5/3
f 264/5/3 261/5/3 260/5/3
f 265/2/3 262/2/3 261/2/3
f 265/5/3 261/5/3 264/5/3
f 265/2/3 263/2/3 262/2/3
f 266/2/3 263/2/3 265/2/3
f 267/3/3 248/3/3 257/3/3
f 267/4/3 257/4/3 256/4/3
f 268/5/3 249/5/3 248/5/3
f 268/3/3 248/3/3 267/3/3
f 269/3/3 266/3/3 265/3/3
f 269/3/3 265/3/3 264/3/3
f 270/2/3 263/2/3 266/2/3
f 270/3/3 266/3/3 269/3/3
f 271/4/3 250/4/3 133/4/3
f 271/5/3 133/5/3 132/5/3
f 272/3/3 251/3/3 250/3/3
f 272/4/3 250/4/3 271/4/3
f 273/5/3 271/5/3 132/5/3
f 273/3/3 272/3/3 271/3/3
f 274/2/3 229/2/3 237/2/3
f 274/3/3 272/3/3 273/3/3
f 274/3/3 237/3/3 251/3/3
f 274/3/3 251/3/3 272/3/3
f 275/2/3 263/2/3 270/2/3
f 275/4/3 270/4/3 269/4/3
f 276/4/3 258/4/3 263/4/3
f 276/2/3 263/2/3 275/2/3
f 277/5/3 273/5/3 132/5/3
f 277/5/3 274/5/3 273/5/3
f 278/5/3 274/5/3 277/5/3
f 279/2/3 229/2/3 274/2/3
f 279/5/3 274/5/3 278/5/3
f 280/3/3 279/3/3 278/3/3
f 280/2/3 229/2/3 279/2/3
f 281/4/3 230/4/3 229/4/3
f 281/2/3 229/2/3 280/2/3
f 282/4/3 278/4/3 277/4/3
f 282/3/3 280/3/3 278/3/3
f 283/3/3 280/3/3 282/3/3
f 284/4/3 283/4/3 282/4/3
f 284/3/3 280/3/3 283/3/3
f 285/3/3 280/3/3 284/3/3
f 286/4/3 132/4/3 131/4/3
f 287/5/3 277/5/3 132/5/3
f 287/4/3 132/4/3 286/4/3
f 288/4/3 286/4/3 131/4/3
f 289/3/3 287/3/3 286/3/3
f 289/4/3 286/4/3 288/4/3
f 290/4/3 275/4/3 269/4/3
f 290/5/3 276/5/3 275/5/3
f 291/4/3 258/4/3 276/4/3
f 291/5/3 276/5/3 290/5/3
f 292/5/3 245/5/3 221/5/3
f 292/3/3 252/3/3 245/3/3
f 293/4/3 268/4/3 267/4/3
f 293/3/3 252/3/3 292/3/3
f 293/4/3 267/4/3 256/4/3
f 293/4/3 256/4/3 252/4/3
f 294/3/3 280/3/3 285/3/3
f 294/4/3 285/4/3 284/4/3
f 295/1/3 281/1/3 280/1/3
f 295/3/3 280/3/3 294/3/3
f 296/5/3 131/5/3 184/5/3
f 296/4/3 288/4/3 131/4/3
f 297/3/3 289/3/3 288/3/3
f 297/4/3 288/4/3 296/4/3
f 298/3/3 287/3/3 289/3/3
f 298/3/3 289/3/3 297/3/3
f 298/5/3 277/5/3 287/5/3
f 299/4/3 294/4/3 284/4/3
f 299/5/3 277/5/3 298/5/3
f 299/4/3 295/4/3 294/4/3
f 299/4/3 282/4/3 277/4/3
f 299/4/3 284/4/3 282/4/3
f 300/4/3 213/4/3 249/4/3
f 300/4/3 184/4/3 203/4/3
f 300/5/3 296/5/3 184/5/3
f 300/4/3 203/4/3 213/4/3
f 301/3/3 297/3/3 296/3/3
f 301/5/3 296/5/3 300/5/3
f 301/3/3 298/3/3 297/3/3
f 302/2/3 301/2/3 300/2/3
f 302/3/3 298/3/3 301/3/3
f 303/3/3 298/3/3 302/3/3
f 304/1/3 299/1/3 298/1/3
f 304/3/3 298/3/3 303/3/3
f 305/2/3 303/2/3 302/2/3
f 305/2/3 302/2/3 300/2/3
f 306/5/3 304/5/3 303/5/3
f 306/2/3 303/2/3 305/2/3
f 307/1/3 299/1/3 304/1/3
f 307/5/3 304/5/3 306/5/3
f 308/4/3 124/4/3 259/4/3
f 309/5/3 224/5/3 124/5/3
f 309/4/3 124/4/3 308/4/3
f 310/4/3 300/4/3 249/4/3
f 310/2/3 305/2/3 300/2/3
f 311/3/3 306/3/3 305/3/3
f 311/2/3 305/2/3 310/2/3
f 311/3/3 307/3/3 306/3/3
f 312/3/3 307/3/3 311/3/3
f 313/1/3 299/1/3 307/1/3
f 313/3/3 307/3/3 312/3/3
f 314/4/3 295/4/3 299/4/3
f 314/1/3 281/1/3 295/1/3
f 315/4/3 230/4/3 281/4/3
f 315/1/3 281/1/3 314/1/3
f 316/4/3 310/4/3 249/4/3
f 316/5/3 311/5/3 310/5/3
f 317/3/3 312/3/3 311/3/3
f 317/5/3 311/5/3 316/5/3
f 318/4/3 308/4/3 259/4/3
f 319/3/3 309/3/3 308/3/3
f 319/4/3 308/4/3 318/4/3
f 320/3/3 312/3/3 317/3/3
f 321/4/3 313/4/3 312/4/3
f 321/3/3 312/3/3 320/3/3
f 322/1/3 299/1/3 313/1/3
f 322/4/3 313/4/3 321/4/3
f 323/4/3 314/4/3 299/4/3
f 323/1/3 299/1/3 322/1/3
f 324/4/3 290/4/3 269/4/3
f 324/1/3 291/1/3 290/1/3
f 325/4/3 258/4/3 291/4/3
f 325/1/3 291/1/3 324/1/3
f 326/5/3 259/5/3 258/5/3
f 326/4/3 318/4/3 259/4/3
f 327/3/3 319/3/3 318/3/3
f 327/4/3 318/4/3 326/4/3
f 328/5/3 326/5/3 258/5/3
f 328/3/3 327/3/3 326/3/3
f 329/5/3 224/5/3 309/5/3
f 329/3/3 327/3/3 328/3/3
f 329/3/3 309/3/3 319/3/3
f 329/3/3 319/3/3 327/3/3
f 330/5/3 328/5/3 258/5/3
f 330/5/3 329/5/3 328/5/3
f 331/5/3 329/5/3 330/5/3
f 332/5/3 224/5/3 329/5/3
f 332/5/3 329/5/3 331/5/3
f 333/3/3 269/3/3 264/3/3
f 334/4/3 324/4/3 269/4/3
f 334/3/3 269/3/3 333/3/3
f 335/4/3 331/4/3 330/4/3
f 335/3/3 332/3/3 331/3/3
f 336/3/3 332/3/3 335/3/3
f 337/1/3 317/1/3 316/1/3
f 337/4/3 316/4/3 249/4/3
f 338/3/3 320/3/3 317/3/3
f 338/1/3 317/1/3 337/1/3
f 339/3/3 332/3/3 336/3/3
f 339/4/3 336/4/3 335/4/3
f 340/5/3 224/5/3 332/5/3
f 340/3/3 332/3/3 339/3/3
f 341/3/3 320/3/3 338/3/3
f 341/5/3 338/5/3 337/5/3
f 342/4/3 321/4/3 320/4/3
f 342/3/3 320/3/3 341/3/3
f 342/4/3 322/4/3 321/4/3
f 343/4/3 334/4/3 333/4/3
f 344/4/3 324/4/3 334/4/3
f 344/4/3 334/4/3 343/4/3
f 344/5/3 325/5/3 324/5/3
f 345/4/3 258/4/3 325/4/3
f 345/5/3 325/5/3 344/5/3
f 346/5/3 330/5/3 258/5/3
f 346/4/3 258/4/3 345/4/3
f 347/4/3 339/4/3 335/4/3
f 347/5/3 330/5/3 346/5/3
f 347/4/3 335/4/3 330/4/3
f 347/4/3 340/4/3 339/4/3
f 348/5/3 224/5/3 340/5/3
f 348/4/3 340/4/3 347/4/3
f 349/4/3 225/4/3 224/4/3
f 349/5/3 224/5/3 348/5/3
f 350/5/3 292/5/3 221/5/3
f 350/4/3 225/4/3 349/4/3
f 350/4/3 221/4/3 225/4/3
f 351/4/3 293/4/3 292/4/3
f 351/5/3 292/5/3 350/5/3
f 352/4/3 268/4/3 293/4/3
f 352/4/3 293/4/3 351/4/3
f 352/5/3 249/5/3 268/5/3
f 353/4/3 337/4/3 249/4/3
f 353/5/3 249/5/3 352/5/3
f 354/5/3 341/5/3 337/5/3
f 354/4/3 337/4/3 353/4/3
f 355/4/3 342/4/3 341/4/3
f 355/5/3 341/5/3 354/5/3
f 356/4/3 322/4/3 342/4/3
f 356/4/3 342/4/3 355/4/3
f 356/5/3 323/5/3 322/5/3
f 357/4/3 314/4/3 323/4/3
f 357/5/3 323/5/3 356/5/3
f 358/5/3 315/5/3 314/5/3
f 358/4/3 314/4/3 357/4/3
f 359/4/3 230/4/3 315/4/3
f 359/5/3 315/5/3 358/5/3
f 360/5/3 231/5/3 230/5/3
f 360/4/3 230/4/3 359/4/3
f 361/5/3 231/5/3 360/5/3
f 364/10/3 363/10/3 362/10/3
f 365/10/3 363/10/3 364/10/3
f 368/12/3 367/12/3 366/12/3
f 369/12/3 368/12/3 366/12/3
f 370/12/3 368/12/3 369/12/3
f 371/4/4 372/4/4 373/4/4
f 373/4/4 372/4/4 374/4/4
f 373/3/4 374/3/4 375/3/4
f 375/3/4 374/3/4 376/3/4
f 375/5/4 376/5/4 377/5/4
f 377/5/4 376/5/4 378/5/4
f 377/3/4 378/3/4 379/3/4
f 379/3/4 378/3/4 380/3/4
f 379/4/4 380/4/4 381/4/4
f 381/4/4 380/4/4 382/4/4
f 383/4/4 384/4/4 385/4/4
f 383/4/4 385/4/4 386/4/4
f 386/4/4 385/4/4 387/4/4
f 389/6/4 390/6/4 393/6/4
f 390/10/4 391/10/4 393/10/4
f 393/10/4 391/10/4 394/10/4
f 393/6/4 394/6/4 395/6/4
f 394/10/4 391/10/4 395/10/4
f 391/6/4 392/6/4 396/6/4
f 395/10/4 391/10/4 396/10/4
f 388/10/4 389/10/4 397/10/4
f 393/6/4 395/6/4 398/6/4
f 397/10/4 389/10/4 398/10/4
f 389/6/4 393/6/4 398/6/4
f 395/6/4 396/6/4 398/6/4
f 396/6/4 392/6/4 399/6/4
f 398/6/4 396/6/4 399/6/4
f 406/4/5 401/4/5 400/4/5
f 407/3/5 402/3/5 401/3/5
f 407/4/5 401/4/5 406/4/5
f 408/5/5 403/5/5 402/5/5
f 408/3/5 402/3/5 407/3/5
f 409/3/5 404/3/5 403/3/5
f 409/5/5 403/5/5 408/5/5
f 410/4/5 405/4/5 404/4/5
f 410/3/5 404/3/5 409/3/5
f 411/4/5 405/4/5 410/4/5
f 414/10/5 413/10/5 412/10/5
f 415/10/5 413/10/5 414/10/5
f 422/4/5 417/4/5 416/4/5
f 422/4/5 421/4/5 420/4/5
f 422/4/5 420/4/5 419/4/5
f 422/4/5 419/4/5 418/4/5
f 422/4/5 418/4/5 417/4/5
f 423/4/5 421/4/5 422/4/5
f 427/12/5 425/12/5 424/12/5
f 428/8/5 426/8/5 425/8/5
f 428/12/5 425/12/5 427/12/5
f 429/8/5 426/8/5 428/8/5
f 430/8/6 431/8/6 432/8/6
f 432/8/6 431/8/6 433/8/6
f 434/5/6 435/5/6 440/5/6
f 435/1/6 436/1/6 441/1/6
f 440/5/6 435/5/6 441/5/6
f 436/5/6 437/5/6 442/5/6
f 441/1/6 436/1/6 442/1/6
f 437/2/6 438/2/6 443/2/6
f 442/5/6 437/5/6 443/5/6
f 438/5/6 439/5/6 444/5/6
f 443/2/6 438/2/6 444/2/6
f 444/5/6 439/5/6 445/5/6
f 445/5/6 439/5/6 446/5/6
f 442/4/6 443/4/6 447/4/6
f 440/4/6 441/4/6 447/4/6
f 441/4/6 442/4/6 447/4/6
f 444/4/6 445/4/6 447/4/6
f 443/4/6 444/4/6 447/4/6
f 445/6/6 446/6/6 448/6/6
f 447/4/6 445/4/6 448/4/6
f 447/6/6 448/6/6 449/6/6
f 448/6/6 446/6/6 450/6/6
f 449/6/6 448/6/6 450/6/6
