# MagicaVoxel @ Ephtracy

# group
o 

# material
mtllib miecz 4.mtl
usemtl palette

# normals
vn -1 0 0
vn 1 0 0
vn 0 0 1
vn 0 0 -1
vn 0 -1 0
vn 0 1 0

# texcoords
vt 0.962891 0.5
vt 0.982422 0.5
vt 0.986328 0.5

# verts
v 0 1 0
v 0 1 -0.8
v 0 1.8 0
v 0 1.8 -0.8
v 0 4.2 0
v 0 4.2 -0.8
v 0 12.1 0
v 0 12.1 -0.1
v 0 12.1 -0.7
v 0 12.1 -0.8
v 0 12.2 -0.1
v 0 12.2 -0.2
v 0 12.2 -0.6
v 0 12.2 -0.7
v 0 12.3 -0.2
v 0 12.3 -0.3
v 0 12.3 -0.5
v 0 12.3 -0.6
v 0 12.4 -0.3
v 0 12.4 -0.5
v 0.1 12.3 -0.3
v 0.1 12.3 -0.5
v 0.1 12.4 -0.3
v 0.1 12.4 -0.5
v 0.2 11.9 0
v 0.2 11.9 -0.1
v 0.2 11.9 -0.7
v 0.2 11.9 -0.8
v 0.2 12 -0.1
v 0.2 12 -0.2
v 0.2 12 -0.6
v 0.2 12 -0.7
v 0.2 12.1 0
v 0.2 12.1 -0.1
v 0.2 12.1 -0.2
v 0.2 12.1 -0.3
v 0.2 12.1 -0.5
v 0.2 12.1 -0.6
v 0.2 12.1 -0.7
v 0.2 12.1 -0.8
v 0.2 12.2 -0.1
v 0.2 12.2 -0.2
v 0.2 12.2 -0.3
v 0.2 12.2 -0.5
v 0.2 12.2 -0.6
v 0.2 12.2 -0.7
v 0.2 12.3 -0.2
v 0.2 12.3 -0.6
v 0.3 12.1 -0.3
v 0.3 12.1 -0.5
v 0.3 12.2 -0.3
v 0.3 12.2 -0.5
v 0.4 11.7 0
v 0.4 11.7 -0.1
v 0.4 11.7 -0.7
v 0.4 11.7 -0.8
v 0.4 11.8 -0.1
v 0.4 11.8 -0.2
v 0.4 11.8 -0.6
v 0.4 11.8 -0.7
v 0.4 11.9 0
v 0.4 11.9 -0.1
v 0.4 11.9 -0.2
v 0.4 11.9 -0.3
v 0.4 11.9 -0.5
v 0.4 11.9 -0.6
v 0.4 11.9 -0.7
v 0.4 11.9 -0.8
v 0.4 12 -0.1
v 0.4 12 -0.2
v 0.4 12 -0.3
v 0.4 12 -0.5
v 0.4 12 -0.6
v 0.4 12 -0.7
v 0.4 12.1 -0.2
v 0.4 12.1 -0.6
v 0.5 11.9 -0.3
v 0.5 11.9 -0.5
v 0.5 12 -0.3
v 0.5 12 -0.5
v 0.6 11.5 0
v 0.6 11.5 -0.1
v 0.6 11.5 -0.7
v 0.6 11.5 -0.8
v 0.6 11.6 -0.1
v 0.6 11.6 -0.2
v 0.6 11.6 -0.6
v 0.6 11.6 -0.7
v 0.6 11.7 0
v 0.6 11.7 -0.1
v 0.6 11.7 -0.2
v 0.6 11.7 -0.3
v 0.6 11.7 -0.5
v 0.6 11.7 -0.6
v 0.6 11.7 -0.7
v 0.6 11.7 -0.8
v 0.6 11.8 -0.1
v 0.6 11.8 -0.2
v 0.6 11.8 -0.3
v 0.6 11.8 -0.5
v 0.6 11.8 -0.6
v 0.6 11.8 -0.7
v 0.6 11.9 -0.2
v 0.6 11.9 -0.6
v 0.7 11.7 -0.3
v 0.7 11.7 -0.5
v 0.7 11.8 -0.3
v 0.7 11.8 -0.5
v 0.8 4.2 0
v 0.8 4.2 -0.1
v 0.8 4.2 -0.7
v 0.8 4.2 -0.8
v 0.8 11.4 -0.1
v 0.8 11.4 -0.2
v 0.8 11.4 -0.6
v 0.8 11.4 -0.7
v 0.8 11.5 0
v 0.8 11.5 -0.1
v 0.8 11.5 -0.2
v 0.8 11.5 -0.3
v 0.8 11.5 -0.5
v 0.8 11.5 -0.6
v 0.8 11.5 -0.7
v 0.8 11.5 -0.8
v 0.8 11.6 -0.1
v 0.8 11.6 -0.2
v 0.8 11.6 -0.3
v 0.8 11.6 -0.5
v 0.8 11.6 -0.6
v 0.8 11.6 -0.7
v 0.8 11.7 -0.2
v 0.8 11.7 -0.6
v 0.9 11.5 -0.3
v 0.9 11.5 -0.5
v 0.9 11.6 -0.3
v 0.9 11.6 -0.5
v 1 11.2 -0.1
v 1 11.2 -0.2
v 1 11.2 -0.6
v 1 11.2 -0.7
v 1 11.3 -0.2
v 1 11.3 -0.3
v 1 11.3 -0.5
v 1 11.3 -0.6
v 1 11.4 -0.1
v 1 11.4 -0.2
v 1 11.4 -0.3
v 1 11.4 -0.5
v 1 11.4 -0.6
v 1 11.4 -0.7
v 1 11.5 -0.2
v 1 11.5 -0.6
v 1.1 11.3 -0.3
v 1.1 11.3 -0.5
v 1.1 11.4 -0.3
v 1.1 11.4 -0.5
v 1.2 11.1 -0.1
v 1.2 11.1 -0.2
v 1.2 11.1 -0.6
v 1.2 11.1 -0.7
v 1.2 11.2 -0.1
v 1.2 11.2 -0.2
v 1.2 11.2 -0.3
v 1.2 11.2 -0.5
v 1.2 11.2 -0.6
v 1.2 11.2 -0.7
v 1.2 11.3 -0.2
v 1.2 11.3 -0.3
v 1.2 11.3 -0.5
v 1.2 11.3 -0.6
v 1.3 11.2 -0.3
v 1.3 11.2 -0.5
v 1.3 11.3 -0.3
v 1.3 11.3 -0.5
v 1.4 4.2 -0.1
v 1.4 4.2 -0.2
v 1.4 4.2 -0.6
v 1.4 4.2 -0.7
v 1.4 11.1 -0.1
v 1.4 11.1 -0.2
v 1.4 11.1 -0.3
v 1.4 11.1 -0.5
v 1.4 11.1 -0.6
v 1.4 11.1 -0.7
v 1.4 11.2 -0.2
v 1.4 11.2 -0.3
v 1.4 11.2 -0.5
v 1.4 11.2 -0.6
v 1.5 4.2 -0.2
v 1.5 4.2 -0.3
v 1.5 4.2 -0.5
v 1.5 4.2 -0.6
v 1.5 11.1 -0.2
v 1.5 11.1 -0.3
v 1.5 11.1 -0.5
v 1.5 11.1 -0.6
v 1.5 11.2 -0.3
v 1.5 11.2 -0.5
v 1.6 1 0
v 1.6 1 -0.8
v 1.6 1.8 0
v 1.6 1.8 -0.8
v 1.6 4.2 0
v 1.6 4.2 -0.3
v 1.6 4.2 -0.5
v 1.6 4.2 -0.8
v 1.6 11.1 -0.3
v 1.6 11.1 -0.5
v 0 1 0
v 0 1.8 0
v 0 4.2 0
v 0 12.1 0
v 0.2 11.9 0
v 0.2 12.1 0
v 0.4 11.7 0
v 0.4 11.9 0
v 0.6 11.5 0
v 0.6 11.7 0
v 0.8 4.2 0
v 0.8 11.5 0
v 1.6 1 0
v 1.6 1.8 0
v 1.6 4.2 0
v 0 12.1 -0.1
v 0 12.2 -0.1
v 0.2 11.9 -0.1
v 0.2 12 -0.1
v 0.2 12.1 -0.1
v 0.2 12.2 -0.1
v 0.4 11.7 -0.1
v 0.4 11.8 -0.1
v 0.4 11.9 -0.1
v 0.4 12 -0.1
v 0.6 11.5 -0.1
v 0.6 11.6 -0.1
v 0.6 11.7 -0.1
v 0.6 11.8 -0.1
v 0.8 4.2 -0.1
v 0.8 11.4 -0.1
v 0.8 11.5 -0.1
v 0.8 11.6 -0.1
v 1 11.2 -0.1
v 1 11.4 -0.1
v 1.2 11.1 -0.1
v 1.2 11.2 -0.1
v 1.4 4.2 -0.1
v 1.4 11.1 -0.1
v 0 12.2 -0.2
v 0 12.3 -0.2
v 0.2 12 -0.2
v 0.2 12.1 -0.2
v 0.2 12.2 -0.2
v 0.2 12.3 -0.2
v 0.4 11.8 -0.2
v 0.4 11.9 -0.2
v 0.4 12 -0.2
v 0.4 12.1 -0.2
v 0.6 11.6 -0.2
v 0.6 11.7 -0.2
v 0.6 11.8 -0.2
v 0.6 11.9 -0.2
v 0.8 11.4 -0.2
v 0.8 11.5 -0.2
v 0.8 11.6 -0.2
v 0.8 11.7 -0.2
v 1 11.2 -0.2
v 1 11.3 -0.2
v 1 11.4 -0.2
v 1 11.5 -0.2
v 1.2 11.1 -0.2
v 1.2 11.2 -0.2
v 1.2 11.3 -0.2
v 1.4 4.2 -0.2
v 1.4 11.1 -0.2
v 1.4 11.2 -0.2
v 1.5 4.2 -0.2
v 1.5 11.1 -0.2
v 0 12.3 -0.3
v 0 12.4 -0.3
v 0.1 12.3 -0.3
v 0.1 12.4 -0.3
v 0.2 12.1 -0.3
v 0.2 12.2 -0.3
v 0.3 12.1 -0.3
v 0.3 12.2 -0.3
v 0.4 11.9 -0.3
v 0.4 12 -0.3
v 0.5 11.9 -0.3
v 0.5 12 -0.3
v 0.6 11.7 -0.3
v 0.6 11.8 -0.3
v 0.7 11.7 -0.3
v 0.7 11.8 -0.3
v 0.8 11.5 -0.3
v 0.8 11.6 -0.3
v 0.9 11.5 -0.3
v 0.9 11.6 -0.3
v 1 11.3 -0.3
v 1 11.4 -0.3
v 1.1 11.3 -0.3
v 1.1 11.4 -0.3
v 1.2 11.2 -0.3
v 1.2 11.3 -0.3
v 1.3 11.2 -0.3
v 1.3 11.3 -0.3
v 1.4 11.1 -0.3
v 1.4 11.2 -0.3
v 1.5 4.2 -0.3
v 1.5 11.1 -0.3
v 1.5 11.2 -0.3
v 1.6 4.2 -0.3
v 1.6 11.1 -0.3
v 0 12.3 -0.5
v 0 12.4 -0.5
v 0.1 12.3 -0.5
v 0.1 12.4 -0.5
v 0.2 12.1 -0.5
v 0.2 12.2 -0.5
v 0.3 12.1 -0.5
v 0.3 12.2 -0.5
v 0.4 11.9 -0.5
v 0.4 12 -0.5
v 0.5 11.9 -0.5
v 0.5 12 -0.5
v 0.6 11.7 -0.5
v 0.6 11.8 -0.5
v 0.7 11.7 -0.5
v 0.7 11.8 -0.5
v 0.8 11.5 -0.5
v 0.8 11.6 -0.5
v 0.9 11.5 -0.5
v 0.9 11.6 -0.5
v 1 11.3 -0.5
v 1 11.4 -0.5
v 1.1 11.3 -0.5
v 1.1 11.4 -0.5
v 1.2 11.2 -0.5
v 1.2 11.3 -0.5
v 1.3 11.2 -0.5
v 1.3 11.3 -0.5
v 1.4 11.1 -0.5
v 1.4 11.2 -0.5
v 1.5 4.2 -0.5
v 1.5 11.1 -0.5
v 1.5 11.2 -0.5
v 1.6 4.2 -0.5
v 1.6 11.1 -0.5
v 0 12.2 -0.6
v 0 12.3 -0.6
v 0.2 12 -0.6
v 0.2 12.1 -0.6
v 0.2 12.2 -0.6
v 0.2 12.3 -0.6
v 0.4 11.8 -0.6
v 0.4 11.9 -0.6
v 0.4 12 -0.6
v 0.4 12.1 -0.6
v 0.6 11.6 -0.6
v 0.6 11.7 -0.6
v 0.6 11.8 -0.6
v 0.6 11.9 -0.6
v 0.8 11.4 -0.6
v 0.8 11.5 -0.6
v 0.8 11.6 -0.6
v 0.8 11.7 -0.6
v 1 11.2 -0.6
v 1 11.3 -0.6
v 1 11.4 -0.6
v 1 11.5 -0.6
v 1.2 11.1 -0.6
v 1.2 11.2 -0.6
v 1.2 11.3 -0.6
v 1.4 4.2 -0.6
v 1.4 11.1 -0.6
v 1.4 11.2 -0.6
v 1.5 4.2 -0.6
v 1.5 11.1 -0.6
v 0 12.1 -0.7
v 0 12.2 -0.7
v 0.2 11.9 -0.7
v 0.2 12 -0.7
v 0.2 12.1 -0.7
v 0.2 12.2 -0.7
v 0.4 11.7 -0.7
v 0.4 11.8 -0.7
v 0.4 11.9 -0.7
v 0.4 12 -0.7
v 0.6 11.5 -0.7
v 0.6 11.6 -0.7
v 0.6 11.7 -0.7
v 0.6 11.8 -0.7
v 0.8 4.2 -0.7
v 0.8 11.4 -0.7
v 0.8 11.5 -0.7
v 0.8 11.6 -0.7
v 1 11.2 -0.7
v 1 11.4 -0.7
v 1.2 11.1 -0.7
v 1.2 11.2 -0.7
v 1.4 4.2 -0.7
v 1.4 11.1 -0.7
v 0 1 -0.8
v 0 1.8 -0.8
v 0 4.2 -0.8
v 0 12.1 -0.8
v 0.2 11.9 -0.8
v 0.2 12.1 -0.8
v 0.4 11.7 -0.8
v 0.4 11.9 -0.8
v 0.6 11.5 -0.8
v 0.6 11.7 -0.8
v 0.8 4.2 -0.8
v 0.8 11.5 -0.8
v 1.6 1 -0.8
v 1.6 1.8 -0.8
v 1.6 4.2 -0.8
v 0 1 0
v 1.6 1 0
v 0 1 -0.8
v 1.6 1 -0.8
v 0.8 4.2 0
v 1.6 4.2 0
v 0.8 4.2 -0.1
v 1.4 4.2 -0.1
v 1.4 4.2 -0.2
v 1.5 4.2 -0.2
v 1.5 4.2 -0.3
v 1.6 4.2 -0.3
v 1.5 4.2 -0.5
v 1.6 4.2 -0.5
v 1.4 4.2 -0.6
v 1.5 4.2 -0.6
v 0.8 4.2 -0.7
v 1.4 4.2 -0.7
v 0.8 4.2 -0.8
v 1.6 4.2 -0.8
v 1.2 11.1 -0.1
v 1.4 11.1 -0.1
v 1.2 11.1 -0.2
v 1.4 11.1 -0.2
v 1.5 11.1 -0.2
v 1.4 11.1 -0.3
v 1.5 11.1 -0.3
v 1.6 11.1 -0.3
v 1.4 11.1 -0.5
v 1.5 11.1 -0.5
v 1.6 11.1 -0.5
v 1.2 11.1 -0.6
v 1.4 11.1 -0.6
v 1.5 11.1 -0.6
v 1.2 11.1 -0.7
v 1.4 11.1 -0.7
v 1 11.2 -0.1
v 1.2 11.2 -0.1
v 1 11.2 -0.2
v 1.2 11.2 -0.2
v 1.4 11.2 -0.2
v 1.2 11.2 -0.3
v 1.3 11.2 -0.3
v 1.4 11.2 -0.3
v 1.5 11.2 -0.3
v 1.2 11.2 -0.5
v 1.3 11.2 -0.5
v 1.4 11.2 -0.5
v 1.5 11.2 -0.5
v 1 11.2 -0.6
v 1.2 11.2 -0.6
v 1.4 11.2 -0.6
v 1 11.2 -0.7
v 1.2 11.2 -0.7
v 1 11.3 -0.2
v 1.2 11.3 -0.2
v 1 11.3 -0.3
v 1.1 11.3 -0.3
v 1.2 11.3 -0.3
v 1.3 11.3 -0.3
v 1 11.3 -0.5
v 1.1 11.3 -0.5
v 1.2 11.3 -0.5
v 1.3 11.3 -0.5
v 1 11.3 -0.6
v 1.2 11.3 -0.6
v 0.8 11.4 -0.1
v 1 11.4 -0.1
v 0.8 11.4 -0.2
v 1 11.4 -0.2
v 1 11.4 -0.3
v 1.1 11.4 -0.3
v 1 11.4 -0.5
v 1.1 11.4 -0.5
v 0.8 11.4 -0.6
v 1 11.4 -0.6
v 0.8 11.4 -0.7
v 1 11.4 -0.7
v 0.6 11.5 0
v 0.8 11.5 0
v 0.6 11.5 -0.1
v 0.8 11.5 -0.1
v 0.8 11.5 -0.2
v 1 11.5 -0.2
v 0.8 11.5 -0.3
v 0.9 11.5 -0.3
v 0.8 11.5 -0.5
v 0.9 11.5 -0.5
v 0.8 11.5 -0.6
v 1 11.5 -0.6
v 0.6 11.5 -0.7
v 0.8 11.5 -0.7
v 0.6 11.5 -0.8
v 0.8 11.5 -0.8
v 0.6 11.6 -0.1
v 0.8 11.6 -0.1
v 0.6 11.6 -0.2
v 0.8 11.6 -0.2
v 0.8 11.6 -0.3
v 0.9 11.6 -0.3
v 0.8 11.6 -0.5
v 0.9 11.6 -0.5
v 0.6 11.6 -0.6
v 0.8 11.6 -0.6
v 0.6 11.6 -0.7
v 0.8 11.6 -0.7
v 0.4 11.7 0
v 0.6 11.7 0
v 0.4 11.7 -0.1
v 0.6 11.7 -0.1
v 0.6 11.7 -0.2
v 0.8 11.7 -0.2
v 0.6 11.7 -0.3
v 0.7 11.7 -0.3
v 0.6 11.7 -0.5
v 0.7 11.7 -0.5
v 0.6 11.7 -0.6
v 0.8 11.7 -0.6
v 0.4 11.7 -0.7
v 0.6 11.7 -0.7
v 0.4 11.7 -0.8
v 0.6 11.7 -0.8
v 0.4 11.8 -0.1
v 0.6 11.8 -0.1
v 0.4 11.8 -0.2
v 0.6 11.8 -0.2
v 0.6 11.8 -0.3
v 0.7 11.8 -0.3
v 0.6 11.8 -0.5
v 0.7 11.8 -0.5
v 0.4 11.8 -0.6
v 0.6 11.8 -0.6
v 0.4 11.8 -0.7
v 0.6 11.8 -0.7
v 0.2 11.9 0
v 0.4 11.9 0
v 0.2 11.9 -0.1
v 0.4 11.9 -0.1
v 0.4 11.9 -0.2
v 0.6 11.9 -0.2
v 0.4 11.9 -0.3
v 0.5 11.9 -0.3
v 0.4 11.9 -0.5
v 0.5 11.9 -0.5
v 0.4 11.9 -0.6
v 0.6 11.9 -0.6
v 0.2 11.9 -0.7
v 0.4 11.9 -0.7
v 0.2 11.9 -0.8
v 0.4 11.9 -0.8
v 0.2 12 -0.1
v 0.4 12 -0.1
v 0.2 12 -0.2
v 0.4 12 -0.2
v 0.4 12 -0.3
v 0.5 12 -0.3
v 0.4 12 -0.5
v 0.5 12 -0.5
v 0.2 12 -0.6
v 0.4 12 -0.6
v 0.2 12 -0.7
v 0.4 12 -0.7
v 0 12.1 0
v 0.2 12.1 0
v 0 12.1 -0.1
v 0.2 12.1 -0.1
v 0.2 12.1 -0.2
v 0.4 12.1 -0.2
v 0.2 12.1 -0.3
v 0.3 12.1 -0.3
v 0.2 12.1 -0.5
v 0.3 12.1 -0.5
v 0.2 12.1 -0.6
v 0.4 12.1 -0.6
v 0 12.1 -0.7
v 0.2 12.1 -0.7
v 0 12.1 -0.8
v 0.2 12.1 -0.8
v 0 12.2 -0.1
v 0.2 12.2 -0.1
v 0 12.2 -0.2
v 0.2 12.2 -0.2
v 0.2 12.2 -0.3
v 0.3 12.2 -0.3
v 0.2 12.2 -0.5
v 0.3 12.2 -0.5
v 0 12.2 -0.6
v 0.2 12.2 -0.6
v 0 12.2 -0.7
v 0.2 12.2 -0.7
v 0 12.3 -0.2
v 0.2 12.3 -0.2
v 0 12.3 -0.3
v 0.1 12.3 -0.3
v 0 12.3 -0.5
v 0.1 12.3 -0.5
v 0 12.3 -0.6
v 0.2 12.3 -0.6
v 0 12.4 -0.3
v 0.1 12.4 -0.3
v 0 12.4 -0.5
v 0.1 12.4 -0.5

# faces
f 3/2/1 2/2/1 1/2/1
f 4/2/1 2/2/1 3/2/1
f 5/3/1 4/3/1 3/3/1
f 6/3/1 4/3/1 5/3/1
f 7/1/1 6/1/1 5/1/1
f 8/1/1 6/1/1 7/1/1
f 9/1/1 6/1/1 8/1/1
f 10/1/1 6/1/1 9/1/1
f 11/1/1 9/1/1 8/1/1
f 12/1/1 9/1/1 11/1/1
f 13/1/1 9/1/1 12/1/1
f 14/1/1 9/1/1 13/1/1
f 15/1/1 13/1/1 12/1/1
f 16/1/1 13/1/1 15/1/1
f 17/1/1 13/1/1 16/1/1
f 18/1/1 13/1/1 17/1/1
f 19/1/1 17/1/1 16/1/1
f 20/1/1 17/1/1 19/1/1
f 21/1/2 22/1/2 23/1/2
f 23/1/2 22/1/2 24/1/2
f 25/1/2 26/1/2 29/1/2
f 27/1/2 28/1/2 32/1/2
f 29/1/2 30/1/2 33/1/2
f 25/1/2 29/1/2 33/1/2
f 33/1/2 30/1/2 34/1/2
f 34/1/2 30/1/2 35/1/2
f 31/1/2 32/1/2 38/1/2
f 32/1/2 28/1/2 39/1/2
f 38/1/2 32/1/2 39/1/2
f 39/1/2 28/1/2 40/1/2
f 35/1/2 36/1/2 41/1/2
f 34/1/2 35/1/2 41/1/2
f 41/1/2 36/1/2 42/1/2
f 42/1/2 36/1/2 43/1/2
f 37/1/2 38/1/2 44/1/2
f 38/1/2 39/1/2 44/1/2
f 44/1/2 39/1/2 45/1/2
f 45/1/2 39/1/2 46/1/2
f 42/1/2 43/1/2 47/1/2
f 44/1/2 45/1/2 47/1/2
f 43/1/2 44/1/2 47/1/2
f 47/1/2 45/1/2 48/1/2
f 49/1/2 50/1/2 51/1/2
f 51/1/2 50/1/2 52/1/2
f 53/1/2 54/1/2 57/1/2
f 55/1/2 56/1/2 60/1/2
f 57/1/2 58/1/2 61/1/2
f 53/1/2 57/1/2 61/1/2
f 61/1/2 58/1/2 62/1/2
f 62/1/2 58/1/2 63/1/2
f 59/1/2 60/1/2 66/1/2
f 60/1/2 56/1/2 67/1/2
f 66/1/2 60/1/2 67/1/2
f 67/1/2 56/1/2 68/1/2
f 63/1/2 64/1/2 69/1/2
f 62/1/2 63/1/2 69/1/2
f 69/1/2 64/1/2 70/1/2
f 70/1/2 64/1/2 71/1/2
f 65/1/2 66/1/2 72/1/2
f 66/1/2 67/1/2 72/1/2
f 72/1/2 67/1/2 73/1/2
f 73/1/2 67/1/2 74/1/2
f 70/1/2 71/1/2 75/1/2
f 72/1/2 73/1/2 75/1/2
f 71/1/2 72/1/2 75/1/2
f 75/1/2 73/1/2 76/1/2
f 77/1/2 78/1/2 79/1/2
f 79/1/2 78/1/2 80/1/2
f 81/1/2 82/1/2 85/1/2
f 83/1/2 84/1/2 88/1/2
f 85/1/2 86/1/2 89/1/2
f 81/1/2 85/1/2 89/1/2
f 89/1/2 86/1/2 90/1/2
f 90/1/2 86/1/2 91/1/2
f 87/1/2 88/1/2 94/1/2
f 88/1/2 84/1/2 95/1/2
f 94/1/2 88/1/2 95/1/2
f 95/1/2 84/1/2 96/1/2
f 91/1/2 92/1/2 97/1/2
f 90/1/2 91/1/2 97/1/2
f 97/1/2 92/1/2 98/1/2
f 98/1/2 92/1/2 99/1/2
f 93/1/2 94/1/2 100/1/2
f 94/1/2 95/1/2 100/1/2
f 100/1/2 95/1/2 101/1/2
f 101/1/2 95/1/2 102/1/2
f 98/1/2 99/1/2 103/1/2
f 100/1/2 101/1/2 103/1/2
f 99/1/2 100/1/2 103/1/2
f 103/1/2 101/1/2 104/1/2
f 105/1/2 106/1/2 107/1/2
f 107/1/2 106/1/2 108/1/2
f 109/1/2 110/1/2 113/1/2
f 111/1/2 112/1/2 116/1/2
f 113/1/2 114/1/2 117/1/2
f 109/1/2 113/1/2 117/1/2
f 117/1/2 114/1/2 118/1/2
f 118/1/2 114/1/2 119/1/2
f 115/1/2 116/1/2 122/1/2
f 116/1/2 112/1/2 123/1/2
f 122/1/2 116/1/2 123/1/2
f 123/1/2 112/1/2 124/1/2
f 119/1/2 120/1/2 125/1/2
f 118/1/2 119/1/2 125/1/2
f 125/1/2 120/1/2 126/1/2
f 126/1/2 120/1/2 127/1/2
f 121/1/2 122/1/2 128/1/2
f 122/1/2 123/1/2 128/1/2
f 128/1/2 123/1/2 129/1/2
f 129/1/2 123/1/2 130/1/2
f 126/1/2 127/1/2 131/1/2
f 128/1/2 129/1/2 131/1/2
f 127/1/2 128/1/2 131/1/2
f 131/1/2 129/1/2 132/1/2
f 133/1/2 134/1/2 135/1/2
f 135/1/2 134/1/2 136/1/2
f 137/1/2 138/1/2 141/1/2
f 139/1/2 140/1/2 144/1/2
f 141/1/2 142/1/2 145/1/2
f 137/1/2 141/1/2 145/1/2
f 145/1/2 142/1/2 146/1/2
f 146/1/2 142/1/2 147/1/2
f 143/1/2 144/1/2 148/1/2
f 144/1/2 140/1/2 149/1/2
f 148/1/2 144/1/2 149/1/2
f 149/1/2 140/1/2 150/1/2
f 146/1/2 147/1/2 151/1/2
f 147/1/2 148/1/2 151/1/2
f 148/1/2 149/1/2 151/1/2
f 151/1/2 149/1/2 152/1/2
f 153/1/2 154/1/2 155/1/2
f 155/1/2 154/1/2 156/1/2
f 157/1/2 158/1/2 161/1/2
f 161/1/2 158/1/2 162/1/2
f 159/1/2 160/1/2 165/1/2
f 165/1/2 160/1/2 166/1/2
f 162/1/2 163/1/2 167/1/2
f 167/1/2 163/1/2 168/1/2
f 164/1/2 165/1/2 169/1/2
f 169/1/2 165/1/2 170/1/2
f 171/1/2 172/1/2 173/1/2
f 173/1/2 172/1/2 174/1/2
f 175/1/2 176/1/2 179/1/2
f 179/1/2 176/1/2 180/1/2
f 177/1/2 178/1/2 183/1/2
f 183/1/2 178/1/2 184/1/2
f 180/1/2 181/1/2 185/1/2
f 185/1/2 181/1/2 186/1/2
f 182/1/2 183/1/2 187/1/2
f 187/1/2 183/1/2 188/1/2
f 189/1/2 190/1/2 193/1/2
f 193/1/2 190/1/2 194/1/2
f 191/1/2 192/1/2 195/1/2
f 195/1/2 192/1/2 196/1/2
f 194/1/2 195/1/2 197/1/2
f 197/1/2 195/1/2 198/1/2
f 199/2/2 200/2/2 201/2/2
f 201/2/2 200/2/2 202/2/2
f 201/3/2 202/3/2 203/3/2
f 203/3/2 202/3/2 204/3/2
f 204/3/2 202/3/2 205/3/2
f 205/3/2 202/3/2 206/3/2
f 204/1/2 205/1/2 207/1/2
f 207/1/2 205/1/2 208/1/2
f 213/1/3 212/1/3 211/1/3
f 214/1/3 212/1/3 213/1/3
f 215/1/3 213/1/3 211/1/3
f 216/1/3 213/1/3 215/1/3
f 217/1/3 215/1/3 211/1/3
f 218/1/3 215/1/3 217/1/3
f 219/3/3 211/3/3 210/3/3
f 219/1/3 217/1/3 211/1/3
f 220/1/3 217/1/3 219/1/3
f 221/2/3 210/2/3 209/2/3
f 222/3/3 219/3/3 210/3/3
f 222/2/3 210/2/3 221/2/3
f 223/3/3 219/3/3 222/3/3
f 228/1/3 225/1/3 224/1/3
f 229/1/3 225/1/3 228/1/3
f 232/1/3 227/1/3 226/1/3
f 233/1/3 227/1/3 232/1/3
f 236/1/3 231/1/3 230/1/3
f 237/1/3 231/1/3 236/1/3
f 240/1/3 235/1/3 234/1/3
f 241/1/3 235/1/3 240/1/3
f 242/1/3 239/1/3 238/1/3
f 243/1/3 239/1/3 242/1/3
f 244/1/3 242/1/3 238/1/3
f 245/1/3 242/1/3 244/1/3
f 246/1/3 244/1/3 238/1/3
f 247/1/3 244/1/3 246/1/3
f 252/1/3 249/1/3 248/1/3
f 253/1/3 249/1/3 252/1/3
f 256/1/3 251/1/3 250/1/3
f 257/1/3 251/1/3 256/1/3
f 260/1/3 255/1/3 254/1/3
f 261/1/3 255/1/3 260/1/3
f 264/1/3 259/1/3 258/1/3
f 265/1/3 259/1/3 264/1/3
f 268/1/3 263/1/3 262/1/3
f 269/1/3 263/1/3 268/1/3
f 271/1/3 267/1/3 266/1/3
f 272/1/3 267/1/3 271/1/3
f 274/1/3 271/1/3 270/1/3
f 275/1/3 271/1/3 274/1/3
f 276/1/3 274/1/3 273/1/3
f 277/1/3 274/1/3 276/1/3
f 280/1/3 279/1/3 278/1/3
f 281/1/3 279/1/3 280/1/3
f 284/1/3 283/1/3 282/1/3
f 285/1/3 283/1/3 284/1/3
f 288/1/3 287/1/3 286/1/3
f 289/1/3 287/1/3 288/1/3
f 292/1/3 291/1/3 290/1/3
f 293/1/3 291/1/3 292/1/3
f 296/1/3 295/1/3 294/1/3
f 297/1/3 295/1/3 296/1/3
f 300/1/3 299/1/3 298/1/3
f 301/1/3 299/1/3 300/1/3
f 304/1/3 303/1/3 302/1/3
f 305/1/3 303/1/3 304/1/3
f 309/1/3 307/1/3 306/1/3
f 310/1/3 307/1/3 309/1/3
f 311/1/3 309/1/3 308/1/3
f 312/1/3 309/1/3 311/1/3
f 313/1/4 314/1/4 315/1/4
f 315/1/4 314/1/4 316/1/4
f 317/1/4 318/1/4 319/1/4
f 319/1/4 318/1/4 320/1/4
f 321/1/4 322/1/4 323/1/4
f 323/1/4 322/1/4 324/1/4
f 325/1/4 326/1/4 327/1/4
f 327/1/4 326/1/4 328/1/4
f 329/1/4 330/1/4 331/1/4
f 331/1/4 330/1/4 332/1/4
f 333/1/4 334/1/4 335/1/4
f 335/1/4 334/1/4 336/1/4
f 337/1/4 338/1/4 339/1/4
f 339/1/4 338/1/4 340/1/4
f 341/1/4 342/1/4 344/1/4
f 344/1/4 342/1/4 345/1/4
f 343/1/4 344/1/4 346/1/4
f 346/1/4 344/1/4 347/1/4
f 348/1/4 349/1/4 352/1/4
f 352/1/4 349/1/4 353/1/4
f 350/1/4 351/1/4 356/1/4
f 356/1/4 351/1/4 357/1/4
f 354/1/4 355/1/4 360/1/4
f 360/1/4 355/1/4 361/1/4
f 358/1/4 359/1/4 364/1/4
f 364/1/4 359/1/4 365/1/4
f 362/1/4 363/1/4 368/1/4
f 368/1/4 363/1/4 369/1/4
f 366/1/4 367/1/4 371/1/4
f 371/1/4 367/1/4 372/1/4
f 370/1/4 371/1/4 374/1/4
f 374/1/4 371/1/4 375/1/4
f 373/1/4 374/1/4 376/1/4
f 376/1/4 374/1/4 377/1/4
f 378/1/4 379/1/4 382/1/4
f 382/1/4 379/1/4 383/1/4
f 380/1/4 381/1/4 386/1/4
f 386/1/4 381/1/4 387/1/4
f 384/1/4 385/1/4 390/1/4
f 390/1/4 385/1/4 391/1/4
f 388/1/4 389/1/4 394/1/4
f 394/1/4 389/1/4 395/1/4
f 392/1/4 393/1/4 396/1/4
f 396/1/4 393/1/4 397/1/4
f 392/1/4 396/1/4 398/1/4
f 398/1/4 396/1/4 399/1/4
f 392/1/4 398/1/4 400/1/4
f 400/1/4 398/1/4 401/1/4
f 404/1/4 405/1/4 406/1/4
f 406/1/4 405/1/4 407/1/4
f 404/1/4 406/1/4 408/1/4
f 408/1/4 406/1/4 409/1/4
f 404/1/4 408/1/4 410/1/4
f 410/1/4 408/1/4 411/1/4
f 403/3/4 404/3/4 412/3/4
f 404/1/4 410/1/4 412/1/4
f 412/1/4 410/1/4 413/1/4
f 402/2/4 403/2/4 414/2/4
f 403/3/4 412/3/4 415/3/4
f 414/2/4 403/2/4 415/2/4
f 415/3/4 412/3/4 416/3/4
f 419/2/5 418/2/5 417/2/5
f 420/2/5 418/2/5 419/2/5
f 421/3/6 422/3/6 423/3/6
f 423/3/6 422/3/6 424/3/6
f 424/3/6 422/3/6 425/3/6
f 425/3/6 422/3/6 426/3/6
f 426/3/6 422/3/6 427/3/6
f 427/3/6 422/3/6 428/3/6
f 429/3/6 430/3/6 432/3/6
f 431/3/6 432/3/6 434/3/6
f 433/3/6 434/3/6 435/3/6
f 432/3/6 430/3/6 436/3/6
f 435/3/6 434/3/6 436/3/6
f 434/3/6 432/3/6 436/3/6
f 437/1/6 438/1/6 439/1/6
f 439/1/6 438/1/6 440/1/6
f 440/1/6 441/1/6 442/1/6
f 442/1/6 441/1/6 443/1/6
f 443/1/6 444/1/6 446/1/6
f 446/1/6 444/1/6 447/1/6
f 445/1/6 446/1/6 449/1/6
f 449/1/6 446/1/6 450/1/6
f 448/1/6 449/1/6 451/1/6
f 451/1/6 449/1/6 452/1/6
f 453/1/6 454/1/6 455/1/6
f 455/1/6 454/1/6 456/1/6
f 456/1/6 457/1/6 458/1/6
f 458/1/6 457/1/6 459/1/6
f 459/1/6 457/1/6 460/1/6
f 460/1/6 461/1/6 463/1/6
f 459/1/6 460/1/6 463/1/6
f 463/1/6 461/1/6 464/1/6
f 464/1/6 461/1/6 465/1/6
f 462/1/6 463/1/6 467/1/6
f 463/1/6 464/1/6 467/1/6
f 467/1/6 464/1/6 468/1/6
f 466/1/6 467/1/6 469/1/6
f 469/1/6 467/1/6 470/1/6
f 471/1/6 472/1/6 473/1/6
f 473/1/6 472/1/6 474/1/6
f 474/1/6 472/1/6 475/1/6
f 475/1/6 476/1/6 478/1/6
f 474/1/6 475/1/6 478/1/6
f 478/1/6 476/1/6 479/1/6
f 479/1/6 476/1/6 480/1/6
f 477/1/6 478/1/6 481/1/6
f 478/1/6 479/1/6 481/1/6
f 481/1/6 479/1/6 482/1/6
f 483/1/6 484/1/6 485/1/6
f 485/1/6 484/1/6 486/1/6
f 487/1/6 488/1/6 489/1/6
f 489/1/6 488/1/6 490/1/6
f 491/1/6 492/1/6 493/1/6
f 493/1/6 492/1/6 494/1/6
f 495/1/6 496/1/6 497/1/6
f 497/1/6 496/1/6 498/1/6
f 499/1/6 500/1/6 501/1/6
f 501/1/6 500/1/6 502/1/6
f 502/1/6 500/1/6 504/1/6
f 503/1/6 504/1/6 505/1/6
f 504/1/6 500/1/6 506/1/6
f 505/1/6 504/1/6 506/1/6
f 507/1/6 508/1/6 509/1/6
f 509/1/6 508/1/6 510/1/6
f 511/1/6 512/1/6 513/1/6
f 513/1/6 512/1/6 514/1/6
f 515/1/6 516/1/6 517/1/6
f 517/1/6 516/1/6 518/1/6
f 519/1/6 520/1/6 521/1/6
f 521/1/6 520/1/6 522/1/6
f 523/1/6 524/1/6 525/1/6
f 525/1/6 524/1/6 526/1/6
f 527/1/6 528/1/6 529/1/6
f 529/1/6 528/1/6 530/1/6
f 530/1/6 528/1/6 532/1/6
f 531/1/6 532/1/6 533/1/6
f 532/1/6 528/1/6 534/1/6
f 533/1/6 532/1/6 534/1/6
f 535/1/6 536/1/6 537/1/6
f 537/1/6 536/1/6 538/1/6
f 539/1/6 540/1/6 541/1/6
f 541/1/6 540/1/6 542/1/6
f 543/1/6 544/1/6 545/1/6
f 545/1/6 544/1/6 546/1/6
f 547/1/6 548/1/6 549/1/6
f 549/1/6 548/1/6 550/1/6
f 551/1/6 552/1/6 553/1/6
f 553/1/6 552/1/6 554/1/6
f 555/1/6 556/1/6 557/1/6
f 557/1/6 556/1/6 558/1/6
f 558/1/6 556/1/6 560/1/6
f 559/1/6 560/1/6 561/1/6
f 560/1/6 556/1/6 562/1/6
f 561/1/6 560/1/6 562/1/6
f 563/1/6 564/1/6 565/1/6
f 565/1/6 564/1/6 566/1/6
f 567/1/6 568/1/6 569/1/6
f 569/1/6 568/1/6 570/1/6
f 571/1/6 572/1/6 573/1/6
f 573/1/6 572/1/6 574/1/6
f 575/1/6 576/1/6 577/1/6
f 577/1/6 576/1/6 578/1/6
f 579/1/6 580/1/6 581/1/6
f 581/1/6 580/1/6 582/1/6
f 583/1/6 584/1/6 585/1/6
f 585/1/6 584/1/6 586/1/6
f 586/1/6 584/1/6 588/1/6
f 587/1/6 588/1/6 589/1/6
f 588/1/6 584/1/6 590/1/6
f 589/1/6 588/1/6 590/1/6
f 591/1/6 592/1/6 593/1/6
f 593/1/6 592/1/6 594/1/6
f 595/1/6 596/1/6 597/1/6
f 597/1/6 596/1/6 598/1/6
f 599/1/6 600/1/6 601/1/6
f 601/1/6 600/1/6 602/1/6
f 603/1/6 604/1/6 605/1/6
f 605/1/6 604/1/6 606/1/6
f 607/1/6 608/1/6 609/1/6
f 609/1/6 608/1/6 610/1/6
f 610/1/6 608/1/6 612/1/6
f 611/1/6 612/1/6 613/1/6
f 612/1/6 608/1/6 614/1/6
f 613/1/6 612/1/6 614/1/6
f 615/1/6 616/1/6 617/1/6
f 617/1/6 616/1/6 618/1/6
