# MagicaVoxel @ Ephtracy

# group
o 

# material
mtllib dzban1.mtl
usemtl palette

# normals
vn -1 0 0
vn 1 0 0
vn 0 0 1
vn 0 0 -1
vn 0 -1 0
vn 0 1 0

# texcoords
vt 0.107422 0.5
vt 0.224609 0.5
vt 0.310547 0.5
vt 0.326172 0.5
vt 0.361328 0.5

# verts
v 0 0.4 0
v 0 0.4 -1
v 0 0.5 0
v 0 0.5 -1
v 0 0.6 0
v 0 0.6 -1
v 0 0.7 0
v 0 0.7 -1
v 0 0.8 0
v 0 0.8 -1
v 0 0.9 0
v 0 0.9 -1
v 0.1 0.9 -0.1
v 0.1 0.9 -0.9
v 0.1 1 -0.1
v 0.1 1 -0.9
v 0.1 1.4 -0.1
v 0.1 1.4 -0.9
v 0.1 1.5 -0.1
v 0.1 1.5 -0.9
v 0.1 1.6 -0.1
v 0.1 1.6 -0.9
v 0.2 1 -0.2
v 0.2 1 -0.8
v 0.2 1.1 -0.2
v 0.2 1.1 -0.8
v 0.2 1.2 -0.2
v 0.2 1.2 -0.8
v 0.2 1.3 -0.2
v 0.2 1.3 -0.8
v 0.2 1.4 -0.2
v 0.2 1.4 -0.8
v 0.7 1.5 -0.3
v 0.7 1.5 -0.7
v 0.7 1.6 -0.3
v 0.7 1.6 -0.7
v 0.3 1.5 -0.3
v 0.3 1.5 -0.7
v 0.3 1.6 -0.3
v 0.3 1.6 -0.7
v 0.8 1 -0.2
v 0.8 1 -0.8
v 0.8 1.1 -0.2
v 0.8 1.1 -0.8
v 0.8 1.2 -0.2
v 0.8 1.2 -0.8
v 0.8 1.3 -0.2
v 0.8 1.3 -0.8
v 0.8 1.4 -0.2
v 0.8 1.4 -0.8
v 0.9 0.9 -0.1
v 0.9 0.9 -0.9
v 0.9 1 -0.1
v 0.9 1 -0.9
v 0.9 1.4 -0.1
v 0.9 1.4 -0.9
v 0.9 1.5 -0.1
v 0.9 1.5 -0.9
v 0.9 1.6 -0.1
v 0.9 1.6 -0.9
v 1 0.4 0
v 1 0.4 -1
v 1 0.5 0
v 1 0.5 -1
v 1 0.6 0
v 1 0.6 -1
v 1 0.7 0
v 1 0.7 -1
v 1 0.8 0
v 1 0.8 -1
v 1 0.9 0
v 1 0.9 -1
v 0 0.4 0
v 0 0.5 0
v 0 0.6 0
v 0 0.7 0
v 0 0.8 0
v 0 0.9 0
v 1 0.4 0
v 1 0.5 0
v 1 0.6 0
v 1 0.7 0
v 1 0.8 0
v 1 0.9 0
v 0.1 0.9 -0.1
v 0.1 1 -0.1
v 0.1 1.4 -0.1
v 0.1 1.5 -0.1
v 0.1 1.6 -0.1
v 0.9 0.9 -0.1
v 0.9 1 -0.1
v 0.9 1.4 -0.1
v 0.9 1.5 -0.1
v 0.9 1.6 -0.1
v 0.2 1 -0.2
v 0.2 1.1 -0.2
v 0.2 1.2 -0.2
v 0.2 1.3 -0.2
v 0.2 1.4 -0.2
v 0.8 1 -0.2
v 0.8 1.1 -0.2
v 0.8 1.2 -0.2
v 0.8 1.3 -0.2
v 0.8 1.4 -0.2
v 0.3 1.5 -0.7
v 0.3 1.6 -0.7
v 0.7 1.5 -0.7
v 0.7 1.6 -0.7
v 0.3 1.5 -0.3
v 0.3 1.6 -0.3
v 0.7 1.5 -0.3
v 0.7 1.6 -0.3
v 0.2 1 -0.8
v 0.2 1.1 -0.8
v 0.2 1.2 -0.8
v 0.2 1.3 -0.8
v 0.2 1.4 -0.8
v 0.8 1 -0.8
v 0.8 1.1 -0.8
v 0.8 1.2 -0.8
v 0.8 1.3 -0.8
v 0.8 1.4 -0.8
v 0.1 0.9 -0.9
v 0.1 1 -0.9
v 0.1 1.4 -0.9
v 0.1 1.5 -0.9
v 0.1 1.6 -0.9
v 0.9 0.9 -0.9
v 0.9 1 -0.9
v 0.9 1.4 -0.9
v 0.9 1.5 -0.9
v 0.9 1.6 -0.9
v 0 0.4 -1
v 0 0.5 -1
v 0 0.6 -1
v 0 0.7 -1
v 0 0.8 -1
v 0 0.9 -1
v 1 0.4 -1
v 1 0.5 -1
v 1 0.6 -1
v 1 0.7 -1
v 1 0.8 -1
v 1 0.9 -1
v 0 0.4 0
v 1 0.4 0
v 0 0.4 -1
v 1 0.4 -1
v 0.1 1.4 -0.1
v 0.9 1.4 -0.1
v 0.2 1.4 -0.2
v 0.8 1.4 -0.2
v 0.2 1.4 -0.8
v 0.8 1.4 -0.8
v 0.1 1.4 -0.9
v 0.9 1.4 -0.9
v 0 0.9 0
v 1 0.9 0
v 0.1 0.9 -0.1
v 0.9 0.9 -0.1
v 0.1 0.9 -0.9
v 0.9 0.9 -0.9
v 0 0.9 -1
v 1 0.9 -1
v 0.1 1 -0.1
v 0.9 1 -0.1
v 0.2 1 -0.2
v 0.8 1 -0.2
v 0.2 1 -0.8
v 0.8 1 -0.8
v 0.1 1 -0.9
v 0.9 1 -0.9
v 0.3 1.5 -0.3
v 0.7 1.5 -0.3
v 0.3 1.5 -0.7
v 0.7 1.5 -0.7
v 0.1 1.6 -0.1
v 0.9 1.6 -0.1
v 0.2 1.6 -0.2
v 0.8 1.6 -0.2
v 0.3 1.6 -0.3
v 0.7 1.6 -0.3
v 0.3 1.6 -0.7
v 0.7 1.6 -0.7
v 0.2 1.6 -0.8
v 0.8 1.6 -0.8
v 0.1 1.6 -0.9
v 0.9 1.6 -0.9

# faces
f 3/2/1 2/2/1 1/2/1
f 4/2/1 2/2/1 3/2/1
f 5/5/1 4/5/1 3/5/1
f 6/5/1 4/5/1 5/5/1
f 7/4/1 6/4/1 5/4/1
f 8/4/1 6/4/1 7/4/1
f 9/5/1 8/5/1 7/5/1
f 10/5/1 8/5/1 9/5/1
f 11/2/1 10/2/1 9/2/1
f 12/2/1 10/2/1 11/2/1
f 15/5/1 14/5/1 13/5/1
f 16/5/1 14/5/1 15/5/1
f 19/2/1 18/2/1 17/2/1
f 20/2/1 18/2/1 19/2/1
f 21/4/1 20/4/1 19/4/1
f 22/4/1 20/4/1 21/4/1
f 25/4/1 24/4/1 23/4/1
f 26/4/1 24/4/1 25/4/1
f 27/2/1 26/2/1 25/2/1
f 28/2/1 26/2/1 27/2/1
f 29/4/1 28/4/1 27/4/1
f 30/4/1 28/4/1 29/4/1
f 31/5/1 30/5/1 29/5/1
f 32/5/1 30/5/1 31/5/1
f 35/5/1 34/5/1 33/5/1
f 36/5/1 34/5/1 35/5/1
f 37/5/2 38/5/2 39/5/2
f 39/5/2 38/5/2 40/5/2
f 41/4/2 42/4/2 43/4/2
f 43/4/2 42/4/2 44/4/2
f 43/2/2 44/2/2 45/2/2
f 45/2/2 44/2/2 46/2/2
f 45/4/2 46/4/2 47/4/2
f 47/4/2 46/4/2 48/4/2
f 47/5/2 48/5/2 49/5/2
f 49/5/2 48/5/2 50/5/2
f 51/5/2 52/5/2 53/5/2
f 53/5/2 52/5/2 54/5/2
f 55/2/2 56/2/2 57/2/2
f 57/2/2 56/2/2 58/2/2
f 57/4/2 58/4/2 59/4/2
f 59/4/2 58/4/2 60/4/2
f 61/2/2 62/2/2 63/2/2
f 63/2/2 62/2/2 64/2/2
f 63/5/2 64/5/2 65/5/2
f 65/5/2 64/5/2 66/5/2
f 65/4/2 66/4/2 67/4/2
f 67/4/2 66/4/2 68/4/2
f 67/5/2 68/5/2 69/5/2
f 69/5/2 68/5/2 70/5/2
f 69/2/2 70/2/2 71/2/2
f 71/2/2 70/2/2 72/2/2
f 79/2/3 74/2/3 73/2/3
f 80/5/3 75/5/3 74/5/3
f 80/2/3 74/2/3 79/2/3
f 81/4/3 76/4/3 75/4/3
f 81/5/3 75/5/3 80/5/3
f 82/5/3 77/5/3 76/5/3
f 82/4/3 76/4/3 81/4/3
f 83/2/3 78/2/3 77/2/3
f 83/5/3 77/5/3 82/5/3
f 84/2/3 78/2/3 83/2/3
f 90/5/3 86/5/3 85/5/3
f 91/5/3 86/5/3 90/5/3
f 92/2/3 88/2/3 87/2/3
f 93/4/3 89/4/3 88/4/3
f 93/2/3 88/2/3 92/2/3
f 94/4/3 89/4/3 93/4/3
f 100/4/3 96/4/3 95/4/3
f 101/2/3 97/2/3 96/2/3
f 101/4/3 96/4/3 100/4/3
f 102/4/3 98/4/3 97/4/3
f 102/2/3 97/2/3 101/2/3
f 103/5/3 99/5/3 98/5/3
f 103/4/3 98/4/3 102/4/3
f 104/5/3 99/5/3 103/5/3
f 107/5/3 106/5/3 105/5/3
f 108/5/3 106/5/3 107/5/3
f 109/5/4 110/5/4 111/5/4
f 111/5/4 110/5/4 112/5/4
f 113/4/4 114/4/4 118/4/4
f 114/2/4 115/2/4 119/2/4
f 118/4/4 114/4/4 119/4/4
f 115/4/4 116/4/4 120/4/4
f 119/2/4 115/2/4 120/2/4
f 116/5/4 117/5/4 121/5/4
f 120/4/4 116/4/4 121/4/4
f 121/5/4 117/5/4 122/5/4
f 123/5/4 124/5/4 128/5/4
f 128/5/4 124/5/4 129/5/4
f 125/2/4 126/2/4 130/2/4
f 126/4/4 127/4/4 131/4/4
f 130/2/4 126/2/4 131/2/4
f 131/4/4 127/4/4 132/4/4
f 133/2/4 134/2/4 139/2/4
f 134/5/4 135/5/4 140/5/4
f 139/2/4 134/2/4 140/2/4
f 135/4/4 136/4/4 141/4/4
f 140/5/4 135/5/4 141/5/4
f 136/5/4 137/5/4 142/5/4
f 141/4/4 136/4/4 142/4/4
f 137/2/4 138/2/4 143/2/4
f 142/5/4 137/5/4 143/5/4
f 143/2/4 138/2/4 144/2/4
f 147/2/5 146/2/5 145/2/5
f 148/2/5 146/2/5 147/2/5
f 151/2/5 150/2/5 149/2/5
f 152/2/5 150/2/5 151/2/5
f 153/2/5 151/2/5 149/2/5
f 154/2/5 150/2/5 152/2/5
f 155/2/5 153/2/5 149/2/5
f 155/2/5 154/2/5 153/2/5
f 156/2/5 150/2/5 154/2/5
f 156/2/5 154/2/5 155/2/5
f 157/2/6 158/2/6 159/2/6
f 159/2/6 158/2/6 160/2/6
f 157/2/6 159/2/6 161/2/6
f 160/2/6 158/2/6 162/2/6
f 157/2/6 161/2/6 163/2/6
f 161/2/6 162/2/6 163/2/6
f 162/2/6 158/2/6 164/2/6
f 163/2/6 162/2/6 164/2/6
f 165/5/6 166/5/6 167/5/6
f 167/5/6 166/5/6 168/5/6
f 165/5/6 167/5/6 169/5/6
f 168/5/6 166/5/6 170/5/6
f 165/5/6 169/5/6 171/5/6
f 169/5/6 170/5/6 171/5/6
f 170/5/6 166/5/6 172/5/6
f 171/5/6 170/5/6 172/5/6
f 173/3/6 174/3/6 175/3/6
f 175/3/6 174/3/6 176/3/6
f 177/4/6 178/4/6 179/4/6
f 179/4/6 178/4/6 180/4/6
f 179/5/6 180/5/6 181/5/6
f 181/5/6 180/5/6 182/5/6
f 179/5/6 181/5/6 183/5/6
f 182/5/6 180/5/6 184/5/6
f 177/4/6 179/4/6 185/4/6
f 183/5/6 184/5/6 185/5/6
f 179/5/6 183/5/6 185/5/6
f 184/5/6 180/5/6 186/5/6
f 185/5/6 184/5/6 186/5/6
f 180/4/6 178/4/6 186/4/6
f 177/4/6 185/4/6 187/4/6
f 185/4/6 186/4/6 187/4/6
f 186/4/6 178/4/6 188/4/6
f 187/4/6 186/4/6 188/4/6
