# MagicaVoxel @ Ephtracy

# group
o 

# material
mtllib wieżyczka.mtl
usemtl palette

# normals
vn -1 0 0
vn 1 0 0
vn 0 0 1
vn 0 0 -1
vn 0 -1 0
vn 0 1 0

# texcoords
vt 0.716797 0.5
vt 0.935547 0.5
vt 0.978516 0.5

# verts
v 0 12.6 0
v 0 12.6 -1.7
v 0 12.6 -3.4
v 0 12.6 -5.1
v 0 14.1 0
v 0 14.1 -1.7
v 0 14.1 -3.4
v 0 14.1 -5.1
v 0 14.6 0
v 0 14.6 -1.7
v 0 14.6 -3.4
v 0 14.6 -5.1
v 0.1 2 -2.5
v 0.1 2 -2.6
v 0.1 2.1 -2.5
v 0.1 2.1 -2.6
v 0.2 12.9 -1.7
v 0.2 12.9 -3.4
v 0.2 13.8 -1.7
v 0.2 13.8 -3.4
v 0.2 14.1 -1.7
v 0.2 14.1 -3.4
v 0.2 14.2 -1.7
v 0.2 14.2 -3.4
v 0.4 2 -0.4
v 0.4 2 -2.5
v 0.4 2 -2.6
v 0.4 2 -4.7
v 0.4 2.1 -2.5
v 0.4 2.1 -2.6
v 0.4 12.6 -0.4
v 0.4 12.6 -1.7
v 0.4 12.6 -3.4
v 0.4 12.6 -4.7
v 0.4 12.9 -1.7
v 0.4 12.9 -3.4
v 3.4 12.6 0
v 3.4 12.6 -0.4
v 3.4 12.6 -4.7
v 3.4 12.6 -5.1
v 3.4 12.8 -0.2
v 3.4 12.8 -0.4
v 3.4 12.8 -4.7
v 3.4 12.8 -4.9
v 3.4 13.9 -0.2
v 3.4 13.9 -4.9
v 3.4 14.1 0
v 3.4 14.1 -0.2
v 3.4 14.1 -4.9
v 3.4 14.1 -5.1
v 3.4 14.2 -0.2
v 3.4 14.2 -0.4
v 3.4 14.2 -4.7
v 3.4 14.2 -4.9
v 3.4 14.6 0
v 3.4 14.6 -0.4
v 3.4 14.6 -4.7
v 3.4 14.6 -5.1
v 4.1 13 -0.4
v 4.1 13 -1
v 4.1 13 -4.1
v 4.1 13 -4.7
v 4.1 13.8 -0.4
v 4.1 13.8 -1
v 4.1 13.8 -4.1
v 4.1 13.8 -4.7
v 4.1 14.6 -0.4
v 4.1 14.6 -1
v 4.1 14.6 -4.1
v 4.1 14.6 -4.7
v 4.7 13 -1
v 4.7 13 -4.1
v 4.7 13.8 -1
v 4.7 13.8 -4.1
v 4.7 14.2 -1.7
v 4.7 14.2 -3.4
v 4.7 14.6 -1
v 4.7 14.6 -1.7
v 4.7 14.6 -3.4
v 4.7 14.6 -4.1
v 0.4 13 -1
v 0.4 13 -4.1
v 0.4 13.8 -1
v 0.4 13.8 -4.1
v 0.4 14.2 -1.7
v 0.4 14.2 -3.4
v 0.4 14.6 -1
v 0.4 14.6 -1.7
v 0.4 14.6 -3.4
v 0.4 14.6 -4.1
v 1 13 -0.4
v 1 13 -1
v 1 13 -4.1
v 1 13 -4.7
v 1 13.8 -0.4
v 1 13.8 -1
v 1 13.8 -4.1
v 1 13.8 -4.7
v 1 14.6 -0.4
v 1 14.6 -1
v 1 14.6 -4.1
v 1 14.6 -4.7
v 1.7 12.6 0
v 1.7 12.6 -0.4
v 1.7 12.6 -4.7
v 1.7 12.6 -5.1
v 1.7 12.8 -0.2
v 1.7 12.8 -0.4
v 1.7 12.8 -4.7
v 1.7 12.8 -4.9
v 1.7 13.9 -0.2
v 1.7 13.9 -4.9
v 1.7 14.1 0
v 1.7 14.1 -0.2
v 1.7 14.1 -4.9
v 1.7 14.1 -5.1
v 1.7 14.2 -0.2
v 1.7 14.2 -0.4
v 1.7 14.2 -4.7
v 1.7 14.2 -4.9
v 1.7 14.6 0
v 1.7 14.6 -0.4
v 1.7 14.6 -4.7
v 1.7 14.6 -5.1
v 4.7 2 -0.4
v 4.7 2 -2.5
v 4.7 2 -2.6
v 4.7 2 -4.7
v 4.7 2.1 -2.5
v 4.7 2.1 -2.6
v 4.7 12.6 -0.4
v 4.7 12.6 -1.7
v 4.7 12.6 -3.4
v 4.7 12.6 -4.7
v 4.7 12.9 -1.7
v 4.7 12.9 -3.4
v 4.9 12.9 -1.7
v 4.9 12.9 -3.4
v 4.9 13.8 -1.7
v 4.9 13.8 -3.4
v 4.9 14.1 -1.7
v 4.9 14.1 -3.4
v 4.9 14.2 -1.7
v 4.9 14.2 -3.4
v 5 2 -2.5
v 5 2 -2.6
v 5 2.1 -2.5
v 5 2.1 -2.6
v 5.1 12.6 0
v 5.1 12.6 -1.7
v 5.1 12.6 -3.4
v 5.1 12.6 -5.1
v 5.1 14.1 0
v 5.1 14.1 -1.7
v 5.1 14.1 -3.4
v 5.1 14.1 -5.1
v 5.1 14.6 0
v 5.1 14.6 -1.7
v 5.1 14.6 -3.4
v 5.1 14.6 -5.1
v 0 12.6 0
v 0 14.1 0
v 0 14.6 0
v 1.7 12.6 0
v 1.7 14.1 0
v 1.7 14.6 0
v 3.4 12.6 0
v 3.4 14.1 0
v 3.4 14.6 0
v 5.1 12.6 0
v 5.1 14.1 0
v 5.1 14.6 0
v 1.7 12.8 -0.2
v 1.7 13.9 -0.2
v 1.7 14.1 -0.2
v 1.7 14.2 -0.2
v 3.4 12.8 -0.2
v 3.4 13.9 -0.2
v 3.4 14.1 -0.2
v 3.4 14.2 -0.2
v 0.4 2 -0.4
v 0.4 12.6 -0.4
v 1.7 12.6 -0.4
v 1.7 12.8 -0.4
v 3.4 12.6 -0.4
v 3.4 12.8 -0.4
v 4.7 2 -0.4
v 4.7 12.6 -0.4
v 0.1 2 -2.5
v 0.1 2.1 -2.5
v 0.4 2 -2.5
v 0.4 2.1 -2.5
v 4.7 2 -2.5
v 4.7 2.1 -2.5
v 5 2 -2.5
v 5 2.1 -2.5
v 0 12.6 -3.4
v 0 14.1 -3.4
v 0 14.6 -3.4
v 0.2 12.9 -3.4
v 0.2 13.8 -3.4
v 0.2 14.1 -3.4
v 0.2 14.2 -3.4
v 0.4 12.6 -3.4
v 0.4 12.9 -3.4
v 0.4 14.2 -3.4
v 0.4 14.6 -3.4
v 4.7 12.6 -3.4
v 4.7 12.9 -3.4
v 4.7 14.2 -3.4
v 4.7 14.6 -3.4
v 4.9 12.9 -3.4
v 4.9 13.8 -3.4
v 4.9 14.1 -3.4
v 4.9 14.2 -3.4
v 5.1 12.6 -3.4
v 5.1 14.1 -3.4
v 5.1 14.6 -3.4
v 0.4 13 -4.1
v 0.4 13.8 -4.1
v 0.4 14.6 -4.1
v 1 13 -4.1
v 1 13.8 -4.1
v 1 14.6 -4.1
v 4.1 13 -4.1
v 4.1 13.8 -4.1
v 4.1 14.6 -4.1
v 4.7 13 -4.1
v 4.7 13.8 -4.1
v 4.7 14.6 -4.1
v 1 13 -4.7
v 1 13.8 -4.7
v 1 14.6 -4.7
v 1.7 13.8 -4.7
v 1.7 13.9 -4.7
v 1.7 14.2 -4.7
v 1.7 14.6 -4.7
v 3.4 13.8 -4.7
v 3.4 13.9 -4.7
v 3.4 14.2 -4.7
v 3.4 14.6 -4.7
v 4.1 13 -4.7
v 4.1 13.8 -4.7
v 4.1 14.6 -4.7
v 1 13 -0.4
v 1 13.8 -0.4
v 1 14.6 -0.4
v 1.7 13.8 -0.4
v 1.7 13.9 -0.4
v 1.7 14.2 -0.4
v 1.7 14.6 -0.4
v 3.4 13.8 -0.4
v 3.4 13.9 -0.4
v 3.4 14.2 -0.4
v 3.4 14.6 -0.4
v 4.1 13 -0.4
v 4.1 13.8 -0.4
v 4.1 14.6 -0.4
v 0.4 13 -1
v 0.4 13.8 -1
v 0.4 14.6 -1
v 1 13 -1
v 1 13.8 -1
v 1 14.6 -1
v 4.1 13 -1
v 4.1 13.8 -1
v 4.1 14.6 -1
v 4.7 13 -1
v 4.7 13.8 -1
v 4.7 14.6 -1
v 0 12.6 -1.7
v 0 14.1 -1.7
v 0 14.6 -1.7
v 0.2 12.9 -1.7
v 0.2 13.8 -1.7
v 0.2 14.1 -1.7
v 0.2 14.2 -1.7
v 0.4 12.6 -1.7
v 0.4 12.9 -1.7
v 0.4 14.2 -1.7
v 0.4 14.6 -1.7
v 4.7 12.6 -1.7
v 4.7 12.9 -1.7
v 4.7 14.2 -1.7
v 4.7 14.6 -1.7
v 4.9 12.9 -1.7
v 4.9 13.8 -1.7
v 4.9 14.1 -1.7
v 4.9 14.2 -1.7
v 5.1 12.6 -1.7
v 5.1 14.1 -1.7
v 5.1 14.6 -1.7
v 0.1 2 -2.6
v 0.1 2.1 -2.6
v 0.4 2 -2.6
v 0.4 2.1 -2.6
v 4.7 2 -2.6
v 4.7 2.1 -2.6
v 5 2 -2.6
v 5 2.1 -2.6
v 0.4 2 -4.7
v 0.4 12.6 -4.7
v 1.7 12.6 -4.7
v 1.7 12.8 -4.7
v 3.4 12.6 -4.7
v 3.4 12.8 -4.7
v 4.7 2 -4.7
v 4.7 12.6 -4.7
v 1.7 12.8 -4.9
v 1.7 13.9 -4.9
v 1.7 14.1 -4.9
v 1.7 14.2 -4.9
v 3.4 12.8 -4.9
v 3.4 13.9 -4.9
v 3.4 14.1 -4.9
v 3.4 14.2 -4.9
v 0 12.6 -5.1
v 0 14.1 -5.1
v 0 14.6 -5.1
v 1.7 12.6 -5.1
v 1.7 14.1 -5.1
v 1.7 14.6 -5.1
v 3.4 12.6 -5.1
v 3.4 14.1 -5.1
v 3.4 14.6 -5.1
v 5.1 12.6 -5.1
v 5.1 14.1 -5.1
v 5.1 14.6 -5.1
v 0.4 2 -0.4
v 4.7 2 -0.4
v 0.1 2 -2.5
v 0.4 2 -2.5
v 4.7 2 -2.5
v 5 2 -2.5
v 0.1 2 -2.6
v 0.4 2 -2.6
v 4.7 2 -2.6
v 5 2 -2.6
v 0.4 2 -4.7
v 4.7 2 -4.7
v 0 12.6 0
v 1.7 12.6 0
v 3.4 12.6 0
v 5.1 12.6 0
v 0.4 12.6 -0.4
v 1.7 12.6 -0.4
v 3.4 12.6 -0.4
v 4.7 12.6 -0.4
v 0 12.6 -1.7
v 0.4 12.6 -1.7
v 4.7 12.6 -1.7
v 5.1 12.6 -1.7
v 0 12.6 -3.4
v 0.4 12.6 -3.4
v 4.7 12.6 -3.4
v 5.1 12.6 -3.4
v 0.4 12.6 -4.7
v 1.7 12.6 -4.7
v 3.4 12.6 -4.7
v 4.7 12.6 -4.7
v 0 12.6 -5.1
v 1.7 12.6 -5.1
v 3.4 12.6 -5.1
v 5.1 12.6 -5.1
v 1.7 12.8 -0.2
v 3.4 12.8 -0.2
v 1.7 12.8 -0.4
v 3.4 12.8 -0.4
v 1.7 12.8 -4.7
v 3.4 12.8 -4.7
v 1.7 12.8 -4.9
v 3.4 12.8 -4.9
v 0.2 12.9 -1.7
v 0.4 12.9 -1.7
v 4.7 12.9 -1.7
v 4.9 12.9 -1.7
v 0.2 12.9 -3.4
v 0.4 12.9 -3.4
v 4.7 12.9 -3.4
v 4.9 12.9 -3.4
v 0.1 2.1 -2.5
v 0.4 2.1 -2.5
v 4.7 2.1 -2.5
v 5 2.1 -2.5
v 0.1 2.1 -2.6
v 0.4 2.1 -2.6
v 4.7 2.1 -2.6
v 5 2.1 -2.6
v 1 13 -0.4
v 4.1 13 -0.4
v 0.4 13 -1
v 1 13 -1
v 4.1 13 -1
v 4.7 13 -1
v 0.4 13 -4.1
v 1 13 -4.1
v 4.1 13 -4.1
v 4.7 13 -4.1
v 1 13 -4.7
v 4.1 13 -4.7
v 1.7 14.2 -0.2
v 3.4 14.2 -0.2
v 1.7 14.2 -0.4
v 3.4 14.2 -0.4
v 0.2 14.2 -1.7
v 0.4 14.2 -1.7
v 4.7 14.2 -1.7
v 4.9 14.2 -1.7
v 0.2 14.2 -3.4
v 0.4 14.2 -3.4
v 4.7 14.2 -3.4
v 4.9 14.2 -3.4
v 1.7 14.2 -4.7
v 3.4 14.2 -4.7
v 1.7 14.2 -4.9
v 3.4 14.2 -4.9
v 0 14.6 0
v 1.7 14.6 0
v 3.4 14.6 0
v 5.1 14.6 0
v 1 14.6 -0.4
v 1.7 14.6 -0.4
v 3.4 14.6 -0.4
v 4.1 14.6 -0.4
v 0.4 14.6 -1
v 1 14.6 -1
v 4.1 14.6 -1
v 4.7 14.6 -1
v 0 14.6 -1.7
v 0.4 14.6 -1.7
v 4.7 14.6 -1.7
v 5.1 14.6 -1.7
v 0 14.6 -3.4
v 0.4 14.6 -3.4
v 4.7 14.6 -3.4
v 5.1 14.6 -3.4
v 0.4 14.6 -4.1
v 1 14.6 -4.1
v 4.1 14.6 -4.1
v 4.7 14.6 -4.1
v 1 14.6 -4.7
v 1.7 14.6 -4.7
v 3.4 14.6 -4.7
v 4.1 14.6 -4.7
v 0 14.6 -5.1
v 1.7 14.6 -5.1
v 3.4 14.6 -5.1
v 5.1 14.6 -5.1

# faces
f 5/3/1 2/3/1 1/3/1
f 6/3/1 2/3/1 5/3/1
f 7/3/1 4/3/1 3/3/1
f 8/3/1 4/3/1 7/3/1
f 9/2/1 6/2/1 5/2/1
f 10/2/1 6/2/1 9/2/1
f 11/2/1 8/2/1 7/2/1
f 12/2/1 8/2/1 11/2/1
f 15/1/1 14/1/1 13/1/1
f 16/1/1 14/1/1 15/1/1
f 19/3/1 18/3/1 17/3/1
f 20/3/1 18/3/1 19/3/1
f 21/2/1 20/2/1 19/2/1
f 22/2/1 20/2/1 21/2/1
f 23/2/1 22/2/1 21/2/1
f 24/2/1 22/2/1 23/2/1
f 29/3/1 26/3/1 25/3/1
f 30/3/1 28/3/1 27/3/1
f 31/3/1 29/3/1 25/3/1
f 31/3/1 30/3/1 29/3/1
f 32/3/1 30/3/1 31/3/1
f 33/3/1 28/3/1 30/3/1
f 33/3/1 30/3/1 32/3/1
f 34/3/1 28/3/1 33/3/1
f 35/3/1 33/3/1 32/3/1
f 36/3/1 33/3/1 35/3/1
f 41/3/1 38/3/1 37/3/1
f 42/3/1 38/3/1 41/3/1
f 43/3/1 40/3/1 39/3/1
f 44/3/1 40/3/1 43/3/1
f 45/3/1 41/3/1 37/3/1
f 46/3/1 40/3/1 44/3/1
f 47/3/1 45/3/1 37/3/1
f 48/3/1 45/3/1 47/3/1
f 49/3/1 40/3/1 46/3/1
f 50/3/1 40/3/1 49/3/1
f 51/2/1 48/2/1 47/2/1
f 54/2/1 50/2/1 49/2/1
f 55/2/1 52/2/1 51/2/1
f 55/2/1 51/2/1 47/2/1
f 56/2/1 52/2/1 55/2/1
f 57/2/1 54/2/1 53/2/1
f 58/2/1 50/2/1 54/2/1
f 58/2/1 54/2/1 57/2/1
f 63/3/1 60/3/1 59/3/1
f 64/3/1 60/3/1 63/3/1
f 65/3/1 62/3/1 61/3/1
f 66/3/1 62/3/1 65/3/1
f 67/2/1 64/2/1 63/2/1
f 68/2/1 64/2/1 67/2/1
f 69/2/1 66/2/1 65/2/1
f 70/2/1 66/2/1 69/2/1
f 73/3/1 72/3/1 71/3/1
f 74/3/1 72/3/1 73/3/1
f 75/2/1 74/2/1 73/2/1
f 76/2/1 74/2/1 75/2/1
f 77/2/1 75/2/1 73/2/1
f 78/2/1 75/2/1 77/2/1
f 79/2/1 74/2/1 76/2/1
f 80/2/1 74/2/1 79/2/1
f 81/3/2 82/3/2 83/3/2
f 83/3/2 82/3/2 84/3/2
f 83/2/2 84/2/2 85/2/2
f 85/2/2 84/2/2 86/2/2
f 83/2/2 85/2/2 87/2/2
f 87/2/2 85/2/2 88/2/2
f 86/2/2 84/2/2 89/2/2
f 89/2/2 84/2/2 90/2/2
f 91/3/2 92/3/2 95/3/2
f 95/3/2 92/3/2 96/3/2
f 93/3/2 94/3/2 97/3/2
f 97/3/2 94/3/2 98/3/2
f 95/2/2 96/2/2 99/2/2
f 99/2/2 96/2/2 100/2/2
f 97/2/2 98/2/2 101/2/2
f 101/2/2 98/2/2 102/2/2
f 103/3/2 104/3/2 107/3/2
f 107/3/2 104/3/2 108/3/2
f 105/3/2 106/3/2 109/3/2
f 109/3/2 106/3/2 110/3/2
f 103/3/2 107/3/2 111/3/2
f 110/3/2 106/3/2 112/3/2
f 103/3/2 111/3/2 113/3/2
f 113/3/2 111/3/2 114/3/2
f 112/3/2 106/3/2 115/3/2
f 115/3/2 106/3/2 116/3/2
f 113/2/2 114/2/2 117/2/2
f 115/2/2 116/2/2 120/2/2
f 117/2/2 118/2/2 121/2/2
f 113/2/2 117/2/2 121/2/2
f 121/2/2 118/2/2 122/2/2
f 119/2/2 120/2/2 123/2/2
f 120/2/2 116/2/2 124/2/2
f 123/2/2 120/2/2 124/2/2
f 125/3/2 126/3/2 129/3/2
f 127/3/2 128/3/2 130/3/2
f 125/3/2 129/3/2 131/3/2
f 129/3/2 130/3/2 131/3/2
f 131/3/2 130/3/2 132/3/2
f 130/3/2 128/3/2 133/3/2
f 132/3/2 130/3/2 133/3/2
f 133/3/2 128/3/2 134/3/2
f 132/3/2 133/3/2 135/3/2
f 135/3/2 133/3/2 136/3/2
f 137/3/2 138/3/2 139/3/2
f 139/3/2 138/3/2 140/3/2
f 139/2/2 140/2/2 141/2/2
f 141/2/2 140/2/2 142/2/2
f 141/2/2 142/2/2 143/2/2
f 143/2/2 142/2/2 144/2/2
f 145/1/2 146/1/2 147/1/2
f 147/1/2 146/1/2 148/1/2
f 149/3/2 150/3/2 153/3/2
f 153/3/2 150/3/2 154/3/2
f 151/3/2 152/3/2 155/3/2
f 155/3/2 152/3/2 156/3/2
f 153/2/2 154/2/2 157/2/2
f 157/2/2 154/2/2 158/2/2
f 155/2/2 156/2/2 159/2/2
f 159/2/2 156/2/2 160/2/2
f 164/3/3 162/3/3 161/3/3
f 165/2/3 163/2/3 162/2/3
f 165/3/3 162/3/3 164/3/3
f 166/2/3 163/2/3 165/2/3
f 170/3/3 168/3/3 167/3/3
f 171/2/3 169/2/3 168/2/3
f 171/3/3 168/3/3 170/3/3
f 172/2/3 169/2/3 171/2/3
f 177/3/3 174/3/3 173/3/3
f 178/2/3 176/2/3 175/2/3
f 178/3/3 174/3/3 177/3/3
f 178/2/3 175/2/3 174/2/3
f 179/2/3 176/2/3 178/2/3
f 180/2/3 176/2/3 179/2/3
f 183/3/3 182/3/3 181/3/3
f 185/3/3 183/3/3 181/3/3
f 185/3/3 184/3/3 183/3/3
f 186/3/3 184/3/3 185/3/3
f 187/3/3 185/3/3 181/3/3
f 188/3/3 185/3/3 187/3/3
f 191/1/3 190/1/3 189/1/3
f 192/1/3 190/1/3 191/1/3
f 195/1/3 194/1/3 193/1/3
f 196/1/3 194/1/3 195/1/3
f 200/3/3 198/3/3 197/3/3
f 201/3/3 198/3/3 200/3/3
f 202/2/3 199/2/3 198/2/3
f 202/3/3 198/3/3 201/3/3
f 203/2/3 199/2/3 202/2/3
f 204/3/3 200/3/3 197/3/3
f 205/3/3 200/3/3 204/3/3
f 206/2/3 199/2/3 203/2/3
f 207/2/3 199/2/3 206/2/3
f 212/3/3 209/3/3 208/3/3
f 215/2/3 211/2/3 210/2/3
f 216/3/3 214/3/3 213/3/3
f 216/3/3 212/3/3 208/3/3
f 216/3/3 213/3/3 212/3/3
f 217/2/3 215/2/3 214/2/3
f 217/3/3 214/3/3 216/3/3
f 218/2/3 211/2/3 215/2/3
f 218/2/3 215/2/3 217/2/3
f 222/3/3 220/3/3 219/3/3
f 223/2/3 221/2/3 220/2/3
f 223/3/3 220/3/3 222/3/3
f 224/2/3 221/2/3 223/2/3
f 228/3/3 226/3/3 225/3/3
f 229/2/3 227/2/3 226/2/3
f 229/3/3 226/3/3 228/3/3
f 230/2/3 227/2/3 229/2/3
f 234/3/3 232/3/3 231/3/3
f 234/2/3 233/2/3 232/2/3
f 235/2/3 233/2/3 234/2/3
f 236/2/3 233/2/3 235/2/3
f 237/2/3 233/2/3 236/2/3
f 238/3/3 234/3/3 231/3/3
f 238/3/3 235/3/3 234/3/3
f 239/2/3 236/2/3 235/2/3
f 239/3/3 235/3/3 238/3/3
f 240/2/3 236/2/3 239/2/3
f 242/3/3 238/3/3 231/3/3
f 243/2/3 241/2/3 240/2/3
f 243/3/3 238/3/3 242/3/3
f 243/2/3 239/2/3 238/2/3
f 243/2/3 240/2/3 239/2/3
f 244/2/3 241/2/3 243/2/3
f 245/3/4 246/3/4 248/3/4
f 246/2/4 247/2/4 248/2/4
f 248/2/4 247/2/4 249/2/4
f 249/2/4 247/2/4 250/2/4
f 250/2/4 247/2/4 251/2/4
f 245/3/4 248/3/4 252/3/4
f 248/3/4 249/3/4 252/3/4
f 249/2/4 250/2/4 253/2/4
f 252/3/4 249/3/4 253/3/4
f 253/2/4 250/2/4 254/2/4
f 245/3/4 252/3/4 256/3/4
f 254/2/4 255/2/4 257/2/4
f 256/3/4 252/3/4 257/3/4
f 252/2/4 253/2/4 257/2/4
f 253/2/4 254/2/4 257/2/4
f 257/2/4 255/2/4 258/2/4
f 259/3/4 260/3/4 262/3/4
f 260/2/4 261/2/4 263/2/4
f 262/3/4 260/3/4 263/3/4
f 263/2/4 261/2/4 264/2/4
f 265/3/4 266/3/4 268/3/4
f 266/2/4 267/2/4 269/2/4
f 268/3/4 266/3/4 269/3/4
f 269/2/4 267/2/4 270/2/4
f 271/3/4 272/3/4 274/3/4
f 274/3/4 272/3/4 275/3/4
f 272/2/4 273/2/4 276/2/4
f 275/3/4 272/3/4 276/3/4
f 276/2/4 273/2/4 277/2/4
f 271/3/4 274/3/4 278/3/4
f 278/3/4 274/3/4 279/3/4
f 277/2/4 273/2/4 280/2/4
f 280/2/4 273/2/4 281/2/4
f 282/3/4 283/3/4 286/3/4
f 284/2/4 285/2/4 289/2/4
f 287/3/4 288/3/4 290/3/4
f 282/3/4 286/3/4 290/3/4
f 286/3/4 287/3/4 290/3/4
f 288/2/4 289/2/4 291/2/4
f 290/3/4 288/3/4 291/3/4
f 289/2/4 285/2/4 292/2/4
f 291/2/4 289/2/4 292/2/4
f 293/1/4 294/1/4 295/1/4
f 295/1/4 294/1/4 296/1/4
f 297/1/4 298/1/4 299/1/4
f 299/1/4 298/1/4 300/1/4
f 301/3/4 302/3/4 303/3/4
f 301/3/4 303/3/4 305/3/4
f 303/3/4 304/3/4 305/3/4
f 305/3/4 304/3/4 306/3/4
f 301/3/4 305/3/4 307/3/4
f 307/3/4 305/3/4 308/3/4
f 309/3/4 310/3/4 313/3/4
f 311/2/4 312/2/4 314/2/4
f 313/3/4 310/3/4 314/3/4
f 310/2/4 311/2/4 314/2/4
f 314/2/4 312/2/4 315/2/4
f 315/2/4 312/2/4 316/2/4
f 317/3/4 318/3/4 320/3/4
f 318/2/4 319/2/4 321/2/4
f 320/3/4 318/3/4 321/3/4
f 321/2/4 319/2/4 322/2/4
f 323/3/4 324/3/4 326/3/4
f 324/2/4 325/2/4 327/2/4
f 326/3/4 324/3/4 327/3/4
f 327/2/4 325/2/4 328/2/4
f 332/3/5 330/3/5 329/3/5
f 333/3/5 330/3/5 332/3/5
f 335/1/5 332/1/5 331/1/5
f 335/1/5 334/1/5 333/1/5
f 335/1/5 333/1/5 332/1/5
f 336/1/5 334/1/5 335/1/5
f 337/1/5 334/1/5 336/1/5
f 338/1/5 334/1/5 337/1/5
f 339/3/5 337/3/5 336/3/5
f 340/3/5 337/3/5 339/3/5
f 345/3/5 342/3/5 341/3/5
f 346/3/5 342/3/5 345/3/5
f 347/3/5 344/3/5 343/3/5
f 348/3/5 344/3/5 347/3/5
f 349/3/5 345/3/5 341/3/5
f 350/3/5 345/3/5 349/3/5
f 351/3/5 344/3/5 348/3/5
f 352/3/5 344/3/5 351/3/5
f 357/3/5 354/3/5 353/3/5
f 360/3/5 356/3/5 355/3/5
f 361/3/5 358/3/5 357/3/5
f 361/3/5 357/3/5 353/3/5
f 362/3/5 358/3/5 361/3/5
f 363/3/5 360/3/5 359/3/5
f 364/3/5 356/3/5 360/3/5
f 364/3/5 360/3/5 363/3/5
f 367/3/5 366/3/5 365/3/5
f 368/3/5 366/3/5 367/3/5
f 371/3/5 370/3/5 369/3/5
f 372/3/5 370/3/5 371/3/5
f 377/3/5 374/3/5 373/3/5
f 378/3/5 374/3/5 377/3/5
f 379/3/5 376/3/5 375/3/5
f 380/3/5 376/3/5 379/3/5
f 381/1/6 382/1/6 385/1/6
f 385/1/6 382/1/6 386/1/6
f 383/1/6 384/1/6 387/1/6
f 387/1/6 384/1/6 388/1/6
f 389/3/6 390/3/6 392/3/6
f 392/3/6 390/3/6 393/3/6
f 391/3/6 392/3/6 395/3/6
f 393/3/6 394/3/6 395/3/6
f 392/3/6 393/3/6 395/3/6
f 395/3/6 394/3/6 396/3/6
f 396/3/6 394/3/6 397/3/6
f 397/3/6 394/3/6 398/3/6
f 396/3/6 397/3/6 399/3/6
f 399/3/6 397/3/6 400/3/6
f 401/2/6 402/2/6 403/2/6
f 403/2/6 402/2/6 404/2/6
f 405/2/6 406/2/6 409/2/6
f 409/2/6 406/2/6 410/2/6
f 407/2/6 408/2/6 411/2/6
f 411/2/6 408/2/6 412/2/6
f 413/2/6 414/2/6 415/2/6
f 415/2/6 414/2/6 416/2/6
f 417/2/6 418/2/6 421/2/6
f 421/2/6 418/2/6 422/2/6
f 419/2/6 420/2/6 423/2/6
f 423/2/6 420/2/6 424/2/6
f 417/2/6 421/2/6 425/2/6
f 425/2/6 421/2/6 426/2/6
f 424/2/6 420/2/6 427/2/6
f 427/2/6 420/2/6 428/2/6
f 417/2/6 425/2/6 429/2/6
f 429/2/6 425/2/6 430/2/6
f 428/2/6 420/2/6 431/2/6
f 431/2/6 420/2/6 432/2/6
f 433/2/6 434/2/6 437/2/6
f 435/2/6 436/2/6 440/2/6
f 437/2/6 438/2/6 441/2/6
f 439/2/6 440/2/6 444/2/6
f 441/2/6 442/2/6 445/2/6
f 433/2/6 437/2/6 445/2/6
f 437/2/6 441/2/6 445/2/6
f 445/2/6 442/2/6 446/2/6
f 443/2/6 444/2/6 447/2/6
f 444/2/6 440/2/6 448/2/6
f 447/2/6 444/2/6 448/2/6
f 440/2/6 436/2/6 448/2/6
