# MagicaVoxel @ Ephtracy

# group
o 

# material
mtllib dywan dr.mtl
usemtl palette

# normals
vn -1 0 0
vn 1 0 0
vn 0 0 1
vn 0 0 -1
vn 0 -1 0
vn 0 1 0

# texcoords
vt 0.482422 0.5
vt 0.845703 0.5

# verts
v 2.7 2 0
v 2.7 2 -5.6
v 2.7 2.1 0
v 2.7 2.1 -5.6
v 5.3 2 0
v 5.3 2 -3
v 5.3 2.1 0
v 5.3 2.1 -3
v 8 2 -3
v 8 2 -3.2
v 8 2 -3.4
v 8 2 -5.2
v 8 2 -5.4
v 8 2 -5.6
v 8 2.1 -3
v 8 2.1 -3.2
v 8 2.1 -3.4
v 8 2.1 -5.2
v 8 2.1 -5.4
v 8 2.1 -5.6
v 2.7 2 0
v 2.7 2.1 0
v 2.9 2 0
v 2.9 2.1 0
v 3.1 2 0
v 3.1 2.1 0
v 4.9 2 0
v 4.9 2.1 0
v 5.1 2 0
v 5.1 2.1 0
v 5.3 2 0
v 5.3 2.1 0
v 5.3 2 -3
v 5.3 2.1 -3
v 8 2 -3
v 8 2.1 -3
v 2.7 2 -5.6
v 2.7 2.1 -5.6
v 8 2 -5.6
v 8 2.1 -5.6
v 2.7 2 0
v 2.9 2 0
v 3.1 2 0
v 4.9 2 0
v 5.1 2 0
v 5.3 2 0
v 5.3 2 -3
v 8 2 -3
v 5.1 2 -3.2
v 8 2 -3.2
v 4.9 2 -3.4
v 8 2 -3.4
v 3.1 2 -5.2
v 8 2 -5.2
v 2.9 2 -5.4
v 8 2 -5.4
v 2.7 2 -5.6
v 8 2 -5.6
v 2.7 2.1 0
v 2.9 2.1 0
v 3.1 2.1 0
v 4.9 2.1 0
v 5.1 2.1 0
v 5.3 2.1 0
v 5.3 2.1 -3
v 8 2.1 -3
v 5.1 2.1 -3.2
v 8 2.1 -3.2
v 4.9 2.1 -3.4
v 8 2.1 -3.4
v 3.1 2.1 -5.2
v 8 2.1 -5.2
v 2.9 2.1 -5.4
v 8 2.1 -5.4
v 2.7 2.1 -5.6
v 8 2.1 -5.6

# faces
f 3/2/1 2/2/1 1/2/1
f 4/2/1 2/2/1 3/2/1
f 5/2/2 6/2/2 7/2/2
f 7/2/2 6/2/2 8/2/2
f 9/2/2 10/2/2 15/2/2
f 10/1/2 11/1/2 16/1/2
f 15/2/2 10/2/2 16/2/2
f 11/2/2 12/2/2 17/2/2
f 16/1/2 11/1/2 17/1/2
f 12/1/2 13/1/2 18/1/2
f 17/2/2 12/2/2 18/2/2
f 13/2/2 14/2/2 19/2/2
f 18/1/2 13/1/2 19/1/2
f 19/2/2 14/2/2 20/2/2
f 23/2/3 22/2/3 21/2/3
f 24/2/3 22/2/3 23/2/3
f 25/1/3 24/1/3 23/1/3
f 26/1/3 24/1/3 25/1/3
f 27/2/3 26/2/3 25/2/3
f 28/2/3 26/2/3 27/2/3
f 29/1/3 28/1/3 27/1/3
f 30/1/3 28/1/3 29/1/3
f 31/2/3 30/2/3 29/2/3
f 32/2/3 30/2/3 31/2/3
f 35/2/3 34/2/3 33/2/3
f 36/2/3 34/2/3 35/2/3
f 37/2/4 38/2/4 39/2/4
f 39/2/4 38/2/4 40/2/4
f 47/2/5 46/2/5 45/2/5
f 49/1/5 45/1/5 44/1/5
f 49/2/5 48/2/5 47/2/5
f 49/2/5 47/2/5 45/2/5
f 50/2/5 48/2/5 49/2/5
f 51/2/5 44/2/5 43/2/5
f 51/1/5 49/1/5 44/1/5
f 51/1/5 50/1/5 49/1/5
f 52/1/5 50/1/5 51/1/5
f 53/1/5 43/1/5 42/1/5
f 53/2/5 51/2/5 43/2/5
f 53/2/5 52/2/5 51/2/5
f 54/2/5 52/2/5 53/2/5
f 55/2/5 42/2/5 41/2/5
f 55/1/5 53/1/5 42/1/5
f 55/1/5 54/1/5 53/1/5
f 56/1/5 54/1/5 55/1/5
f 57/2/5 55/2/5 41/2/5
f 57/2/5 56/2/5 55/2/5
f 58/2/5 56/2/5 57/2/5
f 63/2/6 64/2/6 65/2/6
f 62/1/6 63/1/6 67/1/6
f 65/2/6 66/2/6 67/2/6
f 63/2/6 65/2/6 67/2/6
f 67/2/6 66/2/6 68/2/6
f 61/2/6 62/2/6 69/2/6
f 62/1/6 67/1/6 69/1/6
f 67/1/6 68/1/6 69/1/6
f 69/1/6 68/1/6 70/1/6
f 60/1/6 61/1/6 71/1/6
f 61/2/6 69/2/6 71/2/6
f 69/2/6 70/2/6 71/2/6
f 71/2/6 70/2/6 72/2/6
f 59/2/6 60/2/6 73/2/6
f 60/1/6 71/1/6 73/1/6
f 71/1/6 72/1/6 73/1/6
f 73/1/6 72/1/6 74/1/6
f 59/2/6 73/2/6 75/2/6
f 73/2/6 74/2/6 75/2/6
f 75/2/6 74/2/6 76/2/6
