# MagicaVoxel @ Ephtracy

# group
o 

# material
mtllib p3.mtl
usemtl palette

# normals
vn -1 0 0
vn 1 0 0
vn 0 0 1
vn 0 0 -1
vn 0 -1 0
vn 0 1 0

# texcoords
vt 0.302734 0.5
vt 0.650391 0.5

# verts
v 0 2.1 -0.8
v 0 2.1 -3.6
v 0 2.2 -0.8
v 0 2.2 -3.6
v 0.1 2 -0.9
v 0.1 2 -3.5
v 0.1 2.1 -0.9
v 0.1 2.1 -3.5
v 1.3 2 -0.9
v 1.3 2 -2.1
v 1.3 2.1 -0.9
v 1.3 2.1 -2.1
v 1.4 2.1 -0.8
v 1.4 2.1 -2
v 1.4 2.2 -0.8
v 1.4 2.2 -2
v 3.9 2 -2.1
v 3.9 2 -3.5
v 3.9 2.1 -2.1
v 3.9 2.1 -3.5
v 4 2.1 -2
v 4 2.1 -3.6
v 4 2.2 -2
v 4 2.2 -3.6
v 0 2.1 -0.8
v 0 2.2 -0.8
v 1.4 2.1 -0.8
v 1.4 2.2 -0.8
v 0.1 2 -0.9
v 0.1 2.1 -0.9
v 1.3 2 -0.9
v 1.3 2.1 -0.9
v 1.4 2.1 -2
v 1.4 2.2 -2
v 4 2.1 -2
v 4 2.2 -2
v 1.3 2 -2.1
v 1.3 2.1 -2.1
v 3.9 2 -2.1
v 3.9 2.1 -2.1
v 0.1 2 -3.5
v 0.1 2.1 -3.5
v 3.9 2 -3.5
v 3.9 2.1 -3.5
v 0 2.1 -3.6
v 0 2.2 -3.6
v 4 2.1 -3.6
v 4 2.2 -3.6
v 0.1 2 -0.9
v 1.3 2 -0.9
v 1.3 2 -2.1
v 3.9 2 -2.1
v 0.1 2 -3.5
v 3.9 2 -3.5
v 0 2.1 -0.8
v 1.4 2.1 -0.8
v 0.1 2.1 -0.9
v 1.3 2.1 -0.9
v 1.4 2.1 -2
v 4 2.1 -2
v 1.3 2.1 -2.1
v 3.9 2.1 -2.1
v 0.1 2.1 -3.5
v 3.9 2.1 -3.5
v 0 2.1 -3.6
v 4 2.1 -3.6
v 0 2.2 -0.8
v 1.4 2.2 -0.8
v 1.4 2.2 -2
v 4 2.2 -2
v 0 2.2 -3.6
v 4 2.2 -3.6

# faces
f 3/2/1 2/2/1 1/2/1
f 4/2/1 2/2/1 3/2/1
f 7/1/1 6/1/1 5/1/1
f 8/1/1 6/1/1 7/1/1
f 9/1/2 10/1/2 11/1/2
f 11/1/2 10/1/2 12/1/2
f 13/2/2 14/2/2 15/2/2
f 15/2/2 14/2/2 16/2/2
f 17/1/2 18/1/2 19/1/2
f 19/1/2 18/1/2 20/1/2
f 21/2/2 22/2/2 23/2/2
f 23/2/2 22/2/2 24/2/2
f 27/2/3 26/2/3 25/2/3
f 28/2/3 26/2/3 27/2/3
f 31/1/3 30/1/3 29/1/3
f 32/1/3 30/1/3 31/1/3
f 35/2/3 34/2/3 33/2/3
f 36/2/3 34/2/3 35/2/3
f 39/1/3 38/1/3 37/1/3
f 40/1/3 38/1/3 39/1/3
f 41/1/4 42/1/4 43/1/4
f 43/1/4 42/1/4 44/1/4
f 45/2/4 46/2/4 47/2/4
f 47/2/4 46/2/4 48/2/4
f 51/1/5 50/1/5 49/1/5
f 53/1/5 51/1/5 49/1/5
f 53/1/5 52/1/5 51/1/5
f 54/1/5 52/1/5 53/1/5
f 57/2/5 56/2/5 55/2/5
f 58/2/5 56/2/5 57/2/5
f 59/2/5 56/2/5 58/2/5
f 61/2/5 59/2/5 58/2/5
f 61/2/5 60/2/5 59/2/5
f 62/2/5 60/2/5 61/2/5
f 63/2/5 57/2/5 55/2/5
f 64/2/5 60/2/5 62/2/5
f 65/2/5 63/2/5 55/2/5
f 65/2/5 64/2/5 63/2/5
f 66/2/5 60/2/5 64/2/5
f 66/2/5 64/2/5 65/2/5
f 67/2/6 68/2/6 69/2/6
f 67/2/6 69/2/6 71/2/6
f 69/2/6 70/2/6 71/2/6
f 71/2/6 70/2/6 72/2/6
