# MagicaVoxel @ Ephtracy

# group
o 

# material
mtllib dzban 2.mtl
usemtl palette

# normals
vn -1 0 0
vn 1 0 0
vn 0 0 1
vn 0 0 -1
vn 0 -1 0
vn 0 1 0

# texcoords
vt 0.107422 0.5
vt 0.224609 0.5
vt 0.310547 0.5
vt 0.326172 0.5
vt 0.361328 0.5

# verts
v 0 0.9 0
v 0 0.9 -1.2
v 0 1 0
v 0 1 -1.2
v 0.1 0.7 -0.1
v 0.1 0.7 -1.1
v 0.1 0.8 -0.1
v 0.1 0.8 -1.1
v 0.1 0.9 -0.1
v 0.1 0.9 -1.1
v 0.1 1 -0.1
v 0.1 1 -1.1
v 0.1 1.1 -0.1
v 0.1 1.1 -1.1
v 0.1 1.2 -0.1
v 0.1 1.2 -1.1
v 0.2 0.5 -0.2
v 0.2 0.5 -1
v 0.2 0.6 -0.2
v 0.2 0.6 -1
v 0.2 0.7 -0.2
v 0.2 0.7 -1
v 0.2 1.2 -0.2
v 0.2 1.2 -1
v 0.2 1.3 -0.2
v 0.2 1.3 -1
v 0.2 1.7 -0.2
v 0.2 1.7 -1
v 0.2 1.8 -0.2
v 0.2 1.8 -1
v 0.2 1.9 -0.2
v 0.2 1.9 -1
v 0.3 0.4 -0.3
v 0.3 0.4 -0.9
v 0.3 0.5 -0.3
v 0.3 0.5 -0.9
v 0.3 1.3 -0.3
v 0.3 1.3 -0.9
v 0.3 1.4 -0.3
v 0.3 1.4 -0.9
v 0.3 1.5 -0.3
v 0.3 1.5 -0.9
v 0.3 1.6 -0.3
v 0.3 1.6 -0.9
v 0.3 1.7 -0.3
v 0.3 1.7 -0.9
v 0.8 1.8 -0.4
v 0.8 1.8 -0.8
v 0.8 1.9 -0.4
v 0.8 1.9 -0.8
v 0.4 1.8 -0.4
v 0.4 1.8 -0.8
v 0.4 1.9 -0.4
v 0.4 1.9 -0.8
v 0.9 0.4 -0.3
v 0.9 0.4 -0.9
v 0.9 0.5 -0.3
v 0.9 0.5 -0.9
v 0.9 1.3 -0.3
v 0.9 1.3 -0.9
v 0.9 1.4 -0.3
v 0.9 1.4 -0.9
v 0.9 1.5 -0.3
v 0.9 1.5 -0.9
v 0.9 1.6 -0.3
v 0.9 1.6 -0.9
v 0.9 1.7 -0.3
v 0.9 1.7 -0.9
v 1 0.5 -0.2
v 1 0.5 -1
v 1 0.6 -0.2
v 1 0.6 -1
v 1 0.7 -0.2
v 1 0.7 -1
v 1 1.2 -0.2
v 1 1.2 -1
v 1 1.3 -0.2
v 1 1.3 -1
v 1 1.7 -0.2
v 1 1.7 -1
v 1 1.8 -0.2
v 1 1.8 -1
v 1 1.9 -0.2
v 1 1.9 -1
v 1.1 0.7 -0.1
v 1.1 0.7 -1.1
v 1.1 0.8 -0.1
v 1.1 0.8 -1.1
v 1.1 0.9 -0.1
v 1.1 0.9 -1.1
v 1.1 1 -0.1
v 1.1 1 -1.1
v 1.1 1.1 -0.1
v 1.1 1.1 -1.1
v 1.1 1.2 -0.1
v 1.1 1.2 -1.1
v 1.2 0.9 0
v 1.2 0.9 -1.2
v 1.2 1 0
v 1.2 1 -1.2
v 0 0.9 0
v 0 1 0
v 1.2 0.9 0
v 1.2 1 0
v 0.1 0.7 -0.1
v 0.1 0.8 -0.1
v 0.1 0.9 -0.1
v 0.1 1 -0.1
v 0.1 1.1 -0.1
v 0.1 1.2 -0.1
v 1.1 0.7 -0.1
v 1.1 0.8 -0.1
v 1.1 0.9 -0.1
v 1.1 1 -0.1
v 1.1 1.1 -0.1
v 1.1 1.2 -0.1
v 0.2 0.5 -0.2
v 0.2 0.6 -0.2
v 0.2 0.7 -0.2
v 0.2 1.2 -0.2
v 0.2 1.3 -0.2
v 0.2 1.7 -0.2
v 0.2 1.8 -0.2
v 0.2 1.9 -0.2
v 1 0.5 -0.2
v 1 0.6 -0.2
v 1 0.7 -0.2
v 1 1.2 -0.2
v 1 1.3 -0.2
v 1 1.7 -0.2
v 1 1.8 -0.2
v 1 1.9 -0.2
v 0.3 0.4 -0.3
v 0.3 0.5 -0.3
v 0.3 1.3 -0.3
v 0.3 1.4 -0.3
v 0.3 1.5 -0.3
v 0.3 1.6 -0.3
v 0.3 1.7 -0.3
v 0.9 0.4 -0.3
v 0.9 0.5 -0.3
v 0.9 1.3 -0.3
v 0.9 1.4 -0.3
v 0.9 1.5 -0.3
v 0.9 1.6 -0.3
v 0.9 1.7 -0.3
v 0.4 1.8 -0.8
v 0.4 1.9 -0.8
v 0.8 1.8 -0.8
v 0.8 1.9 -0.8
v 0.4 1.8 -0.4
v 0.4 1.9 -0.4
v 0.8 1.8 -0.4
v 0.8 1.9 -0.4
v 0.3 0.4 -0.9
v 0.3 0.5 -0.9
v 0.3 1.3 -0.9
v 0.3 1.4 -0.9
v 0.3 1.5 -0.9
v 0.3 1.6 -0.9
v 0.3 1.7 -0.9
v 0.9 0.4 -0.9
v 0.9 0.5 -0.9
v 0.9 1.3 -0.9
v 0.9 1.4 -0.9
v 0.9 1.5 -0.9
v 0.9 1.6 -0.9
v 0.9 1.7 -0.9
v 0.2 0.5 -1
v 0.2 0.6 -1
v 0.2 0.7 -1
v 0.2 1.2 -1
v 0.2 1.3 -1
v 0.2 1.7 -1
v 0.2 1.8 -1
v 0.2 1.9 -1
v 1 0.5 -1
v 1 0.6 -1
v 1 0.7 -1
v 1 1.2 -1
v 1 1.3 -1
v 1 1.7 -1
v 1 1.8 -1
v 1 1.9 -1
v 0.1 0.7 -1.1
v 0.1 0.8 -1.1
v 0.1 0.9 -1.1
v 0.1 1 -1.1
v 0.1 1.1 -1.1
v 0.1 1.2 -1.1
v 1.1 0.7 -1.1
v 1.1 0.8 -1.1
v 1.1 0.9 -1.1
v 1.1 1 -1.1
v 1.1 1.1 -1.1
v 1.1 1.2 -1.1
v 0 0.9 -1.2
v 0 1 -1.2
v 1.2 0.9 -1.2
v 1.2 1 -1.2
v 0.3 0.4 -0.3
v 0.9 0.4 -0.3
v 0.3 0.4 -0.9
v 0.9 0.4 -0.9
v 0.2 0.5 -0.2
v 1 0.5 -0.2
v 0.3 0.5 -0.3
v 0.9 0.5 -0.3
v 0.3 0.5 -0.9
v 0.9 0.5 -0.9
v 0.2 0.5 -1
v 1 0.5 -1
v 0.1 0.7 -0.1
v 1.1 0.7 -0.1
v 0.2 0.7 -0.2
v 1 0.7 -0.2
v 0.2 0.7 -1
v 1 0.7 -1
v 0.1 0.7 -1.1
v 1.1 0.7 -1.1
v 0 0.9 0
v 1.2 0.9 0
v 0.1 0.9 -0.1
v 1.1 0.9 -0.1
v 0.1 0.9 -1.1
v 1.1 0.9 -1.1
v 0 0.9 -1.2
v 1.2 0.9 -1.2
v 0.2 1.7 -0.2
v 1 1.7 -0.2
v 0.3 1.7 -0.3
v 0.9 1.7 -0.3
v 0.3 1.7 -0.9
v 0.9 1.7 -0.9
v 0.2 1.7 -1
v 1 1.7 -1
v 0 1 0
v 1.2 1 0
v 0.1 1 -0.1
v 1.1 1 -0.1
v 0.1 1 -1.1
v 1.1 1 -1.1
v 0 1 -1.2
v 1.2 1 -1.2
v 0.1 1.2 -0.1
v 1.1 1.2 -0.1
v 0.2 1.2 -0.2
v 1 1.2 -0.2
v 0.2 1.2 -1
v 1 1.2 -1
v 0.1 1.2 -1.1
v 1.1 1.2 -1.1
v 0.2 1.3 -0.2
v 1 1.3 -0.2
v 0.3 1.3 -0.3
v 0.9 1.3 -0.3
v 0.3 1.3 -0.9
v 0.9 1.3 -0.9
v 0.2 1.3 -1
v 1 1.3 -1
v 0.4 1.8 -0.4
v 0.8 1.8 -0.4
v 0.4 1.8 -0.8
v 0.8 1.8 -0.8
v 0.2 1.9 -0.2
v 1 1.9 -0.2
v 0.3 1.9 -0.3
v 0.9 1.9 -0.3
v 0.4 1.9 -0.4
v 0.8 1.9 -0.4
v 0.4 1.9 -0.8
v 0.8 1.9 -0.8
v 0.3 1.9 -0.9
v 0.9 1.9 -0.9
v 0.2 1.9 -1
v 1 1.9 -1

# faces
f 3/4/1 2/4/1 1/4/1
f 4/4/1 2/4/1 3/4/1
f 7/2/1 6/2/1 5/2/1
f 8/2/1 6/2/1 7/2/1
f 9/5/1 8/5/1 7/5/1
f 10/5/1 8/5/1 9/5/1
f 13/5/1 12/5/1 11/5/1
f 14/5/1 12/5/1 13/5/1
f 15/2/1 14/2/1 13/2/1
f 16/2/1 14/2/1 15/2/1
f 19/4/1 18/4/1 17/4/1
f 20/4/1 18/4/1 19/4/1
f 21/5/1 20/5/1 19/5/1
f 22/5/1 20/5/1 21/5/1
f 25/5/1 24/5/1 23/5/1
f 26/5/1 24/5/1 25/5/1
f 29/2/1 28/2/1 27/2/1
f 30/2/1 28/2/1 29/2/1
f 31/4/1 30/4/1 29/4/1
f 32/4/1 30/4/1 31/4/1
f 35/2/1 34/2/1 33/2/1
f 36/2/1 34/2/1 35/2/1
f 39/4/1 38/4/1 37/4/1
f 40/4/1 38/4/1 39/4/1
f 41/2/1 40/2/1 39/2/1
f 42/2/1 40/2/1 41/2/1
f 43/4/1 42/4/1 41/4/1
f 44/4/1 42/4/1 43/4/1
f 45/5/1 44/5/1 43/5/1
f 46/5/1 44/5/1 45/5/1
f 49/5/1 48/5/1 47/5/1
f 50/5/1 48/5/1 49/5/1
f 51/5/2 52/5/2 53/5/2
f 53/5/2 52/5/2 54/5/2
f 55/2/2 56/2/2 57/2/2
f 57/2/2 56/2/2 58/2/2
f 59/4/2 60/4/2 61/4/2
f 61/4/2 60/4/2 62/4/2
f 61/2/2 62/2/2 63/2/2
f 63/2/2 62/2/2 64/2/2
f 63/4/2 64/4/2 65/4/2
f 65/4/2 64/4/2 66/4/2
f 65/5/2 66/5/2 67/5/2
f 67/5/2 66/5/2 68/5/2
f 69/4/2 70/4/2 71/4/2
f 71/4/2 70/4/2 72/4/2
f 71/5/2 72/5/2 73/5/2
f 73/5/2 72/5/2 74/5/2
f 75/5/2 76/5/2 77/5/2
f 77/5/2 76/5/2 78/5/2
f 79/2/2 80/2/2 81/2/2
f 81/2/2 80/2/2 82/2/2
f 81/4/2 82/4/2 83/4/2
f 83/4/2 82/4/2 84/4/2
f 85/2/2 86/2/2 87/2/2
f 87/2/2 86/2/2 88/2/2
f 87/5/2 88/5/2 89/5/2
f 89/5/2 88/5/2 90/5/2
f 91/5/2 92/5/2 93/5/2
f 93/5/2 92/5/2 94/5/2
f 93/2/2 94/2/2 95/2/2
f 95/2/2 94/2/2 96/2/2
f 97/4/2 98/4/2 99/4/2
f 99/4/2 98/4/2 100/4/2
f 103/4/3 102/4/3 101/4/3
f 104/4/3 102/4/3 103/4/3
f 111/2/3 106/2/3 105/2/3
f 112/5/3 107/5/3 106/5/3
f 112/2/3 106/2/3 111/2/3
f 113/5/3 107/5/3 112/5/3
f 114/5/3 109/5/3 108/5/3
f 115/2/3 110/2/3 109/2/3
f 115/5/3 109/5/3 114/5/3
f 116/2/3 110/2/3 115/2/3
f 125/4/3 118/4/3 117/4/3
f 126/5/3 119/5/3 118/5/3
f 126/4/3 118/4/3 125/4/3
f 127/5/3 119/5/3 126/5/3
f 128/5/3 121/5/3 120/5/3
f 129/5/3 121/5/3 128/5/3
f 130/2/3 123/2/3 122/2/3
f 131/4/3 124/4/3 123/4/3
f 131/2/3 123/2/3 130/2/3
f 132/4/3 124/4/3 131/4/3
f 140/2/3 134/2/3 133/2/3
f 141/2/3 134/2/3 140/2/3
f 142/4/3 136/4/3 135/4/3
f 143/2/3 137/2/3 136/2/3
f 143/4/3 136/4/3 142/4/3
f 144/4/3 138/4/3 137/4/3
f 144/2/3 137/2/3 143/2/3
f 145/5/3 139/5/3 138/5/3
f 145/4/3 138/4/3 144/4/3
f 146/5/3 139/5/3 145/5/3
f 149/5/3 148/5/3 147/5/3
f 150/5/3 148/5/3 149/5/3
f 151/5/4 152/5/4 153/5/4
f 153/5/4 152/5/4 154/5/4
f 155/2/4 156/2/4 162/2/4
f 162/2/4 156/2/4 163/2/4
f 157/4/4 158/4/4 164/4/4
f 158/2/4 159/2/4 165/2/4
f 164/4/4 158/4/4 165/4/4
f 159/4/4 160/4/4 166/4/4
f 165/2/4 159/2/4 166/2/4
f 160/5/4 161/5/4 167/5/4
f 166/4/4 160/4/4 167/4/4
f 167/5/4 161/5/4 168/5/4
f 169/4/4 170/4/4 177/4/4
f 170/5/4 171/5/4 178/5/4
f 177/4/4 170/4/4 178/4/4
f 178/5/4 171/5/4 179/5/4
f 172/5/4 173/5/4 180/5/4
f 180/5/4 173/5/4 181/5/4
f 174/2/4 175/2/4 182/2/4
f 175/4/4 176/4/4 183/4/4
f 182/2/4 175/2/4 183/2/4
f 183/4/4 176/4/4 184/4/4
f 185/2/4 186/2/4 191/2/4
f 186/5/4 187/5/4 192/5/4
f 191/2/4 186/2/4 192/2/4
f 192/5/4 187/5/4 193/5/4
f 188/5/4 189/5/4 194/5/4
f 189/2/4 190/2/4 195/2/4
f 194/5/4 189/5/4 195/5/4
f 195/2/4 190/2/4 196/2/4
f 197/4/4 198/4/4 199/4/4
f 199/4/4 198/4/4 200/4/4
f 203/2/5 202/2/5 201/2/5
f 204/2/5 202/2/5 203/2/5
f 207/4/5 206/4/5 205/4/5
f 208/4/5 206/4/5 207/4/5
f 209/4/5 207/4/5 205/4/5
f 210/4/5 206/4/5 208/4/5
f 211/4/5 209/4/5 205/4/5
f 211/4/5 210/4/5 209/4/5
f 212/4/5 206/4/5 210/4/5
f 212/4/5 210/4/5 211/4/5
f 215/2/5 214/2/5 213/2/5
f 216/2/5 214/2/5 215/2/5
f 217/2/5 215/2/5 213/2/5
f 218/2/5 214/2/5 216/2/5
f 219/2/5 217/2/5 213/2/5
f 219/2/5 218/2/5 217/2/5
f 220/2/5 214/2/5 218/2/5
f 220/2/5 218/2/5 219/2/5
f 223/4/5 222/4/5 221/4/5
f 224/4/5 222/4/5 223/4/5
f 225/4/5 223/4/5 221/4/5
f 226/4/5 222/4/5 224/4/5
f 227/4/5 225/4/5 221/4/5
f 227/4/5 226/4/5 225/4/5
f 228/4/5 222/4/5 226/4/5
f 228/4/5 226/4/5 227/4/5
f 231/2/5 230/2/5 229/2/5
f 232/2/5 230/2/5 231/2/5
f 233/2/5 231/2/5 229/2/5
f 234/2/5 230/2/5 232/2/5
f 235/2/5 233/2/5 229/2/5
f 235/2/5 234/2/5 233/2/5
f 236/2/5 230/2/5 234/2/5
f 236/2/5 234/2/5 235/2/5
f 237/4/6 238/4/6 239/4/6
f 239/4/6 238/4/6 240/4/6
f 237/4/6 239/4/6 241/4/6
f 240/4/6 238/4/6 242/4/6
f 237/4/6 241/4/6 243/4/6
f 241/4/6 242/4/6 243/4/6
f 242/4/6 238/4/6 244/4/6
f 243/4/6 242/4/6 244/4/6
f 245/2/6 246/2/6 247/2/6
f 247/2/6 246/2/6 248/2/6
f 245/2/6 247/2/6 249/2/6
f 248/2/6 246/2/6 250/2/6
f 245/2/6 249/2/6 251/2/6
f 249/2/6 250/2/6 251/2/6
f 250/2/6 246/2/6 252/2/6
f 251/2/6 250/2/6 252/2/6
f 253/5/6 254/5/6 255/5/6
f 255/5/6 254/5/6 256/5/6
f 253/5/6 255/5/6 257/5/6
f 256/5/6 254/5/6 258/5/6
f 253/5/6 257/5/6 259/5/6
f 257/5/6 258/5/6 259/5/6
f 258/5/6 254/5/6 260/5/6
f 259/5/6 258/5/6 260/5/6
f 261/3/6 262/3/6 263/3/6
f 263/3/6 262/3/6 264/3/6
f 265/4/6 266/4/6 267/4/6
f 267/4/6 266/4/6 268/4/6
f 267/5/6 268/5/6 269/5/6
f 269/5/6 268/5/6 270/5/6
f 267/5/6 269/5/6 271/5/6
f 270/5/6 268/5/6 272/5/6
f 265/4/6 267/4/6 273/4/6
f 271/5/6 272/5/6 273/5/6
f 267/5/6 271/5/6 273/5/6
f 272/5/6 268/5/6 274/5/6
f 273/5/6 272/5/6 274/5/6
f 268/4/6 266/4/6 274/4/6
f 265/4/6 273/4/6 275/4/6
f 273/4/6 274/4/6 275/4/6
f 274/4/6 266/4/6 276/4/6
f 275/4/6 274/4/6 276/4/6
