# MagicaVoxel @ Ephtracy

# group
o 

# material
mtllib świeczka 2.mtl
usemtl palette

# normals
vn -1 0 0
vn 1 0 0
vn 0 0 1
vn 0 0 -1
vn 0 -1 0
vn 0 1 0

# texcoords
vt 0.404297 0.5
vt 0.423828 0.5
vt 0.431641 0.5
vt 0.482422 0.5
vt 0.994141 0.5

# verts
v 0 1 0
v 0 1 -0.3
v 0 1 -0.8
v 0 1 -1.2
v 0 1.4 0
v 0 1.4 -0.3
v 0 1.4 -0.8
v 0 1.4 -1.2
v 0.4 1.4 -0.4
v 0.4 1.4 -0.8
v 0.4 1.8 -0.4
v 0.4 1.8 -0.8
v 0.4 2.2 -0.4
v 0.4 2.2 -0.8
v 0.4 2.6 -0.4
v 0.4 2.6 -0.8
v 0.5 2.6 -0.5
v 0.5 2.6 -0.7
v 0.5 2.8 -0.5
v 0.5 2.8 -0.7
v 0.7 2.6 -0.5
v 0.7 2.6 -0.7
v 0.7 2.8 -0.5
v 0.7 2.8 -0.7
v 0.8 1.4 -0.4
v 0.8 1.4 -0.8
v 0.8 1.8 -0.4
v 0.8 1.8 -0.8
v 0.8 2.2 -0.4
v 0.8 2.2 -0.8
v 0.8 2.6 -0.4
v 0.8 2.6 -0.8
v 1.2 1 0
v 1.2 1 -0.4
v 1.2 1 -0.8
v 1.2 1 -1.2
v 1.2 1.4 0
v 1.2 1.4 -0.4
v 1.2 1.4 -0.8
v 1.2 1.4 -1.2
v 0 1 0
v 0 1.4 0
v 0.4 1 0
v 0.4 1.4 0
v 0.8 1 0
v 0.8 1.4 0
v 1.2 1 0
v 1.2 1.4 0
v 0.4 1.4 -0.4
v 0.4 1.8 -0.4
v 0.4 2.2 -0.4
v 0.4 2.6 -0.4
v 0.8 1.4 -0.4
v 0.8 1.8 -0.4
v 0.8 2.2 -0.4
v 0.8 2.6 -0.4
v 0.5 2.6 -0.5
v 0.5 2.8 -0.5
v 0.7 2.6 -0.5
v 0.7 2.8 -0.5
v 0.5 2.6 -0.7
v 0.5 2.8 -0.7
v 0.7 2.6 -0.7
v 0.7 2.8 -0.7
v 0.4 1.4 -0.8
v 0.4 1.8 -0.8
v 0.4 2.2 -0.8
v 0.4 2.6 -0.8
v 0.8 1.4 -0.8
v 0.8 1.8 -0.8
v 0.8 2.2 -0.8
v 0.8 2.6 -0.8
v 0 1 -1.2
v 0 1.4 -1.2
v 0.4 1 -1.2
v 0.4 1.4 -1.2
v 0.8 1 -1.2
v 0.8 1.4 -1.2
v 1.2 1 -1.2
v 1.2 1.4 -1.2
v 0 1 0
v 0.4 1 0
v 0.8 1 0
v 1.2 1 0
v 0 1 -0.3
v 0.4 1 -0.3
v 0.8 1 -0.4
v 1.2 1 -0.4
v 0 1 -0.8
v 0.4 1 -0.8
v 0.8 1 -0.8
v 1.2 1 -0.8
v 0 1 -1.2
v 0.4 1 -1.2
v 0.8 1 -1.2
v 1.2 1 -1.2
v 0 1.4 0
v 0.4 1.4 0
v 0.8 1.4 0
v 1.2 1.4 0
v 0 1.4 -0.3
v 0.4 1.4 -0.3
v 0.4 1.4 -0.4
v 0.8 1.4 -0.4
v 1.2 1.4 -0.4
v 0 1.4 -0.8
v 0.4 1.4 -0.8
v 0.8 1.4 -0.8
v 1.2 1.4 -0.8
v 0 1.4 -1.2
v 0.4 1.4 -1.2
v 0.8 1.4 -1.2
v 1.2 1.4 -1.2
v 0.4 2.6 -0.4
v 0.8 2.6 -0.4
v 0.5 2.6 -0.5
v 0.7 2.6 -0.5
v 0.5 2.6 -0.7
v 0.7 2.6 -0.7
v 0.4 2.6 -0.8
v 0.8 2.6 -0.8
v 0.5 2.8 -0.5
v 0.7 2.8 -0.5
v 0.5 2.8 -0.7
v 0.7 2.8 -0.7

# faces
f 5/2/1 2/2/1 1/2/1
f 6/1/1 3/1/1 2/1/1
f 6/2/1 2/2/1 5/2/1
f 7/3/1 4/3/1 3/3/1
f 7/1/1 3/1/1 6/1/1
f 8/3/1 4/3/1 7/3/1
f 11/1/1 10/1/1 9/1/1
f 12/1/1 10/1/1 11/1/1
f 13/2/1 12/2/1 11/2/1
f 14/2/1 12/2/1 13/2/1
f 15/4/1 14/4/1 13/4/1
f 16/4/1 14/4/1 15/4/1
f 19/5/1 18/5/1 17/5/1
f 20/5/1 18/5/1 19/5/1
f 21/5/2 22/5/2 23/5/2
f 23/5/2 22/5/2 24/5/2
f 25/1/2 26/1/2 27/1/2
f 27/1/2 26/1/2 28/1/2
f 27/2/2 28/2/2 29/2/2
f 29/2/2 28/2/2 30/2/2
f 29/4/2 30/4/2 31/4/2
f 31/4/2 30/4/2 32/4/2
f 33/4/2 34/4/2 37/4/2
f 34/2/2 35/2/2 38/2/2
f 37/4/2 34/4/2 38/4/2
f 35/3/2 36/3/2 39/3/2
f 38/2/2 35/2/2 39/2/2
f 39/3/2 36/3/2 40/3/2
f 43/2/3 42/2/3 41/2/3
f 44/2/3 42/2/3 43/2/3
f 45/3/3 44/3/3 43/3/3
f 46/3/3 44/3/3 45/3/3
f 47/4/3 46/4/3 45/4/3
f 48/4/3 46/4/3 47/4/3
f 53/1/3 50/1/3 49/1/3
f 54/2/3 51/2/3 50/2/3
f 54/1/3 50/1/3 53/1/3
f 55/4/3 52/4/3 51/4/3
f 55/2/3 51/2/3 54/2/3
f 56/4/3 52/4/3 55/4/3
f 59/5/3 58/5/3 57/5/3
f 60/5/3 58/5/3 59/5/3
f 61/5/4 62/5/4 63/5/4
f 63/5/4 62/5/4 64/5/4
f 65/1/4 66/1/4 69/1/4
f 66/2/4 67/2/4 70/2/4
f 69/1/4 66/1/4 70/1/4
f 67/4/4 68/4/4 71/4/4
f 70/2/4 67/2/4 71/2/4
f 71/4/4 68/4/4 72/4/4
f 73/3/4 74/3/4 75/3/4
f 75/3/4 74/3/4 76/3/4
f 75/4/4 76/4/4 77/4/4
f 77/4/4 76/4/4 78/4/4
f 77/3/4 78/3/4 79/3/4
f 79/3/4 78/3/4 80/3/4
f 85/2/5 82/2/5 81/2/5
f 86/3/5 83/3/5 82/3/5
f 86/2/5 82/2/5 85/2/5
f 87/4/5 84/4/5 83/4/5
f 87/3/5 83/3/5 86/3/5
f 88/4/5 84/4/5 87/4/5
f 89/1/5 86/1/5 85/1/5
f 90/3/5 87/3/5 86/3/5
f 90/1/5 86/1/5 89/1/5
f 91/2/5 88/2/5 87/2/5
f 91/3/5 87/3/5 90/3/5
f 92/2/5 88/2/5 91/2/5
f 93/3/5 90/3/5 89/3/5
f 94/4/5 91/4/5 90/4/5
f 94/3/5 90/3/5 93/3/5
f 95/3/5 92/3/5 91/3/5
f 95/4/5 91/4/5 94/4/5
f 96/3/5 92/3/5 95/3/5
f 97/2/6 98/2/6 101/2/6
f 98/3/6 99/3/6 102/3/6
f 101/2/6 98/2/6 102/2/6
f 101/1/6 102/1/6 103/1/6
f 102/3/6 99/3/6 103/3/6
f 99/4/6 100/4/6 104/4/6
f 103/3/6 99/3/6 104/3/6
f 104/4/6 100/4/6 105/4/6
f 101/1/6 103/1/6 106/1/6
f 106/1/6 103/1/6 107/1/6
f 104/2/6 105/2/6 108/2/6
f 108/2/6 105/2/6 109/2/6
f 106/3/6 107/3/6 110/3/6
f 107/4/6 108/4/6 111/4/6
f 110/3/6 107/3/6 111/3/6
f 108/3/6 109/3/6 112/3/6
f 111/4/6 108/4/6 112/4/6
f 112/3/6 109/3/6 113/3/6
f 114/4/6 115/4/6 116/4/6
f 116/4/6 115/4/6 117/4/6
f 114/4/6 116/4/6 118/4/6
f 117/4/6 115/4/6 119/4/6
f 114/4/6 118/4/6 120/4/6
f 118/4/6 119/4/6 120/4/6
f 119/4/6 115/4/6 121/4/6
f 120/4/6 119/4/6 121/4/6
f 122/5/6 123/5/6 124/5/6
f 124/5/6 123/5/6 125/5/6
