# MagicaVoxel @ Ephtracy

# group
o 

# material
mtllib filar 1.mtl
usemtl palette

# normals
vn -1 0 0
vn 1 0 0
vn 0 0 1
vn 0 0 -1
vn 0 -1 0
vn 0 1 0

# texcoords
vt 0.919922 0.5
vt 0.966797 0.5
vt 0.970703 0.5
vt 0.974609 0.5

# verts
v 0 2 0
v 0 2 -2.8
v 0 2.3 0
v 0 2.3 -2.8
v 0 9.5 0
v 0 9.5 -2.8
v 0 10.3 0
v 0 10.3 -2.8
v 0 10.4 0
v 0 10.4 -2.8
v 0.1 2.3 -0.1
v 0.1 2.3 -2.7
v 0.1 2.4 -0.1
v 0.1 2.4 -2.7
v 0.1 9.4 -0.1
v 0.1 9.4 -2.7
v 0.1 9.5 -0.1
v 0.1 9.5 -2.7
v 0.2 2.4 -0.6
v 0.2 2.4 -0.7
v 0.2 2.4 -2.1
v 0.2 2.4 -2.2
v 0.2 9.4 -0.6
v 0.2 9.4 -0.7
v 0.2 9.4 -2.1
v 0.2 9.4 -2.2
v 0.4 2.4 -0.4
v 0.4 2.4 -0.5
v 0.4 2.4 -0.6
v 0.4 2.4 -2.2
v 0.4 2.4 -2.3
v 0.4 2.4 -2.4
v 0.4 9.4 -0.4
v 0.4 9.4 -0.5
v 0.4 9.4 -0.6
v 0.4 9.4 -2.2
v 0.4 9.4 -2.3
v 0.4 9.4 -2.4
v 0.6 2.4 -0.2
v 0.6 2.4 -0.3
v 0.6 2.4 -0.4
v 0.6 2.4 -2.4
v 0.6 2.4 -2.6
v 0.6 9.4 -0.2
v 0.6 9.4 -0.3
v 0.6 9.4 -0.4
v 0.6 9.4 -2.4
v 0.6 9.4 -2.6
v 2.6 2.3 -2
v 2.6 2.3 -2.2
v 2.6 2.4 -2
v 2.6 2.4 -2.1
v 2.6 2.4 -2.2
v 0.7 2.3 -2
v 0.7 2.3 -2.2
v 0.7 2.4 -2
v 0.7 2.4 -2.2
v 2.2 2.4 -0.2
v 2.2 2.4 -0.3
v 2.2 2.4 -0.4
v 2.2 2.4 -2.4
v 2.2 2.4 -2.5
v 2.2 2.4 -2.6
v 2.2 9.4 -0.2
v 2.2 9.4 -0.3
v 2.2 9.4 -0.4
v 2.2 9.4 -2.4
v 2.2 9.4 -2.5
v 2.2 9.4 -2.6
v 2.4 2.4 -0.4
v 2.4 2.4 -0.5
v 2.4 2.4 -0.6
v 2.4 2.4 -2.2
v 2.4 2.4 -2.3
v 2.4 2.4 -2.4
v 2.4 9.4 -0.4
v 2.4 9.4 -0.5
v 2.4 9.4 -0.6
v 2.4 9.4 -2.2
v 2.4 9.4 -2.3
v 2.4 9.4 -2.4
v 2.6 2.4 -0.6
v 2.6 2.4 -0.7
v 2.6 2.4 -2.1
v 2.6 2.4 -2.2
v 2.6 9.4 -0.6
v 2.6 9.4 -0.7
v 2.6 9.4 -2.1
v 2.6 9.4 -2.2
v 2.7 2.3 -0.1
v 2.7 2.3 -2.7
v 2.7 2.4 -0.1
v 2.7 2.4 -2.7
v 2.7 9.4 -0.1
v 2.7 9.4 -2.7
v 2.7 9.5 -0.1
v 2.7 9.5 -2.7
v 2.8 2 0
v 2.8 2 -2.8
v 2.8 2.3 0
v 2.8 2.3 -2.8
v 2.8 9.5 0
v 2.8 9.5 -2.8
v 2.8 10.3 0
v 2.8 10.3 -2.8
v 2.8 10.4 0
v 2.8 10.4 -2.8
v 0 2 0
v 0 2.3 0
v 0 9.5 0
v 0 10.3 0
v 0 10.4 0
v 2.8 2 0
v 2.8 2.3 0
v 2.8 9.5 0
v 2.8 10.3 0
v 2.8 10.4 0
v 0.1 2.3 -0.1
v 0.1 2.4 -0.1
v 0.1 9.4 -0.1
v 0.1 9.5 -0.1
v 2.7 2.3 -0.1
v 2.7 2.4 -0.1
v 2.7 9.4 -0.1
v 2.7 9.5 -0.1
v 0.6 2.4 -0.2
v 0.6 9.4 -0.2
v 0.7 2.4 -0.2
v 0.7 9.4 -0.2
v 2.1 2.4 -0.2
v 2.1 9.4 -0.2
v 2.2 2.4 -0.2
v 2.2 9.4 -0.2
v 0.4 2.4 -0.4
v 0.4 9.4 -0.4
v 0.5 2.4 -0.4
v 0.5 9.4 -0.4
v 0.6 2.4 -0.4
v 0.6 9.4 -0.4
v 2.2 2.4 -0.4
v 2.2 9.4 -0.4
v 2.3 2.4 -0.4
v 2.3 9.4 -0.4
v 2.4 2.4 -0.4
v 2.4 9.4 -0.4
v 0.2 2.4 -0.6
v 0.2 9.4 -0.6
v 0.3 2.4 -0.6
v 0.3 9.4 -0.6
v 0.4 2.4 -0.6
v 0.4 9.4 -0.6
v 2.4 2.4 -0.6
v 2.4 9.4 -0.6
v 2.5 2.4 -0.6
v 2.5 9.4 -0.6
v 2.6 2.4 -0.6
v 2.6 9.4 -0.6
v 0.7 2.3 -2.2
v 0.7 2.4 -2.2
v 2.4 2.3 -2.2
v 2.4 2.4 -2.2
v 2.5 2.4 -2.2
v 2.6 2.3 -2.2
v 2.6 2.4 -2.2
v 0.7 2.3 -2
v 0.7 2.4 -2
v 2.6 2.3 -2
v 2.6 2.4 -2
v 0.2 2.4 -2.2
v 0.2 9.4 -2.2
v 0.3 2.4 -2.2
v 0.3 9.4 -2.2
v 0.4 2.4 -2.2
v 0.4 9.4 -2.2
v 2.4 2.4 -2.2
v 2.4 9.4 -2.2
v 2.5 2.4 -2.2
v 2.5 9.4 -2.2
v 2.6 2.4 -2.2
v 2.6 9.4 -2.2
v 0.4 2.4 -2.4
v 0.4 9.4 -2.4
v 0.5 2.4 -2.4
v 0.5 9.4 -2.4
v 0.6 2.4 -2.4
v 0.6 9.4 -2.4
v 2.2 2.4 -2.4
v 2.2 9.4 -2.4
v 2.3 2.4 -2.4
v 2.3 9.4 -2.4
v 2.4 2.4 -2.4
v 2.4 9.4 -2.4
v 0.6 2.4 -2.6
v 0.6 9.4 -2.6
v 2.1 2.4 -2.6
v 2.1 9.4 -2.6
v 2.2 2.4 -2.6
v 2.2 9.4 -2.6
v 0.1 2.3 -2.7
v 0.1 2.4 -2.7
v 0.1 9.4 -2.7
v 0.1 9.5 -2.7
v 2.7 2.3 -2.7
v 2.7 2.4 -2.7
v 2.7 9.4 -2.7
v 2.7 9.5 -2.7
v 0 2 -2.8
v 0 2.3 -2.8
v 0 9.5 -2.8
v 0 10.3 -2.8
v 0 10.4 -2.8
v 2.8 2 -2.8
v 2.8 2.3 -2.8
v 2.8 9.5 -2.8
v 2.8 10.3 -2.8
v 2.8 10.4 -2.8
v 0 2 0
v 2.8 2 0
v 0.8 2 -2.2
v 2.6 2 -2.2
v 0.1 2 -2.3
v 0.8 2 -2.3
v 0.1 2 -2.7
v 2.6 2 -2.7
v 0 2 -2.8
v 2.8 2 -2.8
v 0.7 2.4 -2
v 2.6 2.4 -2
v 2.5 2.4 -2.1
v 2.6 2.4 -2.1
v 0.7 2.4 -2.2
v 2.4 2.4 -2.2
v 2.5 2.4 -2.2
v 2.6 2.4 -2.2
v 0.1 9.4 -0.1
v 2.7 9.4 -0.1
v 0.6 9.4 -0.2
v 0.7 9.4 -0.2
v 2.1 9.4 -0.2
v 2.2 9.4 -0.2
v 0.6 9.4 -0.3
v 2.2 9.4 -0.3
v 0.4 9.4 -0.4
v 0.5 9.4 -0.4
v 0.6 9.4 -0.4
v 2.2 9.4 -0.4
v 2.3 9.4 -0.4
v 2.4 9.4 -0.4
v 0.4 9.4 -0.5
v 2.4 9.4 -0.5
v 0.2 9.4 -0.6
v 0.3 9.4 -0.6
v 0.4 9.4 -0.6
v 2.4 9.4 -0.6
v 2.5 9.4 -0.6
v 2.6 9.4 -0.6
v 0.2 9.4 -0.7
v 2.6 9.4 -0.7
v 0.2 9.4 -2.1
v 2.6 9.4 -2.1
v 0.2 9.4 -2.2
v 0.3 9.4 -2.2
v 0.4 9.4 -2.2
v 2.4 9.4 -2.2
v 2.5 9.4 -2.2
v 2.6 9.4 -2.2
v 0.4 9.4 -2.3
v 2.4 9.4 -2.3
v 0.4 9.4 -2.4
v 0.5 9.4 -2.4
v 0.6 9.4 -2.4
v 2.2 9.4 -2.4
v 2.3 9.4 -2.4
v 2.4 9.4 -2.4
v 2.2 9.4 -2.5
v 0.6 9.4 -2.6
v 2.1 9.4 -2.6
v 2.2 9.4 -2.6
v 0.1 9.4 -2.7
v 2.7 9.4 -2.7
v 0 9.5 0
v 2.8 9.5 0
v 0.1 9.5 -0.1
v 2.7 9.5 -0.1
v 0.1 9.5 -2.7
v 2.7 9.5 -2.7
v 0 9.5 -2.8
v 2.8 9.5 -2.8
v 0 2.3 0
v 2.8 2.3 0
v 0.1 2.3 -0.1
v 2.7 2.3 -0.1
v 0.7 2.3 -2
v 2.6 2.3 -2
v 0.7 2.3 -2.2
v 2.4 2.3 -2.2
v 2.6 2.3 -2.2
v 0.1 2.3 -2.7
v 2.7 2.3 -2.7
v 0 2.3 -2.8
v 2.8 2.3 -2.8
v 0.1 2.4 -0.1
v 2.7 2.4 -0.1
v 0.2 2.4 -0.2
v 0.6 2.4 -0.2
v 0.7 2.4 -0.2
v 2.1 2.4 -0.2
v 2.2 2.4 -0.2
v 2.6 2.4 -0.2
v 0.6 2.4 -0.3
v 2.2 2.4 -0.3
v 0.4 2.4 -0.4
v 0.5 2.4 -0.4
v 0.6 2.4 -0.4
v 2.2 2.4 -0.4
v 2.3 2.4 -0.4
v 2.4 2.4 -0.4
v 0.4 2.4 -0.5
v 2.4 2.4 -0.5
v 0.2 2.4 -0.6
v 0.3 2.4 -0.6
v 0.4 2.4 -0.6
v 2.4 2.4 -0.6
v 2.5 2.4 -0.6
v 2.6 2.4 -0.6
v 0.2 2.4 -0.7
v 2.6 2.4 -0.7
v 0.2 2.4 -2.1
v 2.6 2.4 -2.1
v 0.2 2.4 -2.2
v 0.3 2.4 -2.2
v 0.4 2.4 -2.2
v 2.4 2.4 -2.2
v 2.5 2.4 -2.2
v 2.6 2.4 -2.2
v 0.4 2.4 -2.3
v 2.4 2.4 -2.3
v 0.4 2.4 -2.4
v 0.5 2.4 -2.4
v 0.6 2.4 -2.4
v 2.2 2.4 -2.4
v 2.3 2.4 -2.4
v 2.4 2.4 -2.4
v 2.2 2.4 -2.5
v 0.2 2.4 -2.6
v 0.6 2.4 -2.6
v 2.1 2.4 -2.6
v 2.2 2.4 -2.6
v 2.6 2.4 -2.6
v 0.1 2.4 -2.7
v 2.7 2.4 -2.7
v 0 10.4 0
v 2.8 10.4 0
v 0.1 10.4 -0.1
v 2.7 10.4 -0.1
v 0.1 10.4 -2.7
v 2.7 10.4 -2.7
v 0 10.4 -2.8
v 2.8 10.4 -2.8

# faces
f 3/4/1 2/4/1 1/4/1
f 4/4/1 2/4/1 3/4/1
f 7/3/1 6/3/1 5/3/1
f 8/3/1 6/3/1 7/3/1
f 9/1/1 8/1/1 7/1/1
f 10/1/1 8/1/1 9/1/1
f 13/1/1 12/1/1 11/1/1
f 14/1/1 12/1/1 13/1/1
f 17/3/1 16/3/1 15/3/1
f 18/3/1 16/3/1 17/3/1
f 23/1/1 20/1/1 19/1/1
f 24/3/1 21/3/1 20/3/1
f 24/1/1 20/1/1 23/1/1
f 25/1/1 22/1/1 21/1/1
f 25/3/1 21/3/1 24/3/1
f 26/1/1 22/1/1 25/1/1
f 33/1/1 28/1/1 27/1/1
f 34/3/1 29/3/1 28/3/1
f 34/1/1 28/1/1 33/1/1
f 35/3/1 29/3/1 34/3/1
f 36/3/1 31/3/1 30/3/1
f 37/1/1 32/1/1 31/1/1
f 37/3/1 31/3/1 36/3/1
f 38/1/1 32/1/1 37/1/1
f 44/1/1 40/1/1 39/1/1
f 45/3/1 41/3/1 40/3/1
f 45/1/1 40/1/1 44/1/1
f 46/3/1 41/3/1 45/3/1
f 47/3/1 43/3/1 42/3/1
f 48/3/1 43/3/1 47/3/1
f 51/1/1 50/1/1 49/1/1
f 52/1/1 50/1/1 51/1/1
f 53/1/1 50/1/1 52/1/1
f 54/1/2 55/1/2 56/1/2
f 56/1/2 55/1/2 57/1/2
f 58/1/2 59/1/2 64/1/2
f 59/3/2 60/3/2 65/3/2
f 64/1/2 59/1/2 65/1/2
f 65/3/2 60/3/2 66/3/2
f 61/3/2 62/3/2 67/3/2
f 62/1/2 63/1/2 68/1/2
f 67/3/2 62/3/2 68/3/2
f 68/1/2 63/1/2 69/1/2
f 70/1/2 71/1/2 76/1/2
f 71/3/2 72/3/2 77/3/2
f 76/1/2 71/1/2 77/1/2
f 77/3/2 72/3/2 78/3/2
f 73/3/2 74/3/2 79/3/2
f 74/1/2 75/1/2 80/1/2
f 79/3/2 74/3/2 80/3/2
f 80/1/2 75/1/2 81/1/2
f 82/1/2 83/1/2 86/1/2
f 83/3/2 84/3/2 87/3/2
f 86/1/2 83/1/2 87/1/2
f 84/1/2 85/1/2 88/1/2
f 87/3/2 84/3/2 88/3/2
f 88/1/2 85/1/2 89/1/2
f 90/1/2 91/1/2 92/1/2
f 92/1/2 91/1/2 93/1/2
f 94/3/2 95/3/2 96/3/2
f 96/3/2 95/3/2 97/3/2
f 98/4/2 99/4/2 100/4/2
f 100/4/2 99/4/2 101/4/2
f 102/3/2 103/3/2 104/3/2
f 104/3/2 103/3/2 105/3/2
f 104/1/2 105/1/2 106/1/2
f 106/1/2 105/1/2 107/1/2
f 113/4/3 109/4/3 108/4/3
f 114/4/3 109/4/3 113/4/3
f 115/3/3 111/3/3 110/3/3
f 116/1/3 112/1/3 111/1/3
f 116/3/3 111/3/3 115/3/3
f 117/1/3 112/1/3 116/1/3
f 122/1/3 119/1/3 118/1/3
f 123/1/3 119/1/3 122/1/3
f 124/3/3 121/3/3 120/3/3
f 125/3/3 121/3/3 124/3/3
f 128/1/3 127/1/3 126/1/3
f 129/1/3 127/1/3 128/1/3
f 130/3/3 129/3/3 128/3/3
f 131/3/3 129/3/3 130/3/3
f 132/1/3 131/1/3 130/1/3
f 133/1/3 131/1/3 132/1/3
f 136/1/3 135/1/3 134/1/3
f 137/1/3 135/1/3 136/1/3
f 138/3/3 137/3/3 136/3/3
f 139/3/3 137/3/3 138/3/3
f 142/3/3 141/3/3 140/3/3
f 143/3/3 141/3/3 142/3/3
f 144/1/3 143/1/3 142/1/3
f 145/1/3 143/1/3 144/1/3
f 148/1/3 147/1/3 146/1/3
f 149/1/3 147/1/3 148/1/3
f 150/3/3 149/3/3 148/3/3
f 151/3/3 149/3/3 150/3/3
f 154/3/3 153/3/3 152/3/3
f 155/3/3 153/3/3 154/3/3
f 156/1/3 155/1/3 154/1/3
f 157/1/3 155/1/3 156/1/3
f 160/3/3 159/3/3 158/3/3
f 161/3/3 159/3/3 160/3/3
f 162/4/3 161/4/3 160/4/3
f 163/4/3 162/4/3 160/4/3
f 164/4/3 162/4/3 163/4/3
f 165/3/4 166/3/4 167/3/4
f 167/3/4 166/3/4 168/3/4
f 169/1/4 170/1/4 171/1/4
f 171/1/4 170/1/4 172/1/4
f 171/3/4 172/3/4 173/3/4
f 173/3/4 172/3/4 174/3/4
f 175/3/4 176/3/4 177/3/4
f 177/3/4 176/3/4 178/3/4
f 177/1/4 178/1/4 179/1/4
f 179/1/4 178/1/4 180/1/4
f 181/1/4 182/1/4 183/1/4
f 183/1/4 182/1/4 184/1/4
f 183/3/4 184/3/4 185/3/4
f 185/3/4 184/3/4 186/3/4
f 187/3/4 188/3/4 189/3/4
f 189/3/4 188/3/4 190/3/4
f 189/1/4 190/1/4 191/1/4
f 191/1/4 190/1/4 192/1/4
f 193/3/4 194/3/4 195/3/4
f 195/3/4 194/3/4 196/3/4
f 195/1/4 196/1/4 197/1/4
f 197/1/4 196/1/4 198/1/4
f 199/1/4 200/1/4 203/1/4
f 203/1/4 200/1/4 204/1/4
f 201/3/4 202/3/4 205/3/4
f 205/3/4 202/3/4 206/3/4
f 207/4/4 208/4/4 212/4/4
f 212/4/4 208/4/4 213/4/4
f 209/3/4 210/3/4 214/3/4
f 210/1/4 211/1/4 215/1/4
f 214/3/4 210/3/4 215/3/4
f 215/1/4 211/1/4 216/1/4
f 219/4/5 218/4/5 217/4/5
f 220/4/5 218/4/5 219/4/5
f 221/4/5 219/4/5 217/4/5
f 222/3/5 220/3/5 219/3/5
f 222/4/5 219/4/5 221/4/5
f 223/4/5 221/4/5 217/4/5
f 223/3/5 222/3/5 221/3/5
f 224/4/5 218/4/5 220/4/5
f 224/3/5 222/3/5 223/3/5
f 224/3/5 220/3/5 222/3/5
f 225/4/5 223/4/5 217/4/5
f 225/4/5 224/4/5 223/4/5
f 226/4/5 218/4/5 224/4/5
f 226/4/5 224/4/5 225/4/5
f 229/3/5 228/3/5 227/3/5
f 230/3/5 228/3/5 229/3/5
f 231/3/5 229/3/5 227/3/5
f 232/3/5 229/3/5 231/3/5
f 233/1/5 230/1/5 229/1/5
f 233/3/5 229/3/5 232/3/5
f 234/1/5 230/1/5 233/1/5
f 237/3/5 236/3/5 235/3/5
f 238/3/5 236/3/5 237/3/5
f 239/3/5 236/3/5 238/3/5
f 240/3/5 236/3/5 239/3/5
f 241/3/5 237/3/5 235/3/5
f 242/3/5 236/3/5 240/3/5
f 243/3/5 241/3/5 235/3/5
f 244/3/5 241/3/5 243/3/5
f 245/3/5 241/3/5 244/3/5
f 246/3/5 236/3/5 242/3/5
f 247/3/5 236/3/5 246/3/5
f 248/3/5 236/3/5 247/3/5
f 249/3/5 243/3/5 235/3/5
f 250/3/5 236/3/5 248/3/5
f 251/3/5 249/3/5 235/3/5
f 252/3/5 249/3/5 251/3/5
f 253/3/5 249/3/5 252/3/5
f 254/3/5 236/3/5 250/3/5
f 255/3/5 236/3/5 254/3/5
f 256/3/5 236/3/5 255/3/5
f 257/3/5 251/3/5 235/3/5
f 258/3/5 236/3/5 256/3/5
f 259/3/5 257/3/5 235/3/5
f 260/3/5 236/3/5 258/3/5
f 261/3/5 259/3/5 235/3/5
f 266/3/5 236/3/5 260/3/5
f 267/3/5 262/3/5 261/3/5
f 267/3/5 263/3/5 262/3/5
f 268/3/5 265/3/5 264/3/5
f 268/3/5 266/3/5 265/3/5
f 269/3/5 267/3/5 261/3/5
f 274/3/5 266/3/5 268/3/5
f 275/3/5 273/3/5 272/3/5
f 275/3/5 274/3/5 273/3/5
f 276/3/5 270/3/5 269/3/5
f 276/3/5 271/3/5 270/3/5
f 278/3/5 274/3/5 275/3/5
f 279/3/5 261/3/5 235/3/5
f 279/3/5 278/3/5 277/3/5
f 279/3/5 269/3/5 261/3/5
f 279/3/5 277/3/5 276/3/5
f 279/3/5 276/3/5 269/3/5
f 280/3/5 266/3/5 274/3/5
f 280/3/5 278/3/5 279/3/5
f 280/3/5 274/3/5 278/3/5
f 280/3/5 236/3/5 266/3/5
f 283/3/5 282/3/5 281/3/5
f 284/3/5 282/3/5 283/3/5
f 285/3/5 283/3/5 281/3/5
f 286/3/5 282/3/5 284/3/5
f 287/3/5 285/3/5 281/3/5
f 287/3/5 286/3/5 285/3/5
f 288/3/5 282/3/5 286/3/5
f 288/3/5 286/3/5 287/3/5
f 289/4/6 290/4/6 291/4/6
f 291/4/6 290/4/6 292/4/6
f 293/4/6 294/4/6 295/4/6
f 295/4/6 294/4/6 296/4/6
f 296/4/6 294/4/6 297/4/6
f 289/4/6 291/4/6 298/4/6
f 292/4/6 290/4/6 299/4/6
f 289/4/6 298/4/6 300/4/6
f 298/4/6 299/4/6 300/4/6
f 299/4/6 290/4/6 301/4/6
f 300/4/6 299/4/6 301/4/6
f 302/1/6 303/1/6 304/1/6
f 304/1/6 303/1/6 305/1/6
f 305/1/6 303/1/6 306/1/6
f 306/1/6 303/1/6 307/1/6
f 307/1/6 303/1/6 308/1/6
f 308/1/6 303/1/6 309/1/6
f 304/4/6 305/4/6 310/4/6
f 308/4/6 309/4/6 311/4/6
f 304/4/6 310/4/6 312/4/6
f 312/4/6 310/4/6 313/4/6
f 313/4/6 310/4/6 314/4/6
f 311/4/6 309/4/6 315/4/6
f 315/4/6 309/4/6 316/4/6
f 316/4/6 309/4/6 317/4/6
f 304/4/6 312/4/6 318/4/6
f 317/4/6 309/4/6 319/4/6
f 302/1/6 304/1/6 320/1/6
f 304/4/6 318/4/6 320/4/6
f 320/4/6 318/4/6 321/4/6
f 321/4/6 318/4/6 322/4/6
f 319/4/6 309/4/6 323/4/6
f 323/4/6 309/4/6 324/4/6
f 309/1/6 303/1/6 325/1/6
f 324/4/6 309/4/6 325/4/6
f 302/1/6 320/1/6 326/1/6
f 325/1/6 303/1/6 327/1/6
f 302/1/6 326/1/6 328/1/6
f 327/1/6 303/1/6 329/1/6
f 302/1/6 328/1/6 330/1/6
f 329/1/6 303/1/6 335/1/6
f 330/4/6 331/4/6 336/4/6
f 331/4/6 332/4/6 336/4/6
f 333/4/6 334/4/6 337/4/6
f 334/4/6 335/4/6 337/4/6
f 330/4/6 336/4/6 338/4/6
f 337/4/6 335/4/6 343/4/6
f 341/4/6 342/4/6 344/4/6
f 342/4/6 343/4/6 344/4/6
f 302/1/6 330/1/6 345/1/6
f 330/4/6 338/4/6 345/4/6
f 338/4/6 339/4/6 345/4/6
f 339/4/6 340/4/6 345/4/6
f 345/4/6 340/4/6 346/4/6
f 344/4/6 343/4/6 348/4/6
f 343/4/6 335/4/6 349/4/6
f 335/1/6 303/1/6 349/1/6
f 348/4/6 343/4/6 349/4/6
f 347/1/6 348/1/6 350/1/6
f 346/1/6 347/1/6 350/1/6
f 348/1/6 349/1/6 350/1/6
f 345/1/6 346/1/6 350/1/6
f 302/1/6 345/1/6 350/1/6
f 349/1/6 303/1/6 351/1/6
f 350/1/6 349/1/6 351/1/6
f 352/1/6 353/1/6 354/1/6
f 354/1/6 353/1/6 355/1/6
f 352/1/6 354/1/6 356/1/6
f 354/3/6 355/3/6 356/3/6
f 355/1/6 353/1/6 357/1/6
f 356/3/6 355/3/6 357/3/6
f 352/1/6 356/1/6 358/1/6
f 356/1/6 357/1/6 358/1/6
f 357/1/6 353/1/6 359/1/6
f 358/1/6 357/1/6 359/1/6
