# MagicaVoxel @ Ephtracy

# group
o 

# material
mtllib rózga.mtl
usemtl palette

# normals
vn -1 0 0
vn 1 0 0
vn 0 0 1
vn 0 0 -1
vn 0 -1 0
vn 0 1 0

# texcoords
vt 0.439453 0.5
vt 0.697266 0.5
vt 0.759766 0.5
vt 0.845703 0.5
vt 0.966797 0.5

# verts
v 0 4.3 -0.4
v 0 4.3 -1.2
v 0 4.6 -0.4
v 0 4.6 -1.2
v 0.1 4.3 -0.1
v 0.1 4.3 -0.4
v 0.1 4.5 -0.1
v 0.1 4.5 -0.4
v 0.1 4.6 -0.4
v 0.1 4.6 -1.2
v 0.1 4.7 -0.4
v 0.1 4.7 -0.6
v 0.1 4.8 -0.6
v 0.1 4.8 -1.2
v 0.2 2 -0.9
v 0.2 2 -1.1
v 0.2 2.1 -0.9
v 0.2 2.1 -1.1
v 0.2 2.2 -0.9
v 0.2 2.2 -1.1
v 0.2 2.6 -0.9
v 0.2 2.6 -1.1
v 0.2 2.7 -0.9
v 0.2 2.7 -1.1
v 0.2 3 -0.9
v 0.2 3 -1.1
v 0.2 3.1 -0.9
v 0.2 3.1 -1.1
v 0.2 3.4 -0.9
v 0.2 3.4 -1.1
v 0.2 3.5 -0.9
v 0.2 3.5 -1.1
v 0.2 3.7 -0.9
v 0.2 3.7 -1.1
v 0.2 3.8 -0.9
v 0.2 3.8 -1.1
v 0.2 4 -0.9
v 0.2 4 -1.1
v 0.2 4.1 -0.9
v 0.2 4.1 -1.1
v 0.2 4.3 0
v 0.2 4.3 -0.1
v 0.2 4.3 -0.9
v 0.2 4.3 -1.1
v 0.2 4.5 0
v 0.2 4.5 -0.1
v 0.2 4.5 -0.4
v 0.2 4.6 -0.1
v 0.2 4.6 -0.4
v 0.4 2 -0.9
v 0.4 2 -1.1
v 0.4 2.1 -0.9
v 0.4 2.1 -1.1
v 0.4 2.2 -0.9
v 0.4 2.2 -1.1
v 0.4 2.6 -0.9
v 0.4 2.6 -1.1
v 0.4 2.7 -0.9
v 0.4 2.7 -1.1
v 0.4 3 -0.9
v 0.4 3 -1.1
v 0.4 3.1 -0.9
v 0.4 3.1 -1.1
v 0.4 3.4 -0.9
v 0.4 3.4 -1.1
v 0.4 3.5 -0.9
v 0.4 3.5 -1.1
v 0.4 3.7 -0.9
v 0.4 3.7 -1.1
v 0.4 3.8 -0.9
v 0.4 3.8 -1.1
v 0.4 4 -0.9
v 0.4 4 -1.1
v 0.4 4.1 -0.9
v 0.4 4.1 -1.1
v 0.4 4.3 0
v 0.4 4.3 -0.1
v 0.4 4.3 -0.9
v 0.4 4.3 -1
v 0.4 4.3 -1.1
v 0.4 4.5 0
v 0.4 4.5 -0.1
v 0.4 4.5 -0.4
v 0.4 4.6 -0.1
v 0.4 4.6 -0.4
v 0.5 4.3 -0.1
v 0.5 4.3 -0.4
v 0.5 4.5 -0.1
v 0.5 4.5 -0.4
v 0.5 4.6 -0.4
v 0.5 4.6 -1.2
v 0.5 4.7 -0.4
v 0.5 4.7 -0.6
v 0.5 4.8 -0.6
v 0.5 4.8 -1.2
v 0.6 4.3 -0.4
v 0.6 4.3 -1.2
v 0.6 4.6 -0.4
v 0.6 4.6 -1.2
v 0.2 4.3 0
v 0.2 4.5 0
v 0.4 4.3 0
v 0.4 4.5 0
v 0.1 4.3 -0.1
v 0.1 4.5 -0.1
v 0.2 4.3 -0.1
v 0.2 4.5 -0.1
v 0.2 4.6 -0.1
v 0.4 4.3 -0.1
v 0.4 4.5 -0.1
v 0.4 4.6 -0.1
v 0.5 4.3 -0.1
v 0.5 4.5 -0.1
v 0 4.3 -0.4
v 0 4.6 -0.4
v 0.1 4.3 -0.4
v 0.1 4.5 -0.4
v 0.1 4.6 -0.4
v 0.1 4.7 -0.4
v 0.2 4.5 -0.4
v 0.2 4.6 -0.4
v 0.4 4.5 -0.4
v 0.4 4.6 -0.4
v 0.5 4.3 -0.4
v 0.5 4.5 -0.4
v 0.5 4.6 -0.4
v 0.5 4.7 -0.4
v 0.6 4.3 -0.4
v 0.6 4.6 -0.4
v 0.1 4.7 -0.6
v 0.1 4.8 -0.6
v 0.5 4.7 -0.6
v 0.5 4.8 -0.6
v 0.2 2 -0.9
v 0.2 2.1 -0.9
v 0.2 2.2 -0.9
v 0.2 2.6 -0.9
v 0.2 2.7 -0.9
v 0.2 3 -0.9
v 0.2 3.1 -0.9
v 0.2 3.4 -0.9
v 0.2 3.5 -0.9
v 0.2 3.7 -0.9
v 0.2 3.8 -0.9
v 0.2 4 -0.9
v 0.2 4.1 -0.9
v 0.2 4.3 -0.9
v 0.4 2 -0.9
v 0.4 2.1 -0.9
v 0.4 2.2 -0.9
v 0.4 2.6 -0.9
v 0.4 2.7 -0.9
v 0.4 3 -0.9
v 0.4 3.1 -0.9
v 0.4 3.4 -0.9
v 0.4 3.5 -0.9
v 0.4 3.7 -0.9
v 0.4 3.8 -0.9
v 0.4 4 -0.9
v 0.4 4.1 -0.9
v 0.4 4.3 -0.9
v 0.2 2 -1.1
v 0.2 2.1 -1.1
v 0.2 2.2 -1.1
v 0.2 2.6 -1.1
v 0.2 2.7 -1.1
v 0.2 3 -1.1
v 0.2 3.1 -1.1
v 0.2 3.4 -1.1
v 0.2 3.5 -1.1
v 0.2 3.7 -1.1
v 0.2 3.8 -1.1
v 0.2 4 -1.1
v 0.2 4.1 -1.1
v 0.2 4.3 -1.1
v 0.4 2 -1.1
v 0.4 2.1 -1.1
v 0.4 2.2 -1.1
v 0.4 2.6 -1.1
v 0.4 2.7 -1.1
v 0.4 3 -1.1
v 0.4 3.1 -1.1
v 0.4 3.4 -1.1
v 0.4 3.5 -1.1
v 0.4 3.7 -1.1
v 0.4 3.8 -1.1
v 0.4 4 -1.1
v 0.4 4.1 -1.1
v 0.4 4.3 -1.1
v 0 4.3 -1.2
v 0 4.6 -1.2
v 0.1 4.6 -1.2
v 0.1 4.8 -1.2
v 0.5 4.6 -1.2
v 0.5 4.8 -1.2
v 0.6 4.3 -1.2
v 0.6 4.6 -1.2
v 0.2 2 -0.9
v 0.4 2 -0.9
v 0.2 2 -1.1
v 0.4 2 -1.1
v 0.2 4.3 0
v 0.4 4.3 0
v 0.1 4.3 -0.1
v 0.2 4.3 -0.1
v 0.4 4.3 -0.1
v 0.5 4.3 -0.1
v 0 4.3 -0.4
v 0.1 4.3 -0.4
v 0.5 4.3 -0.4
v 0.6 4.3 -0.4
v 0.2 4.3 -0.9
v 0.4 4.3 -0.9
v 0.5 4.3 -0.9
v 0.4 4.3 -1
v 0.5 4.3 -1
v 0.2 4.3 -1.1
v 0.4 4.3 -1.1
v 0 4.3 -1.2
v 0.6 4.3 -1.2
v 0.2 4.5 0
v 0.4 4.5 0
v 0.1 4.5 -0.1
v 0.2 4.5 -0.1
v 0.4 4.5 -0.1
v 0.5 4.5 -0.1
v 0.1 4.5 -0.4
v 0.2 4.5 -0.4
v 0.4 4.5 -0.4
v 0.5 4.5 -0.4
v 0.2 4.6 -0.1
v 0.4 4.6 -0.1
v 0 4.6 -0.4
v 0.1 4.6 -0.4
v 0.2 4.6 -0.4
v 0.4 4.6 -0.4
v 0.5 4.6 -0.4
v 0.6 4.6 -0.4
v 0 4.6 -1.2
v 0.1 4.6 -1.2
v 0.5 4.6 -1.2
v 0.6 4.6 -1.2
v 0.1 4.7 -0.4
v 0.5 4.7 -0.4
v 0.1 4.7 -0.6
v 0.5 4.7 -0.6
v 0.1 4.8 -0.6
v 0.5 4.8 -0.6
v 0.1 4.8 -1.2
v 0.5 4.8 -1.2

# faces
f 3/3/1 2/3/1 1/3/1
f 4/3/1 2/3/1 3/3/1
f 7/3/1 6/3/1 5/3/1
f 8/3/1 6/3/1 7/3/1
f 11/3/1 10/3/1 9/3/1
f 12/3/1 10/3/1 11/3/1
f 13/3/1 10/3/1 12/3/1
f 14/3/1 10/3/1 13/3/1
f 17/1/1 16/1/1 15/1/1
f 18/1/1 16/1/1 17/1/1
f 19/2/1 18/2/1 17/2/1
f 20/2/1 18/2/1 19/2/1
f 21/5/1 20/5/1 19/5/1
f 22/5/1 20/5/1 21/5/1
f 23/4/1 22/4/1 21/4/1
f 24/4/1 22/4/1 23/4/1
f 25/1/1 24/1/1 23/1/1
f 26/1/1 24/1/1 25/1/1
f 27/2/1 26/2/1 25/2/1
f 28/2/1 26/2/1 27/2/1
f 29/5/1 28/5/1 27/5/1
f 30/5/1 28/5/1 29/5/1
f 31/4/1 30/4/1 29/4/1
f 32/4/1 30/4/1 31/4/1
f 33/1/1 32/1/1 31/1/1
f 34/1/1 32/1/1 33/1/1
f 35/2/1 34/2/1 33/2/1
f 36/2/1 34/2/1 35/2/1
f 37/5/1 36/5/1 35/5/1
f 38/5/1 36/5/1 37/5/1
f 39/4/1 38/4/1 37/4/1
f 40/4/1 38/4/1 39/4/1
f 43/1/1 40/1/1 39/1/1
f 44/1/1 40/1/1 43/1/1
f 45/3/1 42/3/1 41/3/1
f 46/3/1 42/3/1 45/3/1
f 48/3/1 47/3/1 46/3/1
f 49/3/1 47/3/1 48/3/1
f 50/1/2 51/1/2 52/1/2
f 52/1/2 51/1/2 53/1/2
f 52/2/2 53/2/2 54/2/2
f 54/2/2 53/2/2 55/2/2
f 54/5/2 55/5/2 56/5/2
f 56/5/2 55/5/2 57/5/2
f 56/4/2 57/4/2 58/4/2
f 58/4/2 57/4/2 59/4/2
f 58/1/2 59/1/2 60/1/2
f 60/1/2 59/1/2 61/1/2
f 60/2/2 61/2/2 62/2/2
f 62/2/2 61/2/2 63/2/2
f 62/5/2 63/5/2 64/5/2
f 64/5/2 63/5/2 65/5/2
f 64/4/2 65/4/2 66/4/2
f 66/4/2 65/4/2 67/4/2
f 66/1/2 67/1/2 68/1/2
f 68/1/2 67/1/2 69/1/2
f 68/2/2 69/2/2 70/2/2
f 70/2/2 69/2/2 71/2/2
f 70/5/2 71/5/2 72/5/2
f 72/5/2 71/5/2 73/5/2
f 72/4/2 73/4/2 74/4/2
f 74/4/2 73/4/2 75/4/2
f 74/1/2 75/1/2 78/1/2
f 78/1/2 75/1/2 79/1/2
f 79/1/2 75/1/2 80/1/2
f 76/3/2 77/3/2 81/3/2
f 81/3/2 77/3/2 82/3/2
f 82/3/2 83/3/2 84/3/2
f 84/3/2 83/3/2 85/3/2
f 86/3/2 87/3/2 88/3/2
f 88/3/2 87/3/2 89/3/2
f 90/3/2 91/3/2 92/3/2
f 92/3/2 91/3/2 93/3/2
f 93/3/2 91/3/2 94/3/2
f 94/3/2 91/3/2 95/3/2
f 96/3/2 97/3/2 98/3/2
f 98/3/2 97/3/2 99/3/2
f 102/3/3 101/3/3 100/3/3
f 103/3/3 101/3/3 102/3/3
f 106/3/3 105/3/3 104/3/3
f 107/3/3 105/3/3 106/3/3
f 110/3/3 108/3/3 107/3/3
f 111/3/3 108/3/3 110/3/3
f 112/3/3 110/3/3 109/3/3
f 113/3/3 110/3/3 112/3/3
f 116/3/3 115/3/3 114/3/3
f 117/3/3 115/3/3 116/3/3
f 118/3/3 115/3/3 117/3/3
f 120/3/3 119/3/3 118/3/3
f 120/3/3 118/3/3 117/3/3
f 121/3/3 119/3/3 120/3/3
f 123/3/3 119/3/3 121/3/3
f 125/3/3 123/3/3 122/3/3
f 126/3/3 119/3/3 123/3/3
f 126/3/3 123/3/3 125/3/3
f 127/3/3 119/3/3 126/3/3
f 128/3/3 125/3/3 124/3/3
f 128/3/3 126/3/3 125/3/3
f 129/3/3 126/3/3 128/3/3
f 132/3/3 131/3/3 130/3/3
f 133/3/3 131/3/3 132/3/3
f 148/1/3 135/1/3 134/1/3
f 149/2/3 136/2/3 135/2/3
f 149/1/3 135/1/3 148/1/3
f 150/5/3 137/5/3 136/5/3
f 150/2/3 136/2/3 149/2/3
f 151/4/3 138/4/3 137/4/3
f 151/5/3 137/5/3 150/5/3
f 152/1/3 139/1/3 138/1/3
f 152/4/3 138/4/3 151/4/3
f 153/2/3 140/2/3 139/2/3
f 153/1/3 139/1/3 152/1/3
f 154/5/3 141/5/3 140/5/3
f 154/2/3 140/2/3 153/2/3
f 155/4/3 142/4/3 141/4/3
f 155/5/3 141/5/3 154/5/3
f 156/1/3 143/1/3 142/1/3
f 156/4/3 142/4/3 155/4/3
f 157/2/3 144/2/3 143/2/3
f 157/1/3 143/1/3 156/1/3
f 158/5/3 145/5/3 144/5/3
f 158/2/3 144/2/3 157/2/3
f 159/4/3 146/4/3 145/4/3
f 159/5/3 145/5/3 158/5/3
f 160/1/3 147/1/3 146/1/3
f 160/4/3 146/4/3 159/4/3
f 161/1/3 147/1/3 160/1/3
f 162/1/4 163/1/4 176/1/4
f 163/2/4 164/2/4 177/2/4
f 176/1/4 163/1/4 177/1/4
f 164/5/4 165/5/4 178/5/4
f 177/2/4 164/2/4 178/2/4
f 165/4/4 166/4/4 179/4/4
f 178/5/4 165/5/4 179/5/4
f 166/1/4 167/1/4 180/1/4
f 179/4/4 166/4/4 180/4/4
f 167/2/4 168/2/4 181/2/4
f 180/1/4 167/1/4 181/1/4
f 168/5/4 169/5/4 182/5/4
f 181/2/4 168/2/4 182/2/4
f 169/4/4 170/4/4 183/4/4
f 182/5/4 169/5/4 183/5/4
f 170/1/4 171/1/4 184/1/4
f 183/4/4 170/4/4 184/4/4
f 171/2/4 172/2/4 185/2/4
f 184/1/4 171/1/4 185/1/4
f 172/5/4 173/5/4 186/5/4
f 185/2/4 172/2/4 186/2/4
f 173/4/4 174/4/4 187/4/4
f 186/5/4 173/5/4 187/5/4
f 174/1/4 175/1/4 188/1/4
f 187/4/4 174/4/4 188/4/4
f 188/1/4 175/1/4 189/1/4
f 190/3/4 191/3/4 192/3/4
f 190/3/4 192/3/4 194/3/4
f 192/3/4 193/3/4 194/3/4
f 194/3/4 193/3/4 195/3/4
f 190/3/4 194/3/4 196/3/4
f 196/3/4 194/3/4 197/3/4
f 200/1/5 199/1/5 198/1/5
f 201/1/5 199/1/5 200/1/5
f 205/3/5 203/3/5 202/3/5
f 206/3/5 203/3/5 205/3/5
f 209/3/5 205/3/5 204/3/5
f 209/3/5 207/3/5 206/3/5
f 209/3/5 206/3/5 205/3/5
f 210/3/5 207/3/5 209/3/5
f 212/3/5 209/3/5 208/3/5
f 212/3/5 211/3/5 210/3/5
f 212/3/5 210/3/5 209/3/5
f 213/3/5 211/3/5 212/3/5
f 214/3/5 211/3/5 213/3/5
f 215/1/5 214/1/5 213/1/5
f 216/3/5 211/3/5 214/3/5
f 216/1/5 214/1/5 215/1/5
f 217/3/5 212/3/5 208/3/5
f 218/3/5 216/3/5 215/3/5
f 219/3/5 217/3/5 208/3/5
f 219/3/5 218/3/5 217/3/5
f 220/3/5 211/3/5 216/3/5
f 220/3/5 218/3/5 219/3/5
f 220/3/5 216/3/5 218/3/5
f 221/3/6 222/3/6 224/3/6
f 224/3/6 222/3/6 225/3/6
f 223/3/6 224/3/6 227/3/6
f 227/3/6 224/3/6 228/3/6
f 225/3/6 226/3/6 229/3/6
f 229/3/6 226/3/6 230/3/6
f 231/3/6 232/3/6 235/3/6
f 235/3/6 232/3/6 236/3/6
f 233/3/6 234/3/6 239/3/6
f 239/3/6 234/3/6 240/3/6
f 237/3/6 238/3/6 241/3/6
f 241/3/6 238/3/6 242/3/6
f 243/3/6 244/3/6 245/3/6
f 245/3/6 244/3/6 246/3/6
f 247/3/6 248/3/6 249/3/6
f 249/3/6 248/3/6 250/3/6
