# MagicaVoxel @ Ephtracy

# group
o 

# material
mtllib topór.mtl
usemtl palette

# normals
vn -1 0 0
vn 1 0 0
vn 0 0 1
vn 0 0 -1
vn 0 -1 0
vn 0 1 0

# texcoords
vt 0.310547 0.5
vt 0.931641 0.5

# verts
v 0 7.8 -0.4
v 0 7.8 -0.8
v 0 8.6 -0.4
v 0 8.6 -0.8
v 0.2 7.8 -0.2
v 0.2 7.8 -0.4
v 0.2 7.8 -0.8
v 0.2 7.8 -1
v 0.2 8.6 -0.2
v 0.2 8.6 -0.4
v 0.2 8.6 -0.8
v 0.2 8.6 -1
v 0.4 1 -0.3
v 0.4 1 -0.9
v 0.4 7.8 0
v 0.4 7.8 -0.2
v 0.4 7.8 -0.3
v 0.4 7.8 -0.9
v 0.4 7.8 -1
v 0.4 7.8 -1.2
v 0.4 8.6 0
v 0.4 8.6 -0.2
v 0.4 8.6 -0.3
v 0.4 8.6 -0.9
v 0.4 8.6 -1
v 0.4 8.6 -1.2
v 0.4 9.5 -0.3
v 0.4 9.5 -0.9
v 0.5 1 -0.2
v 0.5 1 -0.3
v 0.5 1 -0.9
v 0.5 1 -1
v 0.5 7.8 -0.2
v 0.5 7.8 -0.3
v 0.5 7.8 -0.9
v 0.5 7.8 -1
v 0.5 8.6 -0.2
v 0.5 8.6 -0.3
v 0.5 8.6 -0.9
v 0.5 8.6 -1
v 0.5 9.4 -0.2
v 0.5 9.4 -0.3
v 0.5 9.4 -0.9
v 0.5 9.4 -1
v 1 1 -0.3
v 1 1 -0.4
v 1 1 -0.8
v 1 1 -0.9
v 1 1.1 -0.3
v 1 1.1 -0.4
v 1 1.1 -0.8
v 1 1.1 -0.9
v 1.1 1 -0.4
v 1.1 1 -0.8
v 1.1 1.1 -0.4
v 1.1 1.1 -0.8
v 1.1 9.4 -0.4
v 1.1 9.4 -0.8
v 1.1 9.5 -0.4
v 1.1 9.5 -0.8
v 1.6 7.4 -0.2
v 1.6 7.4 -1
v 1.6 7.8 -0.2
v 1.6 7.8 -1
v 1.6 8.6 -0.2
v 1.6 8.6 -1
v 1.6 9 -0.2
v 1.6 9 -1
v 2 7 -0.2
v 2 7 -1
v 2 7.4 -0.2
v 2 7.4 -1
v 2 9 -0.2
v 2 9 -1
v 2 9.4 -0.2
v 2 9.4 -1
v 2.4 6.6 -0.4
v 2.4 6.6 -0.8
v 2.4 6.8 -0.2
v 2.4 6.8 -0.4
v 2.4 6.8 -0.8
v 2.4 6.8 -1
v 2.4 7 -0.2
v 2.4 7 -1
v 2.4 9.4 -0.2
v 2.4 9.4 -1
v 2.4 9.6 -0.2
v 2.4 9.6 -0.4
v 2.4 9.6 -0.8
v 2.4 9.6 -1
v 2.4 9.8 -0.4
v 2.4 9.8 -0.8
v 0.5 1 -0.4
v 0.5 1 -0.8
v 0.5 1.1 -0.4
v 0.5 1.1 -0.8
v 0.5 9.4 -0.4
v 0.5 9.4 -0.8
v 0.5 9.5 -0.4
v 0.5 9.5 -0.8
v 0.6 1 -0.3
v 0.6 1 -0.4
v 0.6 1 -0.8
v 0.6 1 -0.9
v 0.6 1.1 -0.3
v 0.6 1.1 -0.4
v 0.6 1.1 -0.8
v 0.6 1.1 -0.9
v 1.1 1 -0.2
v 1.1 1 -0.3
v 1.1 1 -0.9
v 1.1 1 -1
v 1.1 7.8 -0.2
v 1.1 7.8 -0.3
v 1.1 7.8 -0.9
v 1.1 7.8 -1
v 1.1 8.6 -0.2
v 1.1 8.6 -0.3
v 1.1 8.6 -0.9
v 1.1 8.6 -1
v 1.1 9.4 -0.2
v 1.1 9.4 -0.3
v 1.1 9.4 -0.9
v 1.1 9.4 -1
v 1.2 1 -0.3
v 1.2 1 -0.9
v 1.2 7.8 0
v 1.2 7.8 -0.2
v 1.2 7.8 -0.3
v 1.2 7.8 -0.9
v 1.2 7.8 -1
v 1.2 7.8 -1.2
v 1.2 8.6 0
v 1.2 8.6 -0.2
v 1.2 8.6 -0.3
v 1.2 8.6 -0.9
v 1.2 8.6 -1
v 1.2 8.6 -1.2
v 1.2 9.5 -0.3
v 1.2 9.5 -0.9
v 3.6 6.8 -0.2
v 3.6 6.8 -0.4
v 3.6 6.8 -0.8
v 3.6 6.8 -1
v 3.6 9.6 -0.2
v 3.6 9.6 -0.4
v 3.6 9.6 -0.8
v 3.6 9.6 -1
v 3.8 6.6 -0.4
v 3.8 6.6 -0.5
v 3.8 6.6 -0.7
v 3.8 6.6 -0.8
v 3.8 9.8 -0.4
v 3.8 9.8 -0.5
v 3.8 9.8 -0.7
v 3.8 9.8 -0.8
v 4 6.6 -0.5
v 4 6.6 -0.7
v 4 9.8 -0.5
v 4 9.8 -0.7
v 0.4 7.8 0
v 0.4 8.6 0
v 1.2 7.8 0
v 1.2 8.6 0
v 0.2 7.8 -0.2
v 0.2 8.6 -0.2
v 0.4 7.8 -0.2
v 0.4 8.6 -0.2
v 0.5 1 -0.2
v 0.5 7.8 -0.2
v 0.5 8.6 -0.2
v 0.5 9.4 -0.2
v 1.1 1 -0.2
v 1.1 7.8 -0.2
v 1.1 8.6 -0.2
v 1.1 9.4 -0.2
v 1.2 7.8 -0.2
v 1.2 8.6 -0.2
v 1.6 7.4 -0.2
v 1.6 7.8 -0.2
v 1.6 8.6 -0.2
v 1.6 9 -0.2
v 2 7 -0.2
v 2 7.4 -0.2
v 2 9 -0.2
v 2 9.4 -0.2
v 2.4 6.8 -0.2
v 2.4 7 -0.2
v 2.4 9.4 -0.2
v 2.4 9.6 -0.2
v 3.6 6.8 -0.2
v 3.6 9.6 -0.2
v 0.4 1 -0.3
v 0.4 7.8 -0.3
v 0.4 8.6 -0.3
v 0.4 9.5 -0.3
v 0.5 1 -0.3
v 0.5 7.8 -0.3
v 0.5 8.6 -0.3
v 0.5 9.4 -0.3
v 1.1 1 -0.3
v 1.1 7.8 -0.3
v 1.1 8.6 -0.3
v 1.1 9.4 -0.3
v 1.2 1 -0.3
v 1.2 7.8 -0.3
v 1.2 8.6 -0.3
v 1.2 9.5 -0.3
v 0 7.8 -0.4
v 0 8.6 -0.4
v 0.2 7.8 -0.4
v 0.2 8.6 -0.4
v 2.4 6.6 -0.4
v 2.4 6.8 -0.4
v 2.4 9.6 -0.4
v 2.4 9.8 -0.4
v 3.6 6.8 -0.4
v 3.6 9.6 -0.4
v 3.8 6.6 -0.4
v 3.8 9.8 -0.4
v 3.8 6.6 -0.5
v 3.8 9.8 -0.5
v 4 6.6 -0.5
v 4 9.8 -0.5
v 0.5 1 -0.8
v 0.5 1.1 -0.8
v 0.5 9.4 -0.8
v 0.5 9.5 -0.8
v 0.6 1 -0.8
v 0.6 1.1 -0.8
v 1 1 -0.8
v 1 1.1 -0.8
v 1.1 1 -0.8
v 1.1 1.1 -0.8
v 1.1 9.4 -0.8
v 1.1 9.5 -0.8
v 0.6 1 -0.9
v 0.6 1.1 -0.9
v 1 1 -0.9
v 1 1.1 -0.9
v 0.6 1 -0.3
v 0.6 1.1 -0.3
v 1 1 -0.3
v 1 1.1 -0.3
v 0.5 1 -0.4
v 0.5 1.1 -0.4
v 0.5 9.4 -0.4
v 0.5 9.5 -0.4
v 0.6 1 -0.4
v 0.6 1.1 -0.4
v 1 1 -0.4
v 1 1.1 -0.4
v 1.1 1 -0.4
v 1.1 1.1 -0.4
v 1.1 9.4 -0.4
v 1.1 9.5 -0.4
v 3.8 6.6 -0.7
v 3.8 9.8 -0.7
v 4 6.6 -0.7
v 4 9.8 -0.7
v 0 7.8 -0.8
v 0 8.6 -0.8
v 0.2 7.8 -0.8
v 0.2 8.6 -0.8
v 2.4 6.6 -0.8
v 2.4 6.8 -0.8
v 2.4 9.6 -0.8
v 2.4 9.8 -0.8
v 3.6 6.8 -0.8
v 3.6 9.6 -0.8
v 3.8 6.6 -0.8
v 3.8 9.8 -0.8
v 0.4 1 -0.9
v 0.4 7.8 -0.9
v 0.4 8.6 -0.9
v 0.4 9.5 -0.9
v 0.5 1 -0.9
v 0.5 7.8 -0.9
v 0.5 8.6 -0.9
v 0.5 9.4 -0.9
v 1.1 1 -0.9
v 1.1 7.8 -0.9
v 1.1 8.6 -0.9
v 1.1 9.4 -0.9
v 1.2 1 -0.9
v 1.2 7.8 -0.9
v 1.2 8.6 -0.9
v 1.2 9.5 -0.9
v 0.2 7.8 -1
v 0.2 8.6 -1
v 0.4 7.8 -1
v 0.4 8.6 -1
v 0.5 1 -1
v 0.5 7.8 -1
v 0.5 8.6 -1
v 0.5 9.4 -1
v 1.1 1 -1
v 1.1 7.8 -1
v 1.1 8.6 -1
v 1.1 9.4 -1
v 1.2 7.8 -1
v 1.2 8.6 -1
v 1.6 7.4 -1
v 1.6 7.8 -1
v 1.6 8.6 -1
v 1.6 9 -1
v 2 7 -1
v 2 7.4 -1
v 2 9 -1
v 2 9.4 -1
v 2.4 6.8 -1
v 2.4 7 -1
v 2.4 9.4 -1
v 2.4 9.6 -1
v 3.6 6.8 -1
v 3.6 9.6 -1
v 0.4 7.8 -1.2
v 0.4 8.6 -1.2
v 1.2 7.8 -1.2
v 1.2 8.6 -1.2
v 0.5 1 -0.2
v 1.1 1 -0.2
v 0.4 1 -0.3
v 0.5 1 -0.3
v 0.6 1 -0.3
v 1 1 -0.3
v 1.1 1 -0.3
v 1.2 1 -0.3
v 0.5 1 -0.4
v 0.6 1 -0.4
v 1 1 -0.4
v 1.1 1 -0.4
v 0.5 1 -0.8
v 0.6 1 -0.8
v 1 1 -0.8
v 1.1 1 -0.8
v 0.4 1 -0.9
v 0.5 1 -0.9
v 0.6 1 -0.9
v 1 1 -0.9
v 1.1 1 -0.9
v 1.2 1 -0.9
v 0.5 1 -1
v 1.1 1 -1
v 0.6 1.1 -0.3
v 1 1.1 -0.3
v 0.5 1.1 -0.4
v 0.6 1.1 -0.4
v 1 1.1 -0.4
v 1.1 1.1 -0.4
v 0.5 1.1 -0.8
v 0.6 1.1 -0.8
v 1 1.1 -0.8
v 1.1 1.1 -0.8
v 0.6 1.1 -0.9
v 1 1.1 -0.9
v 2.4 6.6 -0.4
v 3.8 6.6 -0.4
v 3.8 6.6 -0.5
v 4 6.6 -0.5
v 3.8 6.6 -0.7
v 4 6.6 -0.7
v 2.4 6.6 -0.8
v 3.8 6.6 -0.8
v 2.4 6.8 -0.2
v 3.6 6.8 -0.2
v 2.4 6.8 -0.4
v 3.6 6.8 -0.4
v 2.4 6.8 -0.8
v 3.6 6.8 -0.8
v 2.4 6.8 -1
v 3.6 6.8 -1
v 2 7 -0.2
v 2.4 7 -0.2
v 2 7 -1
v 2.4 7 -1
v 1.6 7.4 -0.2
v 2 7.4 -0.2
v 1.6 7.4 -1
v 2 7.4 -1
v 0.4 7.8 0
v 1.2 7.8 0
v 0.2 7.8 -0.2
v 0.4 7.8 -0.2
v 0.5 7.8 -0.2
v 1.1 7.8 -0.2
v 1.2 7.8 -0.2
v 1.6 7.8 -0.2
v 0.4 7.8 -0.3
v 0.5 7.8 -0.3
v 1.1 7.8 -0.3
v 1.2 7.8 -0.3
v 0 7.8 -0.4
v 0.2 7.8 -0.4
v 0 7.8 -0.8
v 0.2 7.8 -0.8
v 0.4 7.8 -0.9
v 0.5 7.8 -0.9
v 1.1 7.8 -0.9
v 1.2 7.8 -0.9
v 0.2 7.8 -1
v 0.4 7.8 -1
v 0.5 7.8 -1
v 1.1 7.8 -1
v 1.2 7.8 -1
v 1.6 7.8 -1
v 0.4 7.8 -1.2
v 1.2 7.8 -1.2
v 0.4 8.6 0
v 1.2 8.6 0
v 0.2 8.6 -0.2
v 0.4 8.6 -0.2
v 0.5 8.6 -0.2
v 1.1 8.6 -0.2
v 1.2 8.6 -0.2
v 1.6 8.6 -0.2
v 0.4 8.6 -0.3
v 0.5 8.6 -0.3
v 1.1 8.6 -0.3
v 1.2 8.6 -0.3
v 0 8.6 -0.4
v 0.2 8.6 -0.4
v 0 8.6 -0.8
v 0.2 8.6 -0.8
v 0.4 8.6 -0.9
v 0.5 8.6 -0.9
v 1.1 8.6 -0.9
v 1.2 8.6 -0.9
v 0.2 8.6 -1
v 0.4 8.6 -1
v 0.5 8.6 -1
v 1.1 8.6 -1
v 1.2 8.6 -1
v 1.6 8.6 -1
v 0.4 8.6 -1.2
v 1.2 8.6 -1.2
v 1.6 9 -0.2
v 2 9 -0.2
v 1.6 9 -1
v 2 9 -1
v 0.5 9.4 -0.2
v 1.1 9.4 -0.2
v 2 9.4 -0.2
v 2.4 9.4 -0.2
v 0.5 9.4 -0.3
v 1.1 9.4 -0.3
v 0.5 9.4 -0.4
v 1.1 9.4 -0.4
v 0.5 9.4 -0.8
v 1.1 9.4 -0.8
v 0.5 9.4 -0.9
v 1.1 9.4 -0.9
v 0.5 9.4 -1
v 1.1 9.4 -1
v 2 9.4 -1
v 2.4 9.4 -1
v 0.4 9.5 -0.3
v 1.2 9.5 -0.3
v 0.5 9.5 -0.4
v 1.1 9.5 -0.4
v 0.5 9.5 -0.8
v 1.1 9.5 -0.8
v 0.4 9.5 -0.9
v 1.2 9.5 -0.9
v 2.4 9.6 -0.2
v 3.6 9.6 -0.2
v 2.4 9.6 -0.4
v 3.6 9.6 -0.4
v 2.4 9.6 -0.8
v 3.6 9.6 -0.8
v 2.4 9.6 -1
v 3.6 9.6 -1
v 2.4 9.8 -0.4
v 3.8 9.8 -0.4
v 3.8 9.8 -0.5
v 4 9.8 -0.5
v 3.8 9.8 -0.7
v 4 9.8 -0.7
v 2.4 9.8 -0.8
v 3.8 9.8 -0.8

# faces
f 3/2/1 2/2/1 1/2/1
f 4/2/1 2/2/1 3/2/1
f 9/2/1 6/2/1 5/2/1
f 10/2/1 6/2/1 9/2/1
f 11/2/1 8/2/1 7/2/1
f 12/2/1 8/2/1 11/2/1
f 17/1/1 14/1/1 13/1/1
f 18/1/1 14/1/1 17/1/1
f 21/2/1 16/2/1 15/2/1
f 22/2/1 16/2/1 21/2/1
f 25/2/1 20/2/1 19/2/1
f 26/2/1 20/2/1 25/2/1
f 27/1/1 24/1/1 23/1/1
f 28/1/1 24/1/1 27/1/1
f 33/1/1 30/1/1 29/1/1
f 34/1/1 30/1/1 33/1/1
f 35/1/1 32/1/1 31/1/1
f 36/1/1 32/1/1 35/1/1
f 41/1/1 38/1/1 37/1/1
f 42/1/1 38/1/1 41/1/1
f 43/1/1 40/1/1 39/1/1
f 44/1/1 40/1/1 43/1/1
f 49/1/1 46/1/1 45/1/1
f 50/1/1 46/1/1 49/1/1
f 51/1/1 48/1/1 47/1/1
f 52/1/1 48/1/1 51/1/1
f 55/1/1 54/1/1 53/1/1
f 56/1/1 54/1/1 55/1/1
f 59/1/1 58/1/1 57/1/1
f 60/1/1 58/1/1 59/1/1
f 63/2/1 62/2/1 61/2/1
f 64/2/1 62/2/1 63/2/1
f 67/2/1 66/2/1 65/2/1
f 68/2/1 66/2/1 67/2/1
f 71/2/1 70/2/1 69/2/1
f 72/2/1 70/2/1 71/2/1
f 75/2/1 74/2/1 73/2/1
f 76/2/1 74/2/1 75/2/1
f 80/2/1 78/2/1 77/2/1
f 81/2/1 78/2/1 80/2/1
f 83/2/1 80/2/1 79/2/1
f 83/2/1 82/2/1 81/2/1
f 83/2/1 81/2/1 80/2/1
f 84/2/1 82/2/1 83/2/1
f 87/2/1 86/2/1 85/2/1
f 88/2/1 86/2/1 87/2/1
f 89/2/1 86/2/1 88/2/1
f 90/2/1 86/2/1 89/2/1
f 91/2/1 89/2/1 88/2/1
f 92/2/1 89/2/1 91/2/1
f 93/1/2 94/1/2 95/1/2
f 95/1/2 94/1/2 96/1/2
f 97/1/2 98/1/2 99/1/2
f 99/1/2 98/1/2 100/1/2
f 101/1/2 102/1/2 105/1/2
f 105/1/2 102/1/2 106/1/2
f 103/1/2 104/1/2 107/1/2
f 107/1/2 104/1/2 108/1/2
f 109/1/2 110/1/2 113/1/2
f 113/1/2 110/1/2 114/1/2
f 111/1/2 112/1/2 115/1/2
f 115/1/2 112/1/2 116/1/2
f 117/1/2 118/1/2 121/1/2
f 121/1/2 118/1/2 122/1/2
f 119/1/2 120/1/2 123/1/2
f 123/1/2 120/1/2 124/1/2
f 125/1/2 126/1/2 129/1/2
f 129/1/2 126/1/2 130/1/2
f 127/2/2 128/2/2 133/2/2
f 133/2/2 128/2/2 134/2/2
f 131/2/2 132/2/2 137/2/2
f 137/2/2 132/2/2 138/2/2
f 135/1/2 136/1/2 139/1/2
f 139/1/2 136/1/2 140/1/2
f 141/2/2 142/2/2 145/2/2
f 145/2/2 142/2/2 146/2/2
f 143/2/2 144/2/2 147/2/2
f 147/2/2 144/2/2 148/2/2
f 149/2/2 150/2/2 153/2/2
f 153/2/2 150/2/2 154/2/2
f 151/2/2 152/2/2 155/2/2
f 155/2/2 152/2/2 156/2/2
f 157/2/2 158/2/2 159/2/2
f 159/2/2 158/2/2 160/2/2
f 163/2/3 162/2/3 161/2/3
f 164/2/3 162/2/3 163/2/3
f 167/2/3 166/2/3 165/2/3
f 168/2/3 166/2/3 167/2/3
f 173/1/3 170/1/3 169/1/3
f 174/1/3 170/1/3 173/1/3
f 175/1/3 172/1/3 171/1/3
f 176/1/3 172/1/3 175/1/3
f 180/2/3 178/2/3 177/2/3
f 181/2/3 178/2/3 180/2/3
f 184/2/3 180/2/3 179/2/3
f 184/2/3 182/2/3 181/2/3
f 184/2/3 181/2/3 180/2/3
f 185/2/3 182/2/3 184/2/3
f 188/2/3 184/2/3 183/2/3
f 188/2/3 186/2/3 185/2/3
f 188/2/3 185/2/3 184/2/3
f 189/2/3 186/2/3 188/2/3
f 191/2/3 189/2/3 188/2/3
f 191/2/3 190/2/3 189/2/3
f 191/2/3 188/2/3 187/2/3
f 192/2/3 190/2/3 191/2/3
f 197/1/3 194/1/3 193/1/3
f 198/1/3 194/1/3 197/1/3
f 199/1/3 196/1/3 195/1/3
f 200/1/3 196/1/3 199/1/3
f 204/1/3 196/1/3 200/1/3
f 205/1/3 202/1/3 201/1/3
f 206/1/3 202/1/3 205/1/3
f 207/1/3 204/1/3 203/1/3
f 208/1/3 196/1/3 204/1/3
f 208/1/3 204/1/3 207/1/3
f 211/2/3 210/2/3 209/2/3
f 212/2/3 210/2/3 211/2/3
f 217/2/3 214/2/3 213/2/3
f 218/2/3 216/2/3 215/2/3
f 219/2/3 217/2/3 213/2/3
f 219/2/3 218/2/3 217/2/3
f 220/2/3 216/2/3 218/2/3
f 220/2/3 218/2/3 219/2/3
f 223/2/3 222/2/3 221/2/3
f 224/2/3 222/2/3 223/2/3
f 229/1/3 226/1/3 225/1/3
f 230/1/3 226/1/3 229/1/3
f 233/1/3 232/1/3 231/1/3
f 234/1/3 232/1/3 233/1/3
f 235/1/3 228/1/3 227/1/3
f 236/1/3 228/1/3 235/1/3
f 239/1/3 238/1/3 237/1/3
f 240/1/3 238/1/3 239/1/3
f 241/1/4 242/1/4 243/1/4
f 243/1/4 242/1/4 244/1/4
f 245/1/4 246/1/4 249/1/4
f 249/1/4 246/1/4 250/1/4
f 251/1/4 252/1/4 253/1/4
f 253/1/4 252/1/4 254/1/4
f 247/1/4 248/1/4 255/1/4
f 255/1/4 248/1/4 256/1/4
f 257/2/4 258/2/4 259/2/4
f 259/2/4 258/2/4 260/2/4
f 261/2/4 262/2/4 263/2/4
f 263/2/4 262/2/4 264/2/4
f 265/2/4 266/2/4 269/2/4
f 267/2/4 268/2/4 270/2/4
f 265/2/4 269/2/4 271/2/4
f 269/2/4 270/2/4 271/2/4
f 270/2/4 268/2/4 272/2/4
f 271/2/4 270/2/4 272/2/4
f 273/1/4 274/1/4 277/1/4
f 277/1/4 274/1/4 278/1/4
f 275/1/4 276/1/4 279/1/4
f 279/1/4 276/1/4 280/1/4
f 280/1/4 276/1/4 284/1/4
f 281/1/4 282/1/4 285/1/4
f 285/1/4 282/1/4 286/1/4
f 283/1/4 284/1/4 287/1/4
f 284/1/4 276/1/4 288/1/4
f 287/1/4 284/1/4 288/1/4
f 289/2/4 290/2/4 291/2/4
f 291/2/4 290/2/4 292/2/4
f 293/1/4 294/1/4 297/1/4
f 297/1/4 294/1/4 298/1/4
f 295/1/4 296/1/4 299/1/4
f 299/1/4 296/1/4 300/1/4
f 301/2/4 302/2/4 304/2/4
f 304/2/4 302/2/4 305/2/4
f 303/2/4 304/2/4 308/2/4
f 305/2/4 306/2/4 308/2/4
f 304/2/4 305/2/4 308/2/4
f 308/2/4 306/2/4 309/2/4
f 307/2/4 308/2/4 312/2/4
f 309/2/4 310/2/4 312/2/4
f 308/2/4 309/2/4 312/2/4
f 312/2/4 310/2/4 313/2/4
f 312/2/4 313/2/4 315/2/4
f 313/2/4 314/2/4 315/2/4
f 311/2/4 312/2/4 315/2/4
f 315/2/4 314/2/4 316/2/4
f 317/2/4 318/2/4 319/2/4
f 319/2/4 318/2/4 320/2/4
f 324/1/5 322/1/5 321/1/5
f 325/1/5 322/1/5 324/1/5
f 326/1/5 322/1/5 325/1/5
f 327/1/5 322/1/5 326/1/5
f 329/1/5 324/1/5 323/1/5
f 329/1/5 325/1/5 324/1/5
f 330/1/5 325/1/5 329/1/5
f 331/1/5 328/1/5 327/1/5
f 331/1/5 327/1/5 326/1/5
f 332/1/5 328/1/5 331/1/5
f 333/1/5 329/1/5 323/1/5
f 336/1/5 328/1/5 332/1/5
f 337/1/5 334/1/5 333/1/5
f 337/1/5 333/1/5 323/1/5
f 338/1/5 334/1/5 337/1/5
f 339/1/5 334/1/5 338/1/5
f 340/1/5 336/1/5 335/1/5
f 341/1/5 328/1/5 336/1/5
f 341/1/5 336/1/5 340/1/5
f 342/1/5 328/1/5 341/1/5
f 343/1/5 339/1/5 338/1/5
f 343/1/5 340/1/5 339/1/5
f 343/1/5 341/1/5 340/1/5
f 344/1/5 341/1/5 343/1/5
f 348/1/5 346/1/5 345/1/5
f 349/1/5 346/1/5 348/1/5
f 351/1/5 348/1/5 347/1/5
f 351/1/5 350/1/5 349/1/5
f 351/1/5 349/1/5 348/1/5
f 352/1/5 350/1/5 351/1/5
f 353/1/5 350/1/5 352/1/5
f 354/1/5 350/1/5 353/1/5
f 355/1/5 353/1/5 352/1/5
f 356/1/5 353/1/5 355/1/5
f 359/2/5 358/2/5 357/2/5
f 361/2/5 359/2/5 357/2/5
f 361/2/5 360/2/5 359/2/5
f 362/2/5 360/2/5 361/2/5
f 363/2/5 361/2/5 357/2/5
f 364/2/5 361/2/5 363/2/5
f 367/2/5 366/2/5 365/2/5
f 368/2/5 366/2/5 367/2/5
f 371/2/5 370/2/5 369/2/5
f 372/2/5 370/2/5 371/2/5
f 375/2/5 374/2/5 373/2/5
f 376/2/5 374/2/5 375/2/5
f 379/2/5 378/2/5 377/2/5
f 380/2/5 378/2/5 379/2/5
f 384/2/5 382/2/5 381/2/5
f 385/2/5 382/2/5 384/2/5
f 386/2/5 382/2/5 385/2/5
f 387/2/5 382/2/5 386/2/5
f 389/2/5 384/2/5 383/2/5
f 389/1/5 385/1/5 384/1/5
f 390/1/5 385/1/5 389/1/5
f 391/1/5 387/1/5 386/1/5
f 392/2/5 388/2/5 387/2/5
f 392/1/5 387/1/5 391/1/5
f 394/2/5 389/2/5 383/2/5
f 395/2/5 394/2/5 393/2/5
f 396/2/5 389/2/5 394/2/5
f 396/2/5 394/2/5 395/2/5
f 397/2/5 389/2/5 396/2/5
f 400/2/5 388/2/5 392/2/5
f 401/2/5 397/2/5 396/2/5
f 402/1/5 398/1/5 397/1/5
f 402/2/5 397/2/5 401/2/5
f 403/1/5 398/1/5 402/1/5
f 404/1/5 400/1/5 399/1/5
f 405/2/5 388/2/5 400/2/5
f 405/1/5 400/1/5 404/1/5
f 406/2/5 388/2/5 405/2/5
f 407/2/5 403/2/5 402/2/5
f 407/2/5 404/2/5 403/2/5
f 407/2/5 405/2/5 404/2/5
f 408/2/5 405/2/5 407/2/5
f 409/2/6 410/2/6 412/2/6
f 412/2/6 410/2/6 413/2/6
f 413/2/6 410/2/6 414/2/6
f 414/2/6 410/2/6 415/2/6
f 411/2/6 412/2/6 417/2/6
f 412/1/6 413/1/6 417/1/6
f 417/1/6 413/1/6 418/1/6
f 414/1/6 415/1/6 419/1/6
f 415/2/6 416/2/6 420/2/6
f 419/1/6 415/1/6 420/1/6
f 411/2/6 417/2/6 422/2/6
f 421/2/6 422/2/6 423/2/6
f 422/2/6 417/2/6 424/2/6
f 423/2/6 422/2/6 424/2/6
f 424/2/6 417/2/6 425/2/6
f 420/2/6 416/2/6 428/2/6
f 424/2/6 425/2/6 429/2/6
f 425/1/6 426/1/6 430/1/6
f 429/2/6 425/2/6 430/2/6
f 430/1/6 426/1/6 431/1/6
f 427/1/6 428/1/6 432/1/6
f 428/2/6 416/2/6 433/2/6
f 432/1/6 428/1/6 433/1/6
f 433/2/6 416/2/6 434/2/6
f 430/2/6 431/2/6 435/2/6
f 431/2/6 432/2/6 435/2/6
f 432/2/6 433/2/6 435/2/6
f 435/2/6 433/2/6 436/2/6
f 437/2/6 438/2/6 439/2/6
f 439/2/6 438/2/6 440/2/6
f 441/1/6 442/1/6 445/1/6
f 445/1/6 442/1/6 446/1/6
f 447/1/6 448/1/6 449/1/6
f 449/1/6 448/1/6 450/1/6
f 451/1/6 452/1/6 453/1/6
f 453/1/6 452/1/6 454/1/6
f 443/2/6 444/2/6 455/2/6
f 455/2/6 444/2/6 456/2/6
f 457/1/6 458/1/6 459/1/6
f 459/1/6 458/1/6 460/1/6
f 457/1/6 459/1/6 461/1/6
f 460/1/6 458/1/6 462/1/6
f 457/1/6 461/1/6 463/1/6
f 461/1/6 462/1/6 463/1/6
f 462/1/6 458/1/6 464/1/6
f 463/1/6 462/1/6 464/1/6
f 465/2/6 466/2/6 467/2/6
f 467/2/6 466/2/6 468/2/6
f 469/2/6 470/2/6 471/2/6
f 471/2/6 470/2/6 472/2/6
f 473/2/6 474/2/6 475/2/6
f 473/2/6 475/2/6 477/2/6
f 475/2/6 476/2/6 477/2/6
f 477/2/6 476/2/6 478/2/6
f 473/2/6 477/2/6 479/2/6
f 479/2/6 477/2/6 480/2/6
